<?xml version="1.0" encoding="UTF-8"?>
<!-- Generator: Adobe Illustrator 15.1.0, SVG Export Plug-In . SVG Version: 6.00 Build 0)  -->
<!DOCTYPE svg PUBLIC "-//W3C//DTD SVG 1.1//EN" "http://www.w3.org/Graphics/SVG/1.1/DTD/svg11.dtd">
<svg version="1.1" id="Spring_Icon" xmlns="http://www.w3.org/2000/svg" xmlns:xlink="http://www.w3.org/1999/xlink" x="0px" y="0px" width="313.854px" height="260.382px" viewBox="0 0 313.854 260.382" enable-background="new 0 0 313.854 260.382" xml:space="preserve">
<g>
	<g>
		<path fill="#010101" d="M291.489,85.292c-1.434,0-2.915,0.292-4.396,0.591c-3.068-10.213-12.346-17.265-23.129-17.265    c-10.138,0-18.982,6.218-22.561,15.553c-2.686-1.277-5.586-2.082-8.552-2.082c-5.228,0-9.995,2.032-13.578,5.297L133.095,1.21    c-1.621-1.614-4.243-1.614-5.864,0L1.172,127.266C0.405,128.024,0,129.085,0,130.188c0,1.104,0.464,2.138,1.252,2.928    L127.29,259.178c0.772,0.761,1.822,1.204,2.932,1.204c1.094,0,2.144-0.443,2.932-1.204l126.044-126.062    c0.798-0.803,1.188-1.844,1.188-2.916h31.104c12.338,0,22.364-10.112,22.364-22.556C313.854,95.325,303.827,85.292,291.489,85.292    z"/>
	</g>
	<g>
		<path fill="#50B848" d="M6.335,130.521c0.036,0.379,0.188,0.747,0.446,1.034l120.497,120.443l0.053-121.478H6.335z"/>
		<path fill="#ED1C24" d="M132.594,130.521v121.374l120.473-120.34c0.297-0.287,0.433-0.655,0.464-1.034H132.594z"/>
	</g>
	<path fill="#FFFFFF" d="M291.489,88.251c-1.651,0-3.329,0.243-5.03,0.698l-1.477,0.386l-0.355-1.483   c-2.302-9.565-10.805-16.257-20.662-16.257c-9.366,0-17.547,6.014-20.308,14.962l-0.574,1.775l-1.586-0.946   c-2.641-1.514-5.632-2.318-8.645-2.318c-6.243,0-11.661,3.365-14.675,8.35l-13.78-13.783l0,0l-48.465-48.474   c0-0.01,0-0.015-0.016-0.022l-17.329-17.347l-4.122-4.112h-0.016l-3.112-3.132c-0.312-0.309-0.745-0.479-1.175-0.479   c-0.434,0-0.854,0.171-1.172,0.479l-2.333,2.34h-0.012L55.894,79.634l40.303-22.867l29.46,13.875l22.112-16.798l55.137,55.144   c1.882,2.125,3.751,4.07,4.86,5.154l1.248,1.234c4.116,4.148,11.786,11.869,20.448,11.869h62.026   c10.699,0,19.396-8.792,19.396-19.603C310.886,96.963,302.188,88.251,291.489,88.251z"/>
	<g>
		<path fill="#010101" d="M154.695,48.592l66.336,66.248c0.898,0.903,2.334,0.898,3.231,0c0.876-0.885,0.876-2.324-0.015-3.215    l-65.939-65.921L154.695,48.592z"/>
	</g>
	<path fill="#010101" d="M263.637,106.54c-0.555-3.569-2.56-6.873-6.71-8.873c-3.688-1.775-8.643-1.92-12.203-0.754   c-2.905,0.946-5.818,3.209-7.113,5.739c-0.094,0.174-0.035,0.411,0.12,0.529c0.186,0.118,0.399,0.088,0.552-0.05   c4.649-4.755,11.395-5.109,16.173-2.811c5.759,2.779,8.213,7.577,7.272,14.755c-0.031,0.188,0.093,0.381,0.274,0.437   c0.202,0.069,0.405-0.025,0.498-0.193C263.79,112.784,264.133,109.543,263.637,106.54z"/>
</g>
<g id="yes">
	<path fill="#010101" d="M119.853,144.105c0.784,1.487-6.242,6.48-15.232,15.462c-10.14,10.146-22.545,24.383-24.39,25.567   c-2.001,1.267-4.674,0.313-5.541-0.986c-0.457-0.69-10.083-16.321-10.083-16.95c0-1.297,0.75-2.486,2.256-3.555   c1.511-1.089,3.048-2.563,4.452-1.879c0.434,0.204,6.53,10.617,8.188,10.595c3.31-0.07,27.396-29.837,32.113-30.287   C112.694,141.96,118.488,141.385,119.853,144.105z"/>
</g>
<g id="no">
	<path fill="#010101" d="M190.444,147.291c0.191,1.966-4.017,6.184-6.783,9.119c-2.771,2.934-5.86,6.796-8.344,9.853   c2.166,2.199,4.369,4.385,6.606,6.572c2.248,2.183,4.544,4.334,6.895,6.481c-0.369,1.304-1.922,2.936-2.698,3.021   c-0.275,0.25-3.317,4.52-6.598,3.771c0,0-4.637-3.434-6.347-5.226c-1.698-1.788-4.736-4.294-6.389-6.266   c-2.303,2.728-10.433,10.24-12.186,12.559c0,0-2.662,1.028-6.27-2.713c-0.595-0.604-1.113-1.258-1.535-1.966   c0.127-0.361-2.433-3.055-0.728-4.838c2.088-2.17,10.379-9.856,12.83-12.447c-2.294-3.018-12.577-16.268-11.901-18.375   c0.428-1.33,5.164-3.742,6.105-3.957l2.634-0.641c1.087,0.59,10.21,12.345,11.752,14.026c2.866-3.069,11.839-12.706,15.031-15.273   c0.722,0.255,1.378,0.58,1.964,0.991c0.583,0.412,4.103,3.425,4.103,3.425L190.444,147.291z"/>
</g>
<g id="thermometer_2" transform="translate(-259.64645,-264.84375)">
	<path id="path3069_4_" fill="#FFFFFF" d="M475.64,267.426c-3.404,0-6.147,2.739-6.147,6.143v42.095   c0,0.165,0.011,0.326,0.024,0.488c-2.44,1.852-4.017,4.783-4.017,8.082c0,5.6,4.54,10.14,10.14,10.14s10.14-4.54,10.14-10.14   c0-3.299-1.577-6.23-4.017-8.082c0.013-0.162,0.021-0.323,0.021-0.488v-42.095C481.783,270.165,479.044,267.426,475.64,267.426z"/>
	<g id="g3920_2_" transform="translate(-232.16103,4.7661891)">
		<path id="path3893_2_" fill="#ED1C24" d="M701.71,272.864v37.978c0,0.165,0.011,0.326,0.023,0.487    c-2.439,1.852-4.016,4.784-4.016,8.083c0,5.6,4.539,10.139,10.139,10.139c5.601,0,10.14-4.539,10.14-10.139    c0-3.299-1.576-6.231-4.017-8.083c0.013-0.161,0.021-0.322,0.021-0.487V272.87L701.71,272.864z"/>
	</g>
	<path id="path3069_2_" fill="none" stroke="#010101" stroke-width="2" stroke-linejoin="bevel" d="M475.64,267.426   c-3.404,0-6.147,2.739-6.147,6.143v42.095c0,0.165,0.011,0.326,0.024,0.488c-2.44,1.852-4.017,4.783-4.017,8.082   c0,5.6,4.54,10.14,10.14,10.14s10.14-4.54,10.14-10.14c0-3.299-1.577-6.23-4.017-8.082c0.013-0.162,0.021-0.323,0.021-0.488   v-42.095C481.783,270.165,479.044,267.426,475.64,267.426z"/>
	<path id="path3873_2_" fill="none" stroke="#010101" stroke-width="1.5" d="M469.446,307.636h7.402"/>
	<path id="path3877_2_" fill="none" stroke="#010101" stroke-width="1.5" d="M469.446,297.294h7.402"/>
	<path id="path3881_2_" fill="none" stroke="#010101" stroke-width="1.5" d="M469.446,286.953h7.402"/>
</g>
<g id="thermometer_1" transform="translate(-259.64645,-264.84375)">
	<path id="path3069_5_" fill="#FFFFFF" d="M300.931,267.255c-3.45,0-6.229,2.775-6.229,6.224v42.656   c0,0.167,0.012,0.331,0.022,0.495c-2.472,1.876-4.068,4.847-4.068,8.189c0,5.675,4.6,10.274,10.274,10.274   c5.674,0,10.273-4.599,10.273-10.274c0-3.343-1.598-6.313-4.068-8.189c0.012-0.164,0.02-0.327,0.02-0.495v-42.656   C307.155,270.03,304.38,267.255,300.931,267.255z"/>
	<g id="g3920_3_" transform="translate(-232.16103,4.7661891)">
		<path id="path3893_3_" fill="#ED1C24" d="M526.92,297.633v13.677c0,0.167,0.012,0.331,0.023,0.494    c-2.472,1.876-4.069,4.847-4.069,8.189c0,5.675,4.601,10.274,10.274,10.274s10.273-4.599,10.273-10.274    c0-3.342-1.598-6.313-4.069-8.189c0.013-0.164,0.021-0.327,0.021-0.494v-13.67L526.92,297.633z"/>
	</g>
	<path id="path3069_3_" fill="none" stroke="#010101" stroke-width="2" stroke-linejoin="bevel" d="M300.931,267.255   c-3.45,0-6.229,2.775-6.229,6.224v42.656c0,0.167,0.012,0.331,0.022,0.495c-2.472,1.876-4.068,4.847-4.068,8.189   c0,5.675,4.6,10.274,10.274,10.274c5.674,0,10.273-4.599,10.273-10.274c0-3.343-1.598-6.313-4.068-8.189   c0.012-0.164,0.02-0.327,0.02-0.495v-42.656C307.155,270.03,304.38,267.255,300.931,267.255z"/>
	<path id="path3873_3_" fill="none" stroke="#010101" stroke-width="1.5" d="M294.655,308h7.513"/>
	<path id="path3877_3_" fill="none" stroke="#010101" stroke-width="1.5" d="M294.655,297.521h7.513"/>
	<path id="path3881_3_" fill="none" stroke="#010101" stroke-width="1.5" d="M294.655,287.042h7.513"/>
</g>
<polygon id="increase" points="238.111,8.099 231.784,22.085 236.88,22.085 236.88,44.513 239.343,44.513 239.343,22.085   244.44,22.085 "/>
<polygon id="decrease" points="18.102,63.526 24.429,49.54 19.333,49.54 19.333,27.112 16.871,27.112 16.871,49.54 11.773,49.54 "/>
</svg>