<?xml version="1.0" encoding="UTF-8" standalone="no"?>
<!-- Generator: Adobe Illustrator 15.1.0, SVG Export Plug-In . SVG Version: 6.00 Build 0)  -->

<svg
   xmlns:dc="http://purl.org/dc/elements/1.1/"
   xmlns:cc="http://creativecommons.org/ns#"
   xmlns:rdf="http://www.w3.org/1999/02/22-rdf-syntax-ns#"
   xmlns:svg="http://www.w3.org/2000/svg"
   xmlns="http://www.w3.org/2000/svg"
   xmlns:sodipodi="http://sodipodi.sourceforge.net/DTD/sodipodi-0.dtd"
   xmlns:inkscape="http://www.inkscape.org/namespaces/inkscape"
   version="1.1"
   x="0px"
   y="0px"
   viewBox="319.444 19.065 682.8595 682.63622"
   enable-background="new 319.444 19.065 961.237 961.364"
   xml:space="preserve"
   id="svg2"
   inkscape:version="0.91 r13725"
   sodipodi:docname="summer_conditions_icon.svg"
   width="682.8595"
   height="682.63623"><metadata
     id="metadata30"><rdf:RDF><cc:Work
         rdf:about=""><dc:format>image/svg+xml</dc:format><dc:type
           rdf:resource="http://purl.org/dc/dcmitype/StillImage" /><dc:title></dc:title></cc:Work></rdf:RDF></metadata><defs
     id="defs28" /><sodipodi:namedview
     pagecolor="#ffffff"
     bordercolor="#666666"
     borderopacity="1"
     objecttolerance="10"
     gridtolerance="10"
     guidetolerance="10"
     inkscape:pageopacity="0"
     inkscape:pageshadow="2"
     inkscape:window-width="1680"
     inkscape:window-height="991"
     id="namedview26"
     showgrid="false"
     fit-margin-top="0"
     fit-margin-left="0"
     fit-margin-right="0"
     fit-margin-bottom="0"
     inkscape:zoom="0.69433512"
     inkscape:cx="327.42478"
     inkscape:cy="421.57828"
     inkscape:window-x="1362"
     inkscape:window-y="30"
     inkscape:window-maximized="1"
     inkscape:current-layer="svg2" /><path
     style="fill:#ffffff"
     inkscape:connector-curvature="0"
     id="path9"
     d="m 319.444,360.2594 c 2.903,4.166 4.671,7.702 7.322,10.479 37.248,37.5 74.622,74.747 111.995,112.121 71.212,71.339 142.425,142.677 213.511,214.016 6.061,6.061 8.712,6.187 15.908,1.641 1.895,-1.136 3.662,-2.651 5.178,-4.166 8.838,-8.712 17.676,-17.298 26.515,-26.137 98.737,-98.863 197.475,-197.854 296.339,-296.717 7.323,-7.323 8.586,-11.111 0.505,-21.086 -1.263,-1.516 -2.778,-2.904 -4.167,-4.419 -49.368,-49.369 -98.863,-98.864 -148.232,-148.232 C 788.257,141.4464 732.197,85.133399 676.01,28.946399 c -13.258,-13.258 -15.657,-13.005 -29.041,0.379 -48.737,48.737 -97.475,97.349001 -146.085,146.212001 -34.976,35.102 -69.697,70.455 -104.672,105.556 -22.854,22.854 -46.086,45.202 -68.939,68.056 -2.906,2.903 -4.926,6.817 -7.829,11.11 z" /><path
     style="fill:#010101"
     inkscape:connector-curvature="0"
     id="path11"
     d="m 319.444,360.2594 c 2.903,-4.293 4.924,-8.207 7.828,-11.237 22.854,-22.728 46.086,-45.202 68.939,-68.056 34.975,-35.102 69.696,-70.455 104.672,-105.556 48.61,-48.737 97.348,-97.475001 146.085,-146.212001 13.384,-13.384 15.783,-13.51 29.041,-0.378 56.187,56.187 112.247,112.374001 168.308,168.687001 49.369,49.495 98.863,98.863 148.232,148.232 1.389,1.389 2.904,2.777 4.167,4.419 8.081,9.975 6.944,13.763 -0.505,21.086 -98.864,98.737 -197.602,197.728 -296.339,296.718 -8.712,8.712 -17.551,17.424 -26.515,26.136 -1.642,1.516 -3.283,3.03 -5.178,4.167 -7.322,4.545 -9.975,4.293 -15.908,-1.642 -71.086,-71.212 -142.299,-142.551 -213.384,-213.763 -37.374,-37.374 -74.748,-74.747 -111.995,-112.121 -2.651,-2.778 -4.545,-6.314 -7.448,-10.48 z m 17.045,0.379 c 1.642,1.894 2.525,2.903 3.535,3.914 56.692,56.691 113.384,113.51 169.949,170.202 48.738,48.863 97.602,97.727 146.213,146.591 3.787,3.787 6.312,4.545 10.479,0.378 105.429,-105.682 210.985,-211.363 316.54,-316.919 1.011,-1.01 1.768,-2.272 3.157,-4.166 -216.918,0 -432.829,0 -649.873,0 z m 133.207,-136.616 c 0.379,0.379 0.631,0.884 1.01,1.263 1.011,-0.506 2.021,-1.011 2.904,-1.516 30.809,-17.551 61.742,-34.975 92.551,-52.651 4.419,-2.525 7.576,-3.156 12.373,0 16.162,10.479 32.829,20.202 49.117,30.429 3.156,1.895 5.176,1.895 8.08,-0.126 31.061,-20.075 62.248,-39.772 93.182,-59.975 4.672,-3.03 7.197,-2.146 10.606,1.263 22.854,23.106 45.833,46.086 68.813,69.065 23.358,23.485 46.843,46.844 70.201,70.328 3.41,3.409 7.45,6.818 12.248,4.672 3.409,-1.515 6.818,-4.924 8.459,-8.459 2.273,-4.799 -1.262,-8.839 -4.671,-12.248 -75.379,-75.505 -150.632,-150.884 -226.011,-226.389001 -7.07,-7.071 -7.323,-6.944 -14.52,0.126 -47.349,47.475 -94.697,94.950001 -142.172,142.298001 -13.887,14.267 -28.029,28.03 -42.17,41.92 z" /><path
     style="fill:#ffffff"
     inkscape:connector-curvature="0"
     id="path13"
     d="m 336.489,360.6384 c 217.172,0 433.081,0 650,0 -1.389,1.894 -2.146,3.156 -3.156,4.166 -105.556,105.682 -211.111,211.237 -316.541,316.919 -4.166,4.167 -6.818,3.283 -10.479,-0.378 -48.737,-48.99 -97.475,-97.728 -146.212,-146.591 -56.692,-56.692 -113.384,-113.511 -169.949,-170.202 -1.138,-0.884 -2.022,-2.021 -3.663,-3.914 z m 350.63,173.484 c -2.398,-9.344 3.031,-13.637 9.597,-17.298 1.263,-0.632 2.398,-1.642 3.535,-2.399 24.874,-17.929 36.49,-41.919 30.177,-72.222 -9.975,-47.98 -66.035,-69.571 -106.313,-41.414 -18.812,13.257 -28.156,31.818 -29.545,54.672 -0.253,5.176 1.01,7.828 7.07,7.322 7.323,-0.631 14.646,-0.126 21.97,-0.126 6.439,0 12.879,0 19.318,0 0,-2.525 0,-4.167 0,-5.682 -0.126,-9.723 6.061,-18.182 15.025,-20.454 9.722,-2.525 19.823,2.272 24.242,11.615 3.914,8.207 1.516,18.435 -6.312,24.495 -4.42,3.409 -9.471,6.188 -14.269,9.344 -18.561,12.121 -26.894,31.565 -22.475,52.399 15.658,-0.252 31.187,-0.252 47.98,-0.252 z m 4.672,41.667 c 0,-16.92 -12.879,-29.672 -29.672,-29.546 -16.035,0 -29.419,13.258 -29.671,29.419 -0.253,16.036 13.51,29.799 29.924,29.925 16.54,0.126 29.419,-13.005 29.419,-29.798 z" /><path
     style="fill:#ffffff"
     inkscape:connector-curvature="0"
     id="path15"
     d="m 469.696,224.0224 c 14.142,-13.89 28.409,-27.652 42.424,-41.667 47.476,-47.349 94.824,-94.823001 142.172,-142.298001 7.197,-7.197 7.45,-7.197 14.521,-0.126 75.379,75.505001 150.632,150.884001 226.01,226.389001 3.409,3.409 6.944,7.323 4.672,12.247 -1.642,3.409 -5.05,6.818 -8.46,8.46 -4.797,2.146 -8.712,-1.263 -12.247,-4.672 -23.358,-23.485 -46.843,-46.844 -70.202,-70.328 -22.979,-22.979 -45.959,-45.96 -68.812,-69.066 -3.535,-3.535 -5.935,-4.419 -10.606,-1.263 -30.935,20.202 -62.121,39.899 -93.182,59.975 -3.03,1.894 -5.051,2.02 -8.081,0.126 -16.288,-10.228 -32.954,-19.949 -49.116,-30.43 -4.798,-3.156 -8.081,-2.524 -12.374,0 -30.808,17.678 -61.742,35.102 -92.55,52.652 -1.011,0.505 -2.021,1.01 -2.904,1.515 -0.508,-0.757 -0.887,-1.135 -1.265,-1.514 z" /><g
     id="Layer_2"
     transform="translate(-136.365,-139.6146)">
     </g></svg>
