<?xml version="1.0" encoding="utf-8"?>
<!-- Generator: Adobe Illustrator 16.0.0, SVG Export Plug-In . SVG Version: 6.00 Build 0)  -->
<!DOCTYPE svg PUBLIC "-//W3C//DTD SVG 1.1//EN" "http://www.w3.org/Graphics/SVG/1.1/DTD/svg11.dtd">
<svg version="1.1" xmlns="http://www.w3.org/2000/svg" xmlns:xlink="http://www.w3.org/1999/xlink" x="0px" y="0px"
	 width="113.39px" height="113.39px" viewBox="0 0 113.39 113.39" enable-background="new 0 0 113.39 113.39" xml:space="preserve">
<g id="Layer_1">
	<g>
		<path fill-rule="evenodd" clip-rule="evenodd" fill="#FFFFFF" d="M0.379,88.108c0-29.023,0.003-58.046-0.018-87.069
			c0-0.707,0.159-0.867,0.867-0.867c37.167,0.02,74.334,0.02,111.502,0c0.707,0,0.871,0.159,0.867,0.867
			c-0.03,7.075-0.019,14.15-0.019,21.225c-0.105,0.067-0.209,0.137-0.317,0.2c-9.704,5.653-19.4,11.319-29.125,16.935
			c-0.871,0.503-0.909,0.824-0.407,1.645c5.407,8.836,10.77,17.698,16.15,26.55c0.255,0.419,0.519,0.711-0.145,1.091
			c-5.463,3.127-10.903,6.296-16.349,9.452c-0.388-0.024-0.492-0.362-0.647-0.617c-1.846-3.031-3.685-6.067-5.521-9.104
			c-3.512-5.804-7.038-11.601-10.514-17.427c-0.493-0.827-0.888-0.916-1.667-0.401c-1.465,0.966-2.989,1.843-4.489,2.758
			c-1.799,1.021-3.61,2.021-5.393,3.07c-1.476,0.868-3.05,1.573-4.405,2.643c-0.387-0.081-0.653,0.179-0.945,0.348
			c-12.278,7.143-24.553,14.292-36.833,21.432C8.782,83.273,4.578,85.685,0.379,88.108z"/>
		<path fill-rule="evenodd" clip-rule="evenodd" fill="#818181" d="M113.579,65.279c0,15.785-0.005,31.57,0.018,47.355
			c0.001,0.646-0.126,0.773-0.772,0.772c-27.294-0.021-54.587-0.018-81.881-0.018c0.103-0.355,0.456-0.407,0.711-0.556
			c23.232-13.508,46.467-27.011,69.706-40.508C105.426,69.964,109.506,67.627,113.579,65.279z"/>
		<path fill-rule="evenodd" clip-rule="evenodd" fill="#6185A2" d="M23.397,113.389c-7.399,0-14.798-0.007-22.197,0.014
			c-0.62,0.002-0.863-0.051-0.845-0.792c0.063-2.632,0.024-5.266,0.024-7.899c0.36,0.105,0.576-0.173,0.834-0.323
			c17.861-10.385,35.723-20.77,53.573-31.174c0.656-0.382,0.991-0.467,1.448,0.301c2.871,4.821,5.783,9.618,8.73,14.392
			c0.43,0.696,0.223,0.919-0.368,1.254c-2.586,1.468-5.151,2.974-7.723,4.468C45.912,100,34.949,106.371,23.993,112.754
			C23.755,112.893,23.285,112.892,23.397,113.389z M38.75,100.18c-0.575-0.999-1.032-1.886-1.579-2.714
			c-0.403-0.61-0.319-0.905,0.33-1.275c6.262-3.573,12.501-7.184,18.756-10.771c0.567-0.325,0.848-0.603,0.364-1.249
			c-0.41-0.547-0.758-1.161-1.025-1.791c-0.362-0.856-0.756-0.854-1.523-0.406c-6.172,3.603-12.379,7.147-18.556,10.742
			c-0.641,0.373-0.938,0.346-1.273-0.341c-0.441-0.903-1.004-1.748-1.588-2.742c-2.076,3.594-4.058,7.024-6.091,10.545
			C30.661,100.18,34.609,100.18,38.75,100.18z"/>
		<path fill-rule="evenodd" clip-rule="evenodd" fill="#06080B" d="M23.397,113.389c-0.112-0.498,0.358-0.496,0.596-0.635
			C34.949,106.371,45.912,100,56.874,93.629c2.571-1.495,5.136-3,7.723-4.468c0.59-0.335,0.798-0.558,0.368-1.254
			c-2.947-4.774-5.859-9.57-8.73-14.392c-0.458-0.768-0.792-0.683-1.448-0.301c-17.85,10.404-35.711,20.789-53.573,31.174
			c-0.258,0.15-0.474,0.429-0.834,0.323c0-0.44,0-0.881,0-1.321c0.307-0.149,0.624-0.279,0.917-0.45
			c4.052-2.353,8.1-4.712,12.15-7.069c13.577-7.903,27.15-15.814,40.743-23.689c0.779-0.451,0.794-0.763,0.353-1.463
			c-1.519-2.408-3.013-4.832-4.428-7.301c-0.439-0.767-0.756-0.687-1.4-0.312C33.321,72.083,17.917,81.042,2.51,89.994
			c-0.694,0.403-1.33,0.926-2.131,1.133c0-1.006,0-2.013,0-3.019c4.198-2.423,8.402-4.835,12.593-7.271
			c12.28-7.139,24.555-14.289,36.833-21.432c0.292-0.169,0.558-0.429,0.945-0.348c0.39,0.757,0.78,1.515,1.169,2.272
			c1.943,3.202,3.885,6.403,5.828,9.605c2.912,4.818,5.822,9.638,8.736,14.455c1.179,1.949,1.201,1.976,3.178,0.779
			c1.948-1.178,4.006-2.174,5.854-3.517c0.754-0.284,1.426-0.71,2.068-1.188c1.178-0.593,2.355-1.186,3.393-2.014
			c0.872-0.311,1.608-0.87,2.408-1.313c5.447-3.156,10.887-6.325,16.35-9.452c0.664-0.38,0.4-0.672,0.145-1.091
			c-5.38-8.852-10.743-17.714-16.15-26.55c-0.502-0.82-0.464-1.142,0.407-1.645c9.725-5.616,19.421-11.282,29.125-16.935
			c0.108-0.063,0.211-0.133,0.317-0.2c0,1.069,0,2.138,0,3.207c-0.116,0.035-0.244,0.049-0.346,0.108
			c-8.614,5.005-17.222,10.02-25.846,15.007c-0.573,0.331-0.449,0.596-0.191,1.016c1.536,2.503,3.095,4.994,4.563,7.537
			c0.432,0.747,0.729,0.749,1.419,0.344c6.512-3.82,13.045-7.602,19.575-11.388c0.258-0.149,0.47-0.425,0.825-0.36
			c0,0.44,0,0.88,0,1.32c-6.708,3.896-13.411,7.802-20.134,11.672c-0.699,0.402-0.246,0.715-0.054,1.032
			c2.884,4.774,5.806,9.525,8.653,14.32c0.496,0.835,0.832,0.856,1.618,0.389c3.281-1.947,6.608-3.818,9.917-5.716
			c0,1.509,0,3.019,0,4.528c-4.073,2.348-8.153,4.685-12.219,7.046c-23.238,13.497-46.474,27-69.706,40.508
			c-0.255,0.148-0.608,0.201-0.711,0.556C28.428,113.389,25.912,113.389,23.397,113.389z"/>
		<path fill-rule="evenodd" clip-rule="evenodd" fill="#99C9ED" d="M0.379,91.127c0.801-0.207,1.437-0.729,2.131-1.133
			c15.407-8.953,30.811-17.912,46.205-26.888c0.644-0.375,0.961-0.455,1.4,0.312c1.415,2.469,2.909,4.894,4.428,7.301
			c0.441,0.7,0.426,1.012-0.353,1.463c-13.593,7.875-27.166,15.786-40.743,23.689c-4.05,2.357-8.098,4.716-12.15,7.069
			c-0.293,0.171-0.611,0.301-0.917,0.45C0.379,99.302,0.379,95.214,0.379,91.127z"/>
		<path fill-rule="evenodd" clip-rule="evenodd" fill="#6185A2" d="M113.579,60.751c-3.31,1.898-6.636,3.769-9.917,5.716
			c-0.786,0.467-1.122,0.446-1.618-0.389c-2.847-4.795-5.769-9.546-8.653-14.32c-0.191-0.317-0.645-0.629,0.054-1.032
			c6.723-3.87,13.425-7.776,20.134-11.672C113.579,46.287,113.579,53.52,113.579,60.751z"/>
		<path fill-rule="evenodd" clip-rule="evenodd" fill="#99C9ED" d="M113.579,37.734c-0.354-0.065-0.567,0.21-0.825,0.36
			c-6.53,3.787-13.063,7.568-19.575,11.388c-0.69,0.405-0.987,0.403-1.419-0.344c-1.469-2.542-3.028-5.033-4.563-7.537
			c-0.258-0.42-0.381-0.685,0.191-1.016c8.624-4.987,17.232-10.002,25.846-15.007c0.102-0.059,0.23-0.073,0.346-0.108
			C113.579,29.559,113.579,33.646,113.579,37.734z"/>
		<path fill-rule="evenodd" clip-rule="evenodd" fill="#818181" d="M51.92,61.329c-0.39-0.757-0.78-1.515-1.169-2.272
			c1.354-1.07,2.929-1.775,4.405-2.643c1.782-1.049,3.594-2.049,5.393-3.07c0.668,0.594,0.971,1.448,1.517,2.129
			c0.113,0.223,0.213,0.453,0.342,0.667c3.612,5.988,7.239,11.967,10.836,17.963c1.465,2.443,3.029,4.828,4.342,7.36
			c-0.643,0.478-1.315,0.904-2.069,1.188c-0.176-0.216-0.381-0.414-0.523-0.65c-2.458-4.073-4.895-8.16-7.368-12.224
			c-0.658-1.081-1.157-2.271-2.077-3.182c-0.002-0.398-0.217-0.713-0.41-1.035c-1.614-2.684-3.253-5.354-4.828-8.06
			c-0.4-0.687-0.724-0.808-1.368-0.333c-0.526,0.388-1.146,0.644-1.706,0.991C55.483,59.247,53.594,60.107,51.92,61.329z"/>
		<path fill-rule="evenodd" clip-rule="evenodd" fill="#89A3B9" d="M62.065,55.474c-0.546-0.681-0.849-1.535-1.517-2.129
			c1.5-0.915,3.023-1.792,4.489-2.758c0.78-0.514,1.174-0.426,1.667,0.401c3.476,5.826,7.002,11.623,10.514,17.427
			c1.837,3.037,3.675,6.073,5.521,9.104c0.155,0.255,0.259,0.593,0.647,0.617c-0.8,0.444-1.536,1.003-2.408,1.314
			c-0.204-0.042-0.313-0.192-0.413-0.356c-2.739-4.533-5.479-9.065-8.218-13.598c-2.238-3.704-4.49-7.399-6.701-11.119
			c-0.396-0.666-0.756-0.687-1.342-0.289C63.58,54.582,62.813,55.015,62.065,55.474z"/>
		<path fill-rule="evenodd" clip-rule="evenodd" fill="#06080B" d="M38.75,100.18c-4.141,0-8.089,0-12.186,0
			c2.034-3.521,4.015-6.951,6.091-10.545c0.583,0.994,1.146,1.838,1.588,2.742c0.335,0.688,0.632,0.714,1.273,0.341
			c6.177-3.595,12.384-7.139,18.556-10.742c0.767-0.448,1.162-0.451,1.523,0.406c0.267,0.63,0.615,1.244,1.025,1.791
			c0.484,0.646,0.203,0.923-0.364,1.249c-6.254,3.586-12.494,7.198-18.756,10.771c-0.649,0.37-0.733,0.665-0.33,1.275
			C37.718,98.294,38.175,99.181,38.75,100.18z"/>
		<path fill-rule="evenodd" clip-rule="evenodd" fill="#89A3B9" d="M65.548,66.596c0.92,0.911,1.419,2.102,2.077,3.182
			c2.474,4.064,4.91,8.15,7.368,12.224c0.142,0.236,0.348,0.434,0.523,0.65c-1.849,1.343-3.907,2.338-5.854,3.517
			c-1.978,1.197-2,1.169-3.178-0.779c-2.914-4.817-5.824-9.636-8.736-14.455c0.379,0.007,0.542-0.202,0.557-0.559
			c0.234,0.375,0.379,0.666,0.965,0.301c1.595-0.989,3.256-1.871,4.903-2.773c0.367-0.201,0.638-0.397,0.497-0.863
			C64.947,66.861,65.171,66.577,65.548,66.596z"/>
		<path fill-rule="evenodd" clip-rule="evenodd" fill="#99C9ED" d="M62.065,55.474c0.749-0.459,1.515-0.892,2.239-1.385
			c0.586-0.398,0.946-0.377,1.342,0.289c2.211,3.72,4.463,7.415,6.701,11.119c2.739,4.533,5.479,9.065,8.218,13.598
			c0.1,0.165,0.209,0.314,0.413,0.356c-1.038,0.828-2.215,1.42-3.393,2.014c-1.313-2.533-2.876-4.917-4.342-7.36
			c-3.597-5.997-7.224-11.976-10.836-17.963C62.278,55.927,62.178,55.696,62.065,55.474z M68.813,65.294
			c0.386-0.218,0.766-0.431,1.145-0.647c0.545-0.312,0.425-0.68,0.09-1.069c-0.229-0.268-0.532-0.274-0.75-0.075
			c-0.375,0.342-1.133,0.304-1.137,0.969C68.159,64.79,68.372,65.186,68.813,65.294z"/>
		<path fill-rule="evenodd" clip-rule="evenodd" fill="#99C9ED" d="M65.548,66.596c-0.377-0.019-0.601,0.265-0.877,0.444
			c-0.283-0.134-0.337-0.666-0.89-0.332c-1.741,1.052-3.525,2.033-5.297,3.033c-0.289,0.163-0.483,0.319-0.178,0.634
			c-0.014,0.357-0.177,0.565-0.557,0.559c-1.943-3.202-3.885-6.403-5.828-9.605c1.674-1.222,3.563-2.082,5.317-3.171
			c0.559-0.347,1.18-0.603,1.706-0.991c0.644-0.475,0.968-0.354,1.368,0.333c1.575,2.707,3.214,5.376,4.828,8.06
			C65.331,65.882,65.546,66.197,65.548,66.596z"/>
		<path fill-rule="evenodd" clip-rule="evenodd" fill="#818181" d="M58.305,70.375c-0.305-0.315-0.111-0.471,0.178-0.634
			c1.772-1,3.557-1.981,5.297-3.033c0.553-0.334,0.607,0.197,0.89,0.332c0.141,0.466-0.13,0.663-0.497,0.863
			c-1.647,0.903-3.309,1.785-4.903,2.773C58.684,71.041,58.539,70.75,58.305,70.375z"/>
		<path fill-rule="evenodd" clip-rule="evenodd" fill="#89A3B9" d="M68.813,65.294c-0.441-0.108-0.654-0.504-0.652-0.822
			c0.004-0.666,0.762-0.627,1.137-0.969c0.219-0.2,0.521-0.193,0.75,0.075c0.335,0.39,0.455,0.757-0.09,1.069
			C69.579,64.863,69.199,65.076,68.813,65.294z"/>
	</g>
</g>
<g id="Layer_2">
</g>
<g id="Layer_2_copy">
</g>
</svg>
