<?xml version="1.0" encoding="utf-8"?>
<!-- Generator: Adobe Illustrator 16.0.0, SVG Export Plug-In . SVG Version: 6.00 Build 0)  -->
<!DOCTYPE svg PUBLIC "-//W3C//DTD SVG 1.1//EN" "http://www.w3.org/Graphics/SVG/1.1/DTD/svg11.dtd">
<svg version="1.1" xmlns="http://www.w3.org/2000/svg" xmlns:xlink="http://www.w3.org/1999/xlink" x="0px" y="0px"
	 width="113.39px" height="113.39px" viewBox="0 0 113.39 113.39" enable-background="new 0 0 113.39 113.39" xml:space="preserve">
<g id="Layer_1">
	<g>
		<path fill-rule="evenodd" clip-rule="evenodd" fill="#FFFFFF" d="M0.189,88.065c0-29.072,0.003-58.144-0.019-87.215
			c0-0.708,0.16-0.869,0.868-0.868c37.229,0.02,74.46,0.02,111.689,0c0.708,0,0.872,0.159,0.869,0.868
			c-0.031,7.086-0.019,14.173-0.019,21.26c-0.23,0.671-0.761,1.041-1.343,1.377c-8.954,5.186-17.894,10.398-26.836,15.605
			c-1.636,0.953-1.639,0.992-0.676,2.574c5.131,8.438,10.244,16.888,15.369,25.33c0.718,1.183,0.628,1.544-0.593,2.258
			c-4.941,2.89-9.903,5.744-14.841,8.64c-0.401,0.235-0.808,0.494-1.293,0.547c-0.764-0.149-1.118-0.745-1.475-1.344
			c-3.671-6.163-7.429-12.272-11.132-18.415c-1.413-2.344-2.793-4.708-4.262-7.018c-0.622-0.979-0.818-1.011-1.823-0.431
			c-1.36,0.787-2.686,1.635-4.077,2.369c-3.264,1.912-6.507,3.863-9.854,5.628c-7.692,4.54-15.437,8.992-23.15,13.495
			c-6.629,3.87-13.275,7.709-19.896,11.591c-2.035,1.193-4.089,2.354-6.123,3.55C1.158,88.114,0.716,88.471,0.189,88.065z"/>
		<path fill-rule="evenodd" clip-rule="evenodd" fill="#797979" d="M113.579,65.199c0,15.812-0.006,31.623,0.018,47.435
			c0.001,0.647-0.127,0.774-0.774,0.774c-27.402-0.021-54.805-0.018-82.207-0.018c-0.221-0.569,0.257-0.708,0.586-0.906
			c3.29-1.981,6.626-3.884,9.946-5.814c5.688-3.307,11.377-6.613,17.069-9.914c8.087-4.691,16.168-9.394,24.257-14.083
			c5.91-3.426,11.811-6.868,17.714-10.305c3.999-2.328,8.001-4.653,12.005-6.974C112.609,65.152,113.052,64.793,113.579,65.199z"/>
		<path fill-rule="evenodd" clip-rule="evenodd" fill="#FFFFFF" d="M22.867,113.389c-7.285,0-14.57-0.008-21.856,0.014
			c-0.62,0.002-0.865-0.05-0.847-0.793c0.064-2.574,0.025-5.149,0.025-7.725c0.249-0.487,0.601-0.873,1.082-1.148
			c6.805-3.891,13.558-7.871,20.338-11.802c5.42-3.142,10.83-6.3,16.243-9.454c5.521-3.217,11.046-6.429,16.568-9.644
			c1.021-0.595,1.425-0.5,2.021,0.463c2.917,4.711,5.777,9.457,8.631,14.206c0.669,1.113,0.554,1.438-0.576,2.096
			c-8.381,4.875-16.768,9.74-25.147,14.616c-4.734,2.755-9.478,5.494-14.201,8.267C24.429,112.908,23.618,113.066,22.867,113.389z"
			/>
		<path fill-rule="evenodd" clip-rule="evenodd" fill="#020202" d="M22.867,113.389c0.135-0.37,0.511-0.431,0.794-0.596
			c13.559-7.887,27.118-15.772,40.692-23.632c0.69-0.4,0.821-0.653,0.374-1.378c-2.923-4.731-5.806-9.487-8.659-14.26
			c-0.4-0.669-0.673-0.729-1.342-0.339C36.86,83.606,18.98,94.004,1.101,104.404c-0.297,0.173-0.607,0.321-0.911,0.481
			c0-0.504,0-1.008,0-1.512c0.297-0.717,0.92-1.061,1.554-1.431c7.391-4.318,14.791-8.619,22.19-12.922
			c9.385-5.458,18.767-10.922,28.155-16.374c0.436-0.253,0.865-0.515,1.299-0.771c0.53-0.312,0.645-0.764,0.329-1.284
			c-1.289-2.126-2.576-4.253-3.864-6.38c-0.428-0.707-0.982-0.669-1.613-0.305c-1.717,0.992-3.426,1.996-5.141,2.991
			c-10.723,6.225-21.428,12.48-32.156,18.695c-3.158,1.83-6.3,3.69-9.462,5.513c-0.404,0.233-0.802,0.556-1.291,0.173
			c0-1.071,0-2.142,0-3.213c3.725-2.145,7.457-4.277,11.173-6.438c12.782-7.432,25.558-14.874,38.337-22.311
			c0.294-0.171,0.566-0.412,0.948-0.356c0.642-0.041,0.747,0.541,1.026,0.906c0.24,0.313,0.381,0.692,0.564,1.042
			c1.499,2.696,3.174,5.287,4.748,7.938c3.284,5.535,6.71,10.984,10.024,16.5c0.658,1.095,0.931,1.153,2.034,0.531
			c2.001-1.126,3.918-2.399,5.985-3.408c0.784-0.668,1.77-1.001,2.616-1.564c0.959-0.576,1.893-1.194,2.905-1.677
			c0.855-0.583,1.693-1.209,2.81-1.162c5.439-3.153,10.871-6.321,16.329-9.442c0.745-0.426,0.376-0.761,0.121-1.182
			C94.43,58.579,89.059,49.707,83.646,40.86c-0.467-0.764-0.442-1.076,0.36-1.54c9.686-5.596,19.348-11.231,29.016-16.857
			c0.189-0.11,0.371-0.235,0.557-0.353c0,1.071,0,2.142,0,3.213c-0.212,0.552-0.605,0.906-1.119,1.207
			c-7.148,4.173-14.317,8.311-21.458,12.497c-0.842,0.494-1.686,0.982-2.537,1.459c-0.616,0.345-0.765,0.777-0.392,1.397
			c1.298,2.158,2.617,4.302,3.917,6.459c0.426,0.707,0.96,0.531,1.534,0.195c2.473-1.445,4.943-2.895,7.422-4.329
			c3.842-2.222,7.661-4.481,11.517-6.678c0.361-0.206,0.705-0.457,1.116-0.113c0,0.504,0,1.008,0,1.512
			c-0.231,0.669-0.759,1.043-1.343,1.376c-5.682,3.235-11.289,6.596-16.968,9.835c-0.191,0.109-0.374,0.232-0.56,0.351
			c-0.832,0.531-0.906,0.816-0.381,1.693c1.455,2.426,2.918,4.847,4.401,7.256c1.138,1.847,2.205,3.737,3.382,5.56
			c0.688,1.066,0.957,1.123,2.055,0.478c2.736-1.608,5.467-3.228,8.235-4.782c0.391-0.219,0.771-0.485,1.178-0.034
			c0,1.512,0,3.023,0,4.536c-3.765,2.167-7.535,4.321-11.291,6.502C78.688,85.409,55.09,99.123,31.491,112.836
			c-0.298,0.174-0.584,0.368-0.876,0.553C28.032,113.389,25.45,113.389,22.867,113.389z"/>
		<path fill-rule="evenodd" clip-rule="evenodd" fill="#FFFFFF" d="M0.189,91.278c4.729-2.737,9.464-5.466,14.188-8.212
			c11.408-6.631,22.815-13.265,34.21-19.92c0.637-0.372,0.943-0.419,1.362,0.303c1.436,2.473,2.938,4.906,4.456,7.329
			c0.385,0.613,0.341,0.888-0.32,1.271c-11.508,6.665-22.997,13.359-34.492,20.046c-6.468,3.761-12.937,7.519-19.404,11.278
			C0.189,99.341,0.189,95.31,0.189,91.278z"/>
		<path fill-rule="evenodd" clip-rule="evenodd" fill="#FFFFFF" d="M113.579,60.663c-0.352-0.041-0.579,0.215-0.843,0.367
			c-3.103,1.793-6.209,3.578-9.289,5.41c-0.618,0.367-0.879,0.257-1.233-0.333c-2.879-4.794-5.778-9.577-8.708-14.339
			c-0.417-0.678-0.329-0.957,0.354-1.353c6.585-3.807,13.148-7.651,19.719-11.484C113.579,46.174,113.579,53.419,113.579,60.663z"/>
		<path fill-rule="evenodd" clip-rule="evenodd" fill="#FFFFFF" d="M113.579,37.418c-6.788,3.948-13.584,7.882-20.354,11.86
			c-0.758,0.445-1.06,0.321-1.481-0.406c-1.401-2.417-2.849-4.809-4.353-7.164c-0.468-0.731-0.306-0.977,0.384-1.375
			c8.317-4.804,16.615-9.643,24.917-14.474c0.298-0.173,0.591-0.357,0.887-0.536C113.579,29.355,113.579,33.387,113.579,37.418z"/>
		<path fill-rule="evenodd" clip-rule="evenodd" fill="#888888" d="M51.793,61.259l-1.404-2.292l1.485-0.836
			c2.85-1.636,5.708-3.257,8.563-4.882c0.594-0.096,0.904,0.285,1.16,0.718c0.234,0.396,0.5,0.774,0.683,1.199
			c1.797,2.586,3.33,5.338,4.956,8.03c3.001,4.965,6.013,9.925,8.959,14.924c0.604,1.024,1.388,1.958,1.678,3.152
			c-0.882,0.505-1.763,1.01-2.644,1.514c-0.559-0.128-0.78-0.601-1.037-1.029c-3.435-5.714-6.855-11.437-10.297-17.147
			c-1.185-1.965-2.375-3.928-3.573-5.886c-0.81-1.323-0.91-1.336-2.274-0.542C56.39,59.147,51.793,61.259,51.793,61.259z"/>
		<path fill-rule="evenodd" clip-rule="evenodd" fill="#A3A3A3" d="M62.013,55.373c-0.661-0.606-0.853-1.563-1.576-2.124
			c1.588-0.961,3.196-1.892,4.755-2.898c0.668-0.432,0.947-0.22,1.309,0.378c5.334,8.838,10.688,17.665,16.041,26.493
			c0.208,0.341,0.339,0.765,0.82,0.846c-0.882,0.506-1.763,1.013-2.644,1.52c-0.517-0.12-0.75-0.543-0.992-0.946
			c-4.557-7.598-9.194-15.147-13.755-22.743c-0.049-0.081-0.095-0.163-0.144-0.244c-0.854-1.394-0.923-1.406-2.341-0.617
			C63.034,55.29,62.602,55.694,62.013,55.373z"/>
		<path fill-rule="evenodd" clip-rule="evenodd" fill="#020202" d="M38.654,100.168c-4.173,0-8.136,0-12.267,0
			c2.054-3.554,4.054-7.017,6.142-10.63c0.571,0.989,1.123,1.817,1.541,2.708c0.369,0.79,0.721,0.762,1.417,0.356
			c6.169-3.596,12.369-7.138,18.536-10.736c0.752-0.439,1.115-0.381,1.463,0.414c0.289,0.659,0.654,1.298,1.079,1.878
			c0.447,0.611,0.248,0.865-0.336,1.198c-4.972,2.837-9.928,5.703-14.888,8.562c-1.39,0.801-2.771,1.618-4.173,2.397
			c-0.429,0.238-0.501,0.449-0.239,0.874C37.501,98.117,38.025,99.075,38.654,100.168z"/>
		<path fill-rule="evenodd" clip-rule="evenodd" fill="#FFFFFF" d="M51.793,61.259c0,0,4.591-2.71,6.814-3.95
			c1.066-0.594,1.06-0.611,1.685,0.427c4.837,8.039,9.675,16.078,14.51,24.118c0.177,0.294,0.405,0.567,0.427,0.934
			c-2.327,1.364-4.67,2.704-6.974,4.106c-0.749,0.457-0.908-0.069-1.178-0.513c-4.897-8.072-9.798-16.142-14.682-24.223
			L51.793,61.259z"/>
		<path fill-rule="evenodd" clip-rule="evenodd" fill="#FFFFFF" d="M62.013,55.373c0.674-0.404,1.346-0.812,2.021-1.212
			c1.051-0.622,1.054-0.621,1.707,0.457c3.109,5.134,6.218,10.27,9.327,15.404c1.725,2.85,3.45,5.699,5.174,8.55
			c0.193,0.32,0.434,0.622,0.476,1.015c-0.949,0.562-1.897,1.124-2.846,1.686c-0.326-0.029-0.476-0.269-0.624-0.516
			C72.17,72.295,67.092,63.834,62.013,55.373z"/>
		<path fill-rule="evenodd" clip-rule="evenodd" fill="#888888" d="M64.683,67.319c-0.006,0.229-0.187,0.31-0.348,0.401
			c-1.771,1.006-3.546,2.005-5.312,3.021c-0.388,0.223-0.619,0.155-0.828-0.237c-0.208-0.39-0.247-0.685,0.201-0.935
			c1.75-0.979,3.488-1.98,5.24-2.956C64.109,66.35,64.722,66.781,64.683,67.319z"/>
		<path fill-rule="evenodd" clip-rule="evenodd" fill="#9D9D9D" d="M69.659,63.249c0.363,0.118,0.51,0.465,0.578,0.832
			c0.045,0.235-1.214,1.112-1.535,1.069c-0.457-0.061-0.575-0.443-0.626-0.814C68.04,64.074,69.277,63.224,69.659,63.249z"/>
	</g>
</g>
<g id="Layer_2">
</g>
<g id="Layer_2_copy">
</g>
</svg>
