<?xml version="1.0" encoding="utf-8"?>
<!-- Generator: Adobe Illustrator 16.0.0, SVG Export Plug-In . SVG Version: 6.00 Build 0)  -->
<!DOCTYPE svg PUBLIC "-//W3C//DTD SVG 1.1//EN" "http://www.w3.org/Graphics/SVG/1.1/DTD/svg11.dtd">
<svg version="1.1" xmlns="http://www.w3.org/2000/svg" xmlns:xlink="http://www.w3.org/1999/xlink" x="0px" y="0px"
	 width="113.39px" height="113.39px" viewBox="0 0 113.39 113.39" enable-background="new 0 0 113.39 113.39" xml:space="preserve">
<g id="Layer_1">
	<g>
		<path fill-rule="evenodd" clip-rule="evenodd" fill="#FFFFFF" d="M0.188,88.255c0-29.071,0.003-58.144-0.019-87.216
			c0-0.708,0.16-0.868,0.868-0.868c37.229,0.021,74.46,0.021,111.689,0c0.708,0,0.872,0.159,0.868,0.868
			c-0.03,7.15-0.018,14.3-0.018,21.45c-0.437,0.789-1.216,1.159-1.947,1.583c-6.807,3.944-13.599,7.915-20.402,11.863
			c-3.756,2.18-7.488,4.401-11.269,6.537c-0.165,0.094-0.326,0.19-0.487,0.29c-0.962,0.598-1.051,0.871-0.483,1.814
			c1.459,2.428,2.868,4.885,4.303,7.327c2.265,3.853,4.577,7.677,6.813,11.546c0.596,1.031,0.529,1.368-0.47,2.009
			c-2.279,1.46-4.653,2.763-6.969,4.163c-1.247,0.755-1.514,0.635-2.351-0.767c-3.483-5.837-6.886-11.722-10.325-17.585
			c-0.238-0.407-0.477-0.815-0.732-1.212c-0.506-0.783-0.816-0.871-1.633-0.393c-2.825,1.652-5.647,3.31-8.48,4.948
			c-8.416,4.869-16.81,9.778-25.217,14.663c-6.203,3.604-12.402,7.218-18.602,10.83c-4.621,2.694-9.234,5.404-13.878,8.061
			C1.044,88.4,0.644,88.737,0.188,88.255z"/>
		<path fill-rule="evenodd" clip-rule="evenodd" fill="#797979" d="M113.578,65.388c0,16.063,0,32.127,0,48.191
			c-0.392,0.188-0.807,0.089-1.209,0.089c-27.116,0.006-54.231,0.005-81.344,0.005c-0.168-0.027-0.407,0.077-0.472-0.176
			c-0.073-0.283,0.098-0.482,0.319-0.626c0.608-0.394,1.228-0.771,1.854-1.133c8.618-4.969,17.203-9.995,25.81-14.985
			c9.097-5.275,18.187-10.561,27.278-15.843c8.766-5.092,17.542-10.164,26.294-15.28C112.548,65.374,113.007,64.966,113.578,65.388z
			"/>
		<path fill-rule="evenodd" clip-rule="evenodd" fill="#FFFFFF" d="M30.604,113.564c0.503,0.005,1.006,0.014,1.51,0.014
			c27.154,0.001,54.309,0.001,81.464,0.001c-0.042,0.058,0.095,0.196-0.095,0.19c-0.252-0.008-0.504-0.002-0.756-0.002
			c-37.229,0-74.46-0.002-111.689,0.018c-0.708,0.001-0.896-0.156-0.869-0.869c0.061-1.667,0.02-3.338,0.02-5.007
			c0.274-0.556,0.711-0.934,1.246-1.242c6.649-3.846,13.285-7.715,19.925-11.578c7.646-4.448,15.293-8.895,22.938-13.345
			c10.257-5.971,20.515-11.939,30.778-17.899c1.223-0.71,1.516-0.631,2.269,0.572c1.02,1.628,1.969,3.297,2.928,4.961
			c0.594,1.031,0.522,1.298-0.481,1.9c-3.671,2.204-7.395,4.318-11.092,6.477c-5.247,3.063-10.507,6.105-15.758,9.16
			c-7.973,4.639-15.948,9.272-23.919,13.914c-5.876,3.421-11.759,6.831-17.632,10.259c-1.087,0.635-2.176,1.265-3.354,1.97
			c0.562,0.039,0.925-0.188,1.292-0.4c4.91-2.829,9.797-5.698,14.698-8.541c7.652-4.438,15.295-8.893,22.944-13.335
			c5.281-3.066,10.56-6.14,15.834-9.219c6.552-3.825,13.139-7.59,19.673-11.444c9.897-5.838,19.896-11.5,29.798-17.327
			c0.385-0.226,0.789-0.585,1.303-0.254c0,2.771,0,5.544,0,8.315c-0.25,0.487-0.602,0.873-1.083,1.148
			c-7.238,4.14-14.426,8.367-21.642,12.546c-5.773,3.344-11.54,6.697-17.303,10.059c-7.284,4.248-14.584,8.471-21.872,12.713
			c-8.893,5.177-17.798,10.333-26.687,15.516c-0.163,0.095-0.337,0.17-0.545,0.284c1.694,0,3.348-0.017,5,0.008
			C29.875,113.133,30.354,113.062,30.604,113.564z"/>
		<path fill-rule="evenodd" clip-rule="evenodd" fill="#FFFFFF" d="M0.188,106.397c0-4.977,0-9.953,0-14.93
			c0.277-0.59,0.728-0.989,1.295-1.316c6.436-3.711,12.849-7.463,19.27-11.2c5.496-3.199,10.993-6.396,16.488-9.598
			c7.97-4.645,15.943-9.281,23.919-13.915c2.097-1.218,4.181-2.457,6.29-3.65c0.219-0.124,0.433-0.258,0.659-0.368
			c1.017-0.491,1.335-0.419,1.928,0.571c0.905,1.512,1.778,3.044,2.676,4.563c0.929,1.572,1.857,3.144,2.781,4.719
			c0.683,1.161,0.611,1.524-0.549,2.195c-2.781,1.606-5.548,3.236-8.326,4.847c-5.556,3.222-11.102,6.46-16.653,9.688
			c-8,4.654-16.004,9.303-23.999,13.966c-6.2,3.616-12.416,7.206-18.606,10.839c-2.009,1.18-4.035,2.329-6.041,3.515
			C0.959,106.535,0.588,106.725,0.188,106.397z"/>
		<path fill-rule="evenodd" clip-rule="evenodd" fill="#020202" d="M0.188,106.397c7.365-4.277,14.734-8.55,22.097-12.832
			c17.526-10.195,35.047-20.4,52.584-30.577c0.72-0.417,0.699-0.719,0.314-1.358c-1.865-3.095-3.707-6.204-5.496-9.343
			c-0.44-0.771-0.749-0.856-1.533-0.398c-16.205,9.465-32.43,18.896-48.649,28.336C13.065,83.972,6.627,87.72,0.188,91.468
			c0-1.071,0-2.142,0-3.213c0.377,0.012,0.633-0.257,0.923-0.426c21.876-12.724,43.748-25.454,65.625-38.175
			c0.691-0.401,1.396-1.295,2.103-1.011c0.586,0.236,0.876,1.233,1.272,1.909c3.611,6.146,7.229,12.288,10.808,18.454
			c0.403,0.695,0.708,0.738,1.354,0.342c2.328-1.432,4.676-2.831,7.043-4.197c0.707-0.408,0.849-0.734,0.394-1.496
			c-3.834-6.425-7.62-12.877-11.421-19.321c-0.653-1.109-0.65-1.105,0.428-1.729c5.771-3.334,11.542-6.665,17.307-10.009
			c5.574-3.234,11.139-6.485,16.712-9.722c0.265-0.154,0.5-0.394,0.843-0.386c0,1.008,0,2.016,0,3.023
			c-0.271,0.554-0.708,0.933-1.237,1.239c-7.842,4.533-15.653,9.121-23.498,13.649c-2.315,1.337-4.613,2.703-6.929,4.04
			c-0.955,0.551-1.015,0.809-0.452,1.807c1.56,2.768,3.214,5.48,4.805,8.23c0.444,0.769,0.773,0.836,1.637,0.342
			c2.839-1.625,5.656-3.288,8.485-4.93c5.358-3.111,10.7-6.251,16.074-9.336c0.36-0.207,0.704-0.455,1.115-0.112
			c0,0.504,0,1.008,0,1.512c-0.223,0.632-0.701,1.009-1.262,1.33c-3.444,1.979-6.872,3.983-10.308,5.975
			c-3.149,1.824-6.24,3.754-9.449,5.469c-1.196,0.64-2.302,1.406-3.473,2.076c-0.903,0.517-0.974,0.771-0.476,1.651
			c0.743,1.314,1.489,2.629,2.295,3.907c0.523,0.832,0.774,0.87,1.612,0.433c3.261-1.703,6.31-3.771,9.538-5.526
			c2.78-1.513,5.41-3.279,8.202-4.768c0.815-0.434,1.681-0.759,2.395-1.378c0.283-0.246,0.646-0.235,0.925,0.091
			c0,0.441,0,0.883,0,1.323c-5.688,3.322-11.369,6.653-17.063,9.966c-28.957,16.846-57.92,33.68-86.859,50.556
			c-1.035,0.604-2.03,0.447-3.08,0.526c-0.038-0.395,0.295-0.409,0.476-0.514c24.133-14.043,48.269-28.082,72.42-42.093
			c0.774-0.449,0.802-0.759,0.354-1.465c-1.06-1.675-2.057-3.391-3.017-5.124c-0.337-0.609-0.58-0.68-1.192-0.322
			c-9.557,5.582-19.132,11.134-28.699,16.697C31.589,89.68,16.262,98.599,0.934,107.514c-0.243,0.142-0.497,0.264-0.745,0.396
			C0.188,107.405,0.188,106.901,0.188,106.397z"/>
		<path fill-rule="evenodd" clip-rule="evenodd" fill="#FFFFFF" d="M113.578,40.442c-8.499,4.942-16.998,9.884-25.495,14.827
			c-1.415,0.823-1.414,0.827-2.26-0.616c-1.776-3.03-3.543-6.064-5.337-9.084c-0.283-0.475-0.284-0.686,0.251-0.995
			c10.843-6.284,21.672-12.593,32.505-18.896c0.107-0.063,0.224-0.111,0.336-0.166C113.578,30.489,113.578,35.466,113.578,40.442z"
			/>
		<path fill-rule="evenodd" clip-rule="evenodd" fill="#020202" d="M30.604,113.564c-2.486,0-4.973,0-7.562,0
			c0.252-0.417,0.648-0.527,0.965-0.712c16.913-9.838,33.831-19.669,50.748-29.501c12.662-7.359,25.323-14.72,37.986-22.077
			c0.27-0.156,0.557-0.282,0.836-0.422c0,1.512,0,3.023,0,4.535c-4.607,2.658-9.222,5.304-13.821,7.975
			c-22.812,13.25-45.619,26.506-68.428,39.761C31.085,113.265,30.846,113.417,30.604,113.564z"/>
		<path fill-rule="evenodd" clip-rule="evenodd" fill="#FFFFFF" d="M113.578,51.214c-0.379-0.014-0.634,0.257-0.925,0.426
			c-6.77,3.931-13.54,7.861-20.292,11.821c-0.75,0.439-1.154,0.527-1.627-0.386c-0.893-1.729-1.907-3.401-2.948-5.048
			c-0.424-0.671-0.244-0.914,0.367-1.269c8.244-4.77,16.474-9.565,24.706-14.355c0.244-0.142,0.479-0.299,0.719-0.449
			C113.578,45.041,113.578,48.128,113.578,51.214z"/>
		<path fill-rule="evenodd" clip-rule="evenodd" fill="#020202" d="M57.638,21.9c-0.239,4.843-0.448,9.688-0.731,14.527
			c-0.123,2.104-1.464,3.355-3.359,3.336c-1.896-0.02-3.185-1.274-3.303-3.398c-0.277-4.967-0.492-9.938-0.728-14.906
			c-0.174-3.648-0.339-7.297-0.509-10.945c-0.042-0.912-0.159-1.832,0.004-2.734c0.442-2.464,2.615-4.046,5.164-3.803
			c2.218,0.212,4.073,2.256,4.015,4.616c-0.088,3.525-0.287,7.047-0.443,10.57c-0.04,0.912-0.095,1.823-0.143,2.735
			C57.615,21.899,57.626,21.899,57.638,21.9z"/>
		<path fill-rule="evenodd" clip-rule="evenodd" fill="#020202" d="M58.242,49.051c0.013,2.611-2.031,4.68-4.638,4.697
			c-2.6,0.018-4.679-2.042-4.688-4.646c-0.011-2.606,2.045-4.689,4.637-4.698C56.158,44.396,58.23,46.448,58.242,49.051z"/>
		<path fill-rule="evenodd" clip-rule="evenodd" fill="#020202" d="M43.228,84.81c2.829,0.01,2.516-0.287,2.529,2.516
			c0.003,0.598-0.016,1.195,0.003,1.792c0.02,0.63-0.292,0.953-0.894,0.963c-1.163,0.02-2.327,0.015-3.49,0.001
			c-0.563-0.007-0.885-0.33-0.896-0.884c-0.022-1.163-0.019-2.327-0.005-3.49c0.008-0.61,0.338-0.912,0.959-0.9
			C42.032,84.818,42.63,84.81,43.228,84.81z"/>
		<path fill-rule="evenodd" clip-rule="evenodd" fill="#020202" d="M74.264,72.185c-0.409,0-0.817,0.001-1.227,0
			c-1.373-0.002-1.471-0.095-1.476-1.426c-0.004-0.943,0.012-1.888-0.003-2.831c-0.012-0.702,0.281-1.051,1.01-1.038
			c1.069,0.019,2.14,0.027,3.209-0.003c0.782-0.021,1.076,0.366,1.074,1.088c-0.003,1.039-0.008,2.077,0.002,3.115
			c0.007,0.804-0.392,1.137-1.174,1.099C75.209,72.165,74.736,72.185,74.264,72.185z"/>
		<path fill-rule="evenodd" clip-rule="evenodd" fill="#020202" d="M58.605,81.102c-2.729-0.034-2.606,0.421-2.597-2.563
			c0.002-0.534,0.013-1.069-0.001-1.604c-0.021-0.732,0.3-1.123,1.056-1.121c1.068,0.004,2.138,0.005,3.207,0
			c0.7-0.003,1.035,0.325,1.024,1.038c-0.017,1.068-0.021,2.139,0.002,3.207c0.017,0.77-0.332,1.088-1.088,1.048
			C59.676,81.079,59.141,81.102,58.605,81.102z"/>
		<path fill-rule="evenodd" clip-rule="evenodd" fill="#020202" d="M27.573,99.026c-0.536,0-1.071-0.011-1.606,0.003
			c-0.724,0.019-1.024-0.348-1.02-1.043c0.009-1.07,0.009-2.141,0-3.212c-0.005-0.7,0.318-1.046,1.029-1.04
			c1.102,0.009,2.204,0.004,3.306,0.002c0.671-0.001,0.968,0.338,0.962,0.998c-0.011,1.071-0.021,2.142,0.004,3.212
			c0.018,0.76-0.31,1.109-1.069,1.084C28.644,99.013,28.108,99.026,27.573,99.026z"/>
		<path fill-rule="evenodd" clip-rule="evenodd" fill="#020202" d="M9.439,105.309c0-0.503,0.024-1.008-0.006-1.509
			c-0.046-0.755,0.287-1.119,1.038-1.118c1.069,0.002,2.14,0.004,3.209-0.001c0.754-0.004,1.071,0.373,1.057,1.115
			c-0.02,1.037-0.017,2.076-0.001,3.113c0.012,0.764-0.353,1.075-1.099,1.06c-1.037-0.022-2.076-0.026-3.113,0.001
			c-0.822,0.021-1.138-0.361-1.091-1.151C9.464,106.316,9.439,105.813,9.439,105.309z"/>
		<path fill-rule="evenodd" clip-rule="evenodd" fill="#020202" d="M66.2,72.87c-0.484,1.109-0.91,2.076-1.331,3.046
			c-0.194,0.446-0.401,0.954-1.01,0.673c-0.581-0.269-0.387-0.768-0.194-1.221c0.578-1.356,1.151-2.716,1.731-4.072
			c0.161-0.377,0.322-0.8,0.829-0.777c0.446,0.019,0.594,0.399,0.745,0.754c0.592,1.385,1.189,2.768,1.787,4.15
			c0.2,0.465,0.333,0.96-0.262,1.197c-0.554,0.222-0.785-0.249-0.966-0.652C67.097,74.997,66.689,74.015,66.2,72.87z"/>
		<path fill-rule="evenodd" clip-rule="evenodd" fill="#020202" d="M19.603,99.712c-0.512,1.192-0.923,2.176-1.356,3.149
			c-0.184,0.413-0.43,0.851-0.982,0.602c-0.534-0.241-0.417-0.712-0.235-1.139c0.613-1.444,1.236-2.885,1.854-4.327
			c0.143-0.332,0.328-0.635,0.736-0.626c0.406,0.01,0.589,0.337,0.727,0.655c0.623,1.44,1.234,2.886,1.847,4.331
			c0.188,0.444,0.242,0.898-0.289,1.118c-0.504,0.209-0.747-0.182-0.919-0.569C20.541,101.909,20.116,100.904,19.603,99.712z"/>
		<path fill-rule="evenodd" clip-rule="evenodd" fill="#020202" d="M4.076,108.667c-0.479,1.12-0.893,2.09-1.31,3.058
			c-0.196,0.455-0.454,0.922-1.037,0.67c-0.602-0.26-0.384-0.769-0.193-1.213c0.591-1.384,1.188-2.765,1.779-4.149
			c0.153-0.36,0.324-0.689,0.793-0.677c0.423,0.012,0.577,0.324,0.716,0.648c0.616,1.441,1.227,2.885,1.847,4.324
			c0.179,0.415,0.25,0.839-0.221,1.058c-0.518,0.24-0.81-0.11-1.003-0.559C5.014,110.824,4.578,109.822,4.076,108.667z"/>
		<path fill-rule="evenodd" clip-rule="evenodd" fill="#020202" d="M50.664,81.812c-0.518,1.198-0.93,2.142-1.332,3.089
			c-0.199,0.47-0.471,0.911-1.038,0.637c-0.504-0.244-0.359-0.734-0.181-1.158c0.598-1.414,1.195-2.827,1.8-4.237
			c0.139-0.322,0.313-0.645,0.723-0.649c0.451-0.005,0.636,0.326,0.79,0.69c0.601,1.412,1.214,2.818,1.813,4.231
			c0.183,0.432,0.27,0.92-0.243,1.145c-0.523,0.229-0.8-0.184-0.986-0.612C51.589,83.979,51.177,83.009,50.664,81.812z"/>
		<path fill-rule="evenodd" clip-rule="evenodd" fill="#020202" d="M35.128,90.773c-0.493,1.146-0.901,2.085-1.303,3.026
			c-0.195,0.461-0.448,0.938-1.026,0.684c-0.587-0.258-0.374-0.783-0.187-1.227c0.586-1.39,1.182-2.774,1.774-4.161
			c0.139-0.325,0.299-0.635,0.715-0.657c0.478-0.025,0.641,0.333,0.792,0.683c0.609,1.413,1.218,2.827,1.81,4.247
			c0.176,0.42,0.298,0.912-0.257,1.126c-0.533,0.206-0.792-0.197-0.979-0.632C36.05,92.896,35.63,91.93,35.128,90.773z"/>
		<path fill-rule="evenodd" clip-rule="evenodd" fill="#020202" d="M50.618,65.235c0.132,0.125,0.181,0.16,0.216,0.206
			c0.442,0.588,0.565,1.675,1.236,1.742c0.616,0.063,1.316-0.614,1.967-0.988c3.372-1.938,6.75-3.865,10.101-5.839
			c0.586-0.345,0.821-0.253,1.139,0.311c0.832,1.478,0.86,1.466-0.588,2.303c-3.585,2.07-7.163,4.153-10.764,6.194
			c-0.576,0.326-0.702,0.582-0.302,1.129c0.309,0.421,0.524,0.909,0.864,1.519c-2.446,0-4.756,0.009-7.066-0.007
			c-0.546-0.004-0.401-0.319-0.221-0.633C48.328,69.223,49.448,67.269,50.618,65.235z"/>
		<path fill-rule="evenodd" clip-rule="evenodd" fill="#020202" d="M91.064,58.089c0-0.408-0.002-0.817,0-1.226
			c0.004-1.25,0.11-1.364,1.319-1.371c0.975-0.006,1.95,0.013,2.924-0.004c0.712-0.013,1.046,0.321,1.045,1.021
			c-0.001,1.069-0.007,2.139,0.003,3.207c0.006,0.699-0.319,1.052-1.022,1.052c-1.101-0.001-2.201,0.003-3.302,0
			c-0.647-0.002-0.993-0.296-0.97-0.98C91.081,59.222,91.065,58.655,91.064,58.089z"/>
		<path fill-rule="evenodd" clip-rule="evenodd" fill="#020202" d="M109.208,51.797c-2.919-0.014-2.628,0.316-2.626-2.623
			c0.001-2.873-0.337-2.666,2.702-2.669c2.836-0.003,2.593-0.182,2.588,2.602C111.868,52.127,112.152,51.781,109.208,51.797z"/>
		<path fill-rule="evenodd" clip-rule="evenodd" fill="#020202" d="M101.22,52.493c-0.48,1.125-0.886,2.096-1.311,3.059
			c-0.192,0.434-0.42,0.948-1.02,0.692c-0.589-0.252-0.41-0.757-0.216-1.21c0.605-1.41,1.215-2.817,1.813-4.23
			c0.142-0.336,0.319-0.64,0.718-0.646c0.399-0.006,0.6,0.294,0.741,0.625c0.63,1.468,1.256,2.937,1.886,4.403
			c0.18,0.42,0.196,0.834-0.261,1.054c-0.483,0.231-0.77-0.105-0.947-0.503C102.167,54.713,101.731,53.679,101.22,52.493z"/>
		<path fill-rule="evenodd" clip-rule="evenodd" fill="#FBFBFB" d="M41.803,87.402c0.018-1.426-0.159-1.249,1.34-1.259
			c1.286-0.008,1.294-0.001,1.284,1.39c-0.011,1.375,0.185,1.218-1.368,1.227C41.803,88.768,41.803,88.761,41.803,87.402z"/>
		<path fill-rule="evenodd" clip-rule="evenodd" fill="#FCFCFC" d="M75.514,69.547c-0.016,1.554,0.11,1.3-1.396,1.302
			c-1.381,0.001-1.216,0.222-1.213-1.473c0.003-1.368-0.182-1.146,1.431-1.149C75.625,68.225,75.501,68.002,75.514,69.547z"/>
		<path fill-rule="evenodd" clip-rule="evenodd" fill="#FBFBFB" d="M59.962,78.45c-0.024,1.539,0.18,1.315-1.377,1.318
			c-1.338,0.003-1.231,0.218-1.231-1.277c0.001-1.555-0.118-1.327,1.379-1.34C59.962,77.142,59.962,77.15,59.962,78.45z"/>
		<path fill-rule="evenodd" clip-rule="evenodd" fill="#FDFDFD" d="M28.914,96.453c-0.03,1.45,0.214,1.229-1.336,1.243
			c-1.301,0.013-1.313,0.003-1.296-1.476c0.016-1.353-0.22-1.149,1.529-1.148C29.094,95.072,28.892,94.858,28.914,96.453z"/>
		<path fill-rule="evenodd" clip-rule="evenodd" fill="#FCFCFC" d="M13.402,105.299c-0.028,1.499,0.228,1.312-1.364,1.325
			c-1.269,0.011-1.278,0.002-1.266-1.409c0.012-1.306-0.219-1.193,1.303-1.193C13.634,104.021,13.378,103.923,13.402,105.299z"/>
		<path fill-rule="evenodd" clip-rule="evenodd" fill="#FDFDFD" d="M92.398,58.081c0.027-1.401-0.22-1.248,1.336-1.258
			c1.283-0.009,1.283-0.001,1.283,1.333c-0.001,1.268-0.001,1.275-1.359,1.265C92.17,59.409,92.427,59.552,92.398,58.081z"/>
		<path fill-rule="evenodd" clip-rule="evenodd" fill="#FDFDFD" d="M109.198,50.466c-1.291,0-1.302,0-1.287-1.375
			c0.015-1.447-0.221-1.244,1.425-1.245c1.413-0.001,1.199-0.186,1.201,1.478C110.538,50.64,110.727,50.445,109.198,50.466z"/>
	</g>
</g>
<g id="Layer_2">
</g>
<g id="Layer_2_copy">
</g>
</svg>
