<?xml version="1.0" encoding="utf-8"?>
<!-- Generator: Adobe Illustrator 16.0.0, SVG Export Plug-In . SVG Version: 6.00 Build 0)  -->
<!DOCTYPE svg PUBLIC "-//W3C//DTD SVG 1.1//EN" "http://www.w3.org/Graphics/SVG/1.1/DTD/svg11.dtd">
<svg version="1.1" xmlns="http://www.w3.org/2000/svg" xmlns:xlink="http://www.w3.org/1999/xlink" x="0px" y="0px"
	 width="113.39px" height="113.39px" viewBox="0 0 113.39 113.39" enable-background="new 0 0 113.39 113.39" xml:space="preserve">
<g id="Layer_1">
	<g>
		<path fill-rule="evenodd" clip-rule="evenodd" fill="#FFFFFF" d="M0.19,109.798c0-36.253,0.002-72.506-0.019-108.759
			c0-0.708,0.16-0.868,0.868-0.868c37.229,0.021,74.459,0.021,111.688,0c0.708,0,0.869,0.16,0.868,0.868
			c-0.024,14.331-0.018,28.662-0.018,42.993c-0.436,0.79-1.216,1.159-1.946,1.584c-6.831,3.963-13.655,7.938-20.48,11.911
			c-2.147,1.25-4.283,2.522-6.451,3.738c-1.139,0.64-1.219,0.958-0.57,2.095c1.702,2.978,3.398,5.958,4.999,8.99
			c0.521,0.985,0.444,1.266-0.508,1.843c-1.91,1.158-3.845,2.276-5.788,3.377c-0.989,0.561-1.407,0.395-1.974-0.619
			c-1.67-2.995-3.413-5.95-4.993-8.995c-0.508-0.978-0.832-1.041-1.798-0.479c-11.235,6.526-22.461,13.072-33.692,19.607
			C29.228,93.572,18.07,100.047,6.93,106.552c-1.848,1.079-3.703,2.144-5.559,3.208C0.98,109.983,0.599,110.24,0.19,109.798z"/>
		<path fill-rule="evenodd" clip-rule="evenodd" fill="#FFFFFF" d="M113.579,113.578c-0.042,0.058,0.095,0.197-0.095,0.19
			c-0.221-0.008-0.441-0.002-0.662-0.002c-37.292,0-74.584-0.002-111.876,0.018c-0.647,0.001-0.899-0.127-0.756-0.773
			c0.303-0.755,0.961-1.131,1.616-1.509c10.14-5.855,20.249-11.763,30.368-17.653c12.186-7.094,24.381-14.173,36.558-21.283
			c1.875-1.095,3.746-2.197,5.635-3.271c1.128-0.641,1.51-0.577,2.138,0.526c1.401,2.461,2.805,4.923,4.118,7.432
			c0.543,1.038,0.465,1.313-0.538,1.906c-4.474,2.64-8.965,5.247-13.455,7.857c-5.496,3.194-10.992,6.39-16.487,9.588
			c-7.616,4.434-15.237,8.859-22.851,13.3c-1.901,1.109-3.786,2.247-5.669,3.259c0.89,0.037,1.66-0.455,2.434-0.909
			c7.382-4.334,14.789-8.626,22.191-12.927c9.144-5.313,18.28-10.64,27.427-15.948c6.914-4.014,13.819-8.042,20.725-12.07
			c5.953-3.474,11.912-6.938,17.877-10.392c0.387-0.224,0.789-0.584,1.303-0.254c0,7.244,0,14.488,0,21.732
			c-0.771,1.221-2.121,1.647-3.269,2.316c-7.555,4.405-15.105,8.816-22.669,13.205c-8.598,4.988-17.173,10.016-25.781,14.985
			c-0.231,0.134-0.478,0.227-0.595,0.271c2.238-0.162,4.616,0.047,6.988-0.144c0.237,0.09,0.465,0.183,0.729,0.178
			c11.009-0.219,22.019-0.043,33.027-0.095c3.335-0.016,6.67-0.014,10.005,0.007C112.57,113.123,113.167,113.054,113.579,113.578z"
			/>
		<path fill-rule="evenodd" clip-rule="evenodd" fill="#797979" d="M113.579,113.578c-14.841,0-29.682,0-44.522-0.001
			c-0.408-0.001-0.816-0.016-1.225-0.023c-0.16-0.756,0.521-0.871,0.927-1.114c2.291-1.377,4.607-2.71,6.918-4.054
			c11.659-6.78,23.313-13.57,34.976-20.345c0.599-0.348,1.178-0.729,1.789-1.051c0.365-0.193,0.74-0.388,1.138-0.059
			C113.579,95.813,113.579,104.695,113.579,113.578z"/>
		<path fill-rule="evenodd" clip-rule="evenodd" fill="#020202" d="M113.579,60.663c-6.461,3.773-12.917,7.555-19.383,11.318
			c-23.341,13.586-46.691,27.155-70.014,40.771c-1.224,0.715-2.411,0.964-3.827,0.758c0.238-0.371,0.64-0.488,0.965-0.678
			c19.452-11.328,38.905-22.656,58.379-33.947c0.878-0.509,0.909-0.867,0.435-1.674c-1.402-2.385-2.742-4.808-4.06-7.241
			c-0.351-0.648-0.595-0.808-1.308-0.392C49.916,84.071,25.052,98.539,0.19,113.011c0-1.071,0-2.142,0-3.213
			c0.344,0.015,0.577-0.229,0.842-0.382c24.433-14.215,48.863-28.434,73.294-42.652c1.047-0.609,1.054-0.615,1.667,0.481
			c1.777,3.183,3.565,6.358,5.307,9.56c0.379,0.695,0.694,0.759,1.36,0.35c1.902-1.168,3.836-2.287,5.79-3.365
			c0.607-0.336,0.697-0.581,0.342-1.199c-1.88-3.271-3.695-6.579-5.569-9.854c-0.389-0.68-0.274-1.014,0.396-1.401
			c9.795-5.674,19.575-11.372,29.361-17.06c0.185-0.107,0.398-0.163,0.6-0.243c0,1.008,0,2.017,0,3.024
			c-0.279,0.592-0.765,0.957-1.319,1.279c-6.284,3.655-12.573,7.305-18.851,10.973c-2.146,1.254-4.311,2.479-6.448,3.749
			c-0.999,0.594-1.068,0.778-0.536,1.789c1.086,2.061,2.252,4.077,3.423,6.091c0.549,0.944,0.782,1.019,1.717,0.474
			c3.563-2.076,7.125-4.152,10.691-6.221c3.403-1.974,6.788-3.979,10.207-5.926c0.362-0.206,0.705-0.457,1.116-0.113
			C113.579,59.655,113.579,60.159,113.579,60.663z"/>
		<path fill-rule="evenodd" clip-rule="evenodd" fill="#FFFFFF" d="M113.579,59.151c-7.413,4.311-14.825,8.622-22.237,12.932
			c-1.05,0.61-1.052,0.608-1.642-0.441c-1.398-2.49-2.787-4.987-4.204-7.468c-0.246-0.433-0.289-0.655,0.211-0.944
			c9.298-5.38,18.583-10.778,27.872-16.173C113.579,51.088,113.579,55.119,113.579,59.151z"/>
		<path fill-rule="evenodd" clip-rule="evenodd" fill="#020202" d="M113.579,86.932c-4.085,2.358-8.176,4.707-12.254,7.078
			c-10.876,6.324-21.747,12.658-32.619,18.99c-0.298,0.174-0.583,0.368-0.874,0.554c-2.563,0-5.127,0-7.746,0
			c0.198-0.375,0.519-0.451,0.775-0.601c17.289-10.068,34.581-20.131,51.876-30.19c0.263-0.152,0.49-0.408,0.842-0.367
			C113.579,83.907,113.579,85.42,113.579,86.932z"/>
		<path fill-rule="evenodd" clip-rule="evenodd" fill="#020202" d="M42.286,45.901c-9.445,0-18.891,0.001-28.336,0
			c-4.973,0-9.564-3.512-10.926-8.315C0.153,27.457,6.629,18.198,15.506,15.882c4.425-1.155,8.606-0.358,12.453,2.096
			c0.572,0.366,0.979,0.419,1.6,0.09c3.13-1.664,6.44-2.233,9.943-1.472c0.391,0.085,0.88,0.383,0.919-0.502
			C40.716,9.36,45.485,4.213,52.285,2.853c3.205-0.642,6.471-0.94,9.618,0.047c4.627,1.453,7.901,4.431,9.239,9.245
			c0.323,1.166,0.414,2.374,0.101,3.549c-0.2,0.749-0.013,0.982,0.731,1.179c2.271,0.601,4.096,1.879,5.321,3.927
			c0.829,1.387,1.262,2.88,0.964,4.494c-0.168,0.914,0.067,1.413,0.949,1.858c2.343,1.183,4.161,2.955,5.077,5.465
			c1.454,3.981-0.169,8.186-3.902,10.625c-2.926,1.913-6.151,2.645-9.572,2.652C61.303,45.916,51.795,45.901,42.286,45.901z"/>
		<path fill-rule="evenodd" clip-rule="evenodd" fill="#020202" d="M47.196,65.741c-1.244-0.722-2.329-1.354-3.416-1.981
			c-0.453-0.262-0.966-0.565-0.59-1.157c0.332-0.522,0.835-0.24,1.253,0c0.928,0.531,1.858,1.06,2.773,1.611
			c0.455,0.274,0.662,0.251,0.647-0.352c-0.024-1.007-0.021-2.016,0-3.022c0.012-0.54-0.139-1.304,0.692-1.289
			c0.854,0.016,0.615,0.802,0.633,1.321c0.032,0.976,0.026,1.953,0.003,2.929c-0.014,0.583,0.125,0.757,0.682,0.418
			c0.939-0.573,1.902-1.108,2.856-1.658c0.436-0.251,0.928-0.444,1.229,0.107c0.278,0.509-0.144,0.798-0.543,1.029
			c-1.113,0.647-2.228,1.295-3.512,2.041c1.041,0.608,1.972,1.153,2.903,1.696c0.272,0.159,0.559,0.296,0.814,0.477
			c0.33,0.232,0.578,0.542,0.312,0.953c-0.249,0.387-0.626,0.387-0.997,0.176c-1.012-0.575-2.029-1.142-3.021-1.749
			c-0.578-0.354-0.747-0.236-0.727,0.429c0.034,1.102,0.01,2.204,0.007,3.307c-0.002,0.469-0.072,0.956-0.663,0.943
			c-0.569-0.013-0.663-0.503-0.669-0.964c-0.013-1.039-0.034-2.079,0.005-3.117c0.027-0.733-0.069-1.019-0.83-0.515
			c-0.864,0.571-1.79,1.05-2.689,1.568c-0.403,0.232-0.862,0.433-1.165-0.057c-0.336-0.544,0.085-0.861,0.519-1.113
			C44.813,67.127,45.922,66.482,47.196,65.741z"/>
		<path fill-rule="evenodd" clip-rule="evenodd" fill="#020202" d="M29.636,57.186c-1.212-0.702-2.319-1.347-3.43-1.986
			c-0.425-0.244-0.907-0.529-0.62-1.083c0.328-0.633,0.855-0.319,1.298-0.069c1.088,0.614,2.168,1.241,3.427,1.964
			c0-1.22-0.001-2.271,0-3.323c0-0.314-0.01-0.631,0.015-0.943c0.031-0.408,0.177-0.757,0.659-0.767
			c0.501-0.01,0.641,0.361,0.65,0.76c0.025,1.038,0.006,2.077,0.023,3.115c0.006,0.335-0.096,0.689,0.156,1.075
			c0.979-0.562,1.95-1.119,2.923-1.677c0.218-0.125,0.432-0.26,0.658-0.369c0.377-0.182,0.773-0.204,0.995,0.198
			c0.25,0.457-0.041,0.778-0.423,1.003c-1.164,0.683-2.334,1.355-3.63,2.106c1.092,0.63,2.088,1.203,3.082,1.779
			c0.245,0.142,0.509,0.263,0.723,0.442c0.279,0.233,0.474,0.544,0.233,0.906c-0.223,0.337-0.553,0.4-0.908,0.2
			c-0.958-0.539-1.91-1.091-2.871-1.626c-0.263-0.146-0.492-0.381-0.943-0.374c0,1.102,0.002,2.193-0.001,3.284
			c0,0.314,0.004,0.631-0.021,0.943c-0.031,0.393-0.247,0.674-0.648,0.676c-0.41,0.003-0.625-0.302-0.639-0.681
			c-0.033-0.88-0.005-1.763-0.042-2.642c-0.022-0.518,0.26-1.268-0.16-1.489c-0.394-0.208-0.918,0.391-1.379,0.642
			c-0.69,0.376-1.363,0.782-2.044,1.176c-0.423,0.244-0.869,0.353-1.138-0.159c-0.242-0.461,0.084-0.768,0.462-0.989
			C27.206,58.597,28.371,57.922,29.636,57.186z"/>
		<path fill-rule="evenodd" clip-rule="evenodd" fill="#020202" d="M69.815,54.965c-1.278-0.741-2.394-1.386-3.507-2.034
			c-0.393-0.229-0.82-0.495-0.542-1.026c0.308-0.587,0.791-0.356,1.216-0.116c1.115,0.63,2.223,1.271,3.509,2.01
			c0-1.277-0.001-2.391,0-3.503c0-0.283-0.015-0.568,0.012-0.85c0.034-0.376,0.202-0.685,0.624-0.697
			c0.476-0.015,0.674,0.311,0.681,0.731c0.02,1.07,0.011,2.141,0.012,3.211c0.001,0.305,0,0.609,0,1.098
			c1.059-0.6,1.975-1.119,2.89-1.64c0.219-0.124,0.434-0.255,0.652-0.379c0.406-0.229,0.854-0.41,1.163,0.079
			c0.325,0.513-0.075,0.82-0.468,1.053c-1.131,0.669-2.272,1.321-3.543,2.057c1.044,0.61,1.984,1.16,2.925,1.709
			c0.244,0.143,0.494,0.276,0.734,0.426c0.39,0.241,0.631,0.571,0.35,1.016c-0.25,0.395-0.629,0.35-0.996,0.142
			c-0.929-0.529-1.854-1.064-2.784-1.592c-0.264-0.15-0.538-0.283-0.923-0.484c0,1.415-0.006,2.696,0.003,3.978
			c0.003,0.51-0.065,1.046-0.676,1.036c-0.606-0.01-0.661-0.556-0.658-1.06c0.008-1.276,0.003-2.553,0.003-3.996
			c-1.257,0.723-2.365,1.361-3.475,1.998c-0.42,0.242-0.895,0.521-1.226-0.046c-0.323-0.554,0.114-0.856,0.546-1.106
			C67.446,56.336,68.557,55.693,69.815,54.965z"/>
		<path fill-rule="evenodd" clip-rule="evenodd" fill="#020202" d="M10.8,64.588c0-1.363-0.001-2.557,0.001-3.751
			c0.001-0.536-0.061-1.224,0.654-1.253c0.766-0.031,0.675,0.673,0.679,1.2c0.008,0.976,0.049,1.955-0.012,2.928
			c-0.057,0.911,0.247,0.85,0.866,0.46c0.878-0.553,1.792-1.047,2.688-1.57c0.442-0.257,0.913-0.438,1.218,0.128
			c0.285,0.532-0.151,0.797-0.541,1.024c-1.13,0.663-2.264,1.319-3.512,2.046c1.238,0.721,2.346,1.362,3.449,2.01
			c0.41,0.24,0.917,0.499,0.59,1.076c-0.315,0.558-0.811,0.322-1.235,0.083c-0.904-0.51-1.816-1.008-2.694-1.56
			c-0.597-0.375-0.861-0.391-0.826,0.438c0.046,1.069,0.014,2.141,0.009,3.212c-0.002,0.458-0.032,0.951-0.646,0.949
			c-0.593-0.001-0.676-0.487-0.681-0.942c-0.015-1.289-0.005-2.579-0.005-4.06c-0.834,0.466-1.555,0.865-2.272,1.271
			c-0.465,0.263-0.916,0.553-1.391,0.798c-0.353,0.183-0.764,0.264-1.013-0.134c-0.274-0.438-0.028-0.787,0.361-1.018
			c1.163-0.688,2.335-1.359,3.653-2.124c-1.016-0.589-1.929-1.119-2.842-1.649c-0.245-0.142-0.488-0.286-0.734-0.426
			c-0.429-0.244-0.73-0.59-0.443-1.071c0.266-0.446,0.697-0.32,1.081-0.1c0.845,0.486,1.686,0.98,2.531,1.465
			C10.028,64.188,10.332,64.339,10.8,64.588z"/>
		<path fill-rule="evenodd" clip-rule="evenodd" fill="#020202" d="M24.97,81.543c-1.086,0.618-2.029,1.156-2.973,1.695
			c-0.246,0.14-0.479,0.31-0.738,0.418c-0.365,0.152-0.771,0.222-0.992-0.207c-0.21-0.404-0.004-0.733,0.36-0.947
			c1.164-0.686,2.334-1.36,3.687-2.147c-1.088-0.627-2.081-1.175-3.046-1.767c-0.5-0.306-1.411-0.533-0.977-1.322
			c0.455-0.827,1.097-0.109,1.602,0.161c0.989,0.527,1.952,1.104,3.076,1.748c0-1.227,0-2.283,0-3.34
			c0-0.283-0.008-0.567,0.005-0.85c0.021-0.445,0.177-0.86,0.676-0.862c0.511-0.003,0.652,0.406,0.651,0.862
			c0,1.039-0.006,2.077,0.008,3.116c0.004,0.302-0.082,0.619,0.139,1.022c0.953-0.549,1.895-1.091,2.837-1.633
			c0.245-0.142,0.491-0.28,0.737-0.421c0.413-0.236,0.802-0.237,1.05,0.214c0.24,0.436-0.055,0.731-0.387,0.933
			c-0.915,0.552-1.854,1.064-2.771,1.611c-0.262,0.156-0.59,0.234-0.782,0.6c1.082,0.63,2.162,1.252,3.235,1.887
			c0.422,0.25,1.037,0.491,0.686,1.114c-0.374,0.664-0.927,0.268-1.388,0.008c-0.903-0.51-1.808-1.02-2.691-1.562
			c-0.545-0.333-0.691-0.188-0.677,0.409c0.027,1.101,0.011,2.203,0.006,3.305c-0.002,0.451-0.004,0.96-0.619,0.973
			c-0.658,0.014-0.704-0.521-0.709-1.005C24.961,84.276,24.97,82.996,24.97,81.543z"/>
		<path fill-rule="evenodd" clip-rule="evenodd" fill="#020202" d="M56.826,85.765c1.315-2.271,2.553-4.407,3.854-6.654
			c0.351,0.588,0.682,1.037,0.9,1.536c0.278,0.635,0.579,0.615,1.132,0.292c3.795-2.22,7.619-4.391,11.411-6.614
			c0.607-0.356,0.87-0.295,1.208,0.327c0.812,1.496,0.847,1.48-0.616,2.325c-3.563,2.057-7.118,4.127-10.699,6.151
			c-0.604,0.342-0.77,0.605-0.329,1.191c0.311,0.413,0.524,0.898,0.834,1.445C61.913,85.765,59.448,85.765,56.826,85.765z"/>
		<path fill-rule="evenodd" clip-rule="evenodd" fill="#FFFFFF" d="M44.162,20.966c-0.218-0.721-0.345-1.239-0.529-1.736
			c-1.263-3.41-0.333-6.452,1.687-9.221c2.38-3.262,5.865-4.532,9.721-4.863c2.468-0.212,4.971-0.354,7.332,0.731
			c1.957,0.9,3.604,2.181,4.831,3.957c1.62,2.347,2.04,4.796,0.706,7.458c-0.836,1.669-0.771,1.702,1.076,1.803
			c2,0.11,3.854,0.588,5.282,2.12c1.398,1.5,1.759,3.202,1.004,5.129c-0.668,1.704-0.665,1.713,1.075,2.392
			c1.329,0.52,2.569,1.182,3.605,2.181c3.271,3.152,2.833,7.506-0.959,10.029c-2.479,1.649-5.226,2.264-8.138,2.265
			c-19.05,0.012-38.099,0.01-57.148,0.003c-3.578-0.002-6.952-2.662-8.071-6.31c-2.51-8.179,3.009-17.136,11.446-18.606
			c3.706-0.646,7.076,0.187,10.073,2.377c1.067,0.78,1.861,0.824,2.99,0.136c3.594-2.192,7.387-2.429,11.293-0.836
			C42.274,20.313,43.134,20.593,44.162,20.966z"/>
	</g>
</g>
<g id="Layer_2">
</g>
<g id="Layer_2_copy">
</g>
</svg>
