<?xml version="1.0" encoding="utf-8"?>
<!-- Generator: Adobe Illustrator 16.0.0, SVG Export Plug-In . SVG Version: 6.00 Build 0)  -->
<!DOCTYPE svg PUBLIC "-//W3C//DTD SVG 1.1//EN" "http://www.w3.org/Graphics/SVG/1.1/DTD/svg11.dtd">
<svg version="1.1" xmlns="http://www.w3.org/2000/svg" xmlns:xlink="http://www.w3.org/1999/xlink" x="0px" y="0px"
	 width="113.39px" height="113.39px" viewBox="0 0 113.39 113.39" enable-background="new 0 0 113.39 113.39" xml:space="preserve">
<g id="Layer_1">
	<g>
		<path fill-rule="evenodd" clip-rule="evenodd" fill="#FFFEFF" d="M0.379,109.805c0-36.192,0.002-72.385-0.018-108.577
			c0-0.708,0.16-0.867,0.867-0.867c37.167,0.021,74.335,0.021,111.502,0c0.707,0,0.868,0.159,0.867,0.867
			c-0.024,14.307-0.018,28.614-0.018,42.921c-0.143,0.048-0.299,0.073-0.427,0.147c-9.856,5.728-19.707,11.465-29.572,17.176
			c-0.679,0.393-0.656,0.74-0.317,1.335c1.875,3.293,3.708,6.61,5.596,9.896c0.327,0.57,0.246,0.799-0.313,1.111
			c-1.969,1.098-3.925,2.222-5.845,3.404c-0.666,0.409-0.972,0.33-1.342-0.347c-1.802-3.293-3.674-6.547-5.454-9.851
			c-0.39-0.725-0.644-0.703-1.29-0.327c-24.459,14.257-48.93,28.494-73.402,42.728C0.952,109.574,0.726,109.828,0.379,109.805z
			 M40.495,16.832c-0.106,0.022-0.169,0.053-0.226,0.045c-0.248-0.037-0.496-0.078-0.741-0.132
			c-3.461-0.754-6.732-0.163-9.824,1.472c-0.614,0.325-1.011,0.307-1.584-0.071c-2.513-1.663-5.304-2.561-8.313-2.596
			c-4.401-0.051-8.184,1.569-11.467,4.461c-5.421,4.775-7.296,12.543-4.588,19.123c1.651,4.01,5.937,6.884,10.269,6.884
			c18.927,0,37.854,0.006,56.781-0.006c3.445-0.002,6.692-0.727,9.64-2.647c3.688-2.402,5.305-6.54,3.927-10.508
			c-0.913-2.628-2.825-4.406-5.236-5.65c-0.712-0.367-0.979-0.723-0.838-1.538c0.421-2.438-0.43-4.486-2.111-6.232
			c-1.206-1.254-2.662-2.067-4.352-2.465c-0.458-0.107-0.752-0.192-0.563-0.843c0.261-0.899,0.31-1.856,0.138-2.804
			c-0.946-5.223-4.231-8.432-9.046-10.11c-3.439-1.199-7-0.844-10.498-0.044c-3.438,0.786-6.348,2.462-8.513,5.303
			C41.468,10.941,40.52,13.74,40.495,16.832z M31.79,58.613c0.447-0.026,0.67,0.219,0.931,0.366
			c0.927,0.522,1.849,1.056,2.773,1.583c0.365,0.208,0.745,0.258,0.998-0.131c0.287-0.44,0.032-0.768-0.345-1.012
			c-0.236-0.152-0.487-0.282-0.729-0.425c-0.949-0.556-1.898-1.112-2.925-1.714c0.372-0.223,0.611-0.37,0.854-0.511
			c0.92-0.534,1.845-1.063,2.764-1.6c0.387-0.227,0.666-0.557,0.408-0.999c-0.257-0.442-0.683-0.362-1.077-0.147
			c-0.247,0.134-0.484,0.287-0.729,0.427c-0.936,0.534-1.873,1.065-2.924,1.663c0-0.567,0-0.973,0-1.378
			c0-0.942,0.01-1.885-0.008-2.826c-0.008-0.43-0.117-0.855-0.666-0.839c-0.529,0.017-0.642,0.423-0.661,0.861
			c-0.011,0.251-0.002,0.503-0.002,0.754c0,1.093,0,2.186,0,3.427c-1.19-0.685-2.26-1.312-3.341-1.917
			c-0.453-0.254-1.008-0.67-1.375,0.008c-0.32,0.595,0.235,0.867,0.682,1.124c1.092,0.626,2.176,1.267,3.345,1.949
			c-0.382,0.231-0.646,0.398-0.915,0.554c-0.84,0.485-1.688,0.959-2.523,1.451c-0.412,0.242-0.892,0.534-0.589,1.093
			c0.303,0.561,0.785,0.348,1.217,0.084c0.267-0.163,0.543-0.312,0.815-0.467c0.853-0.489,1.706-0.979,2.685-1.541
			c0,0.655,0,1.122,0,1.588c0.001,0.88-0.011,1.759,0.009,2.639c0.01,0.436,0.172,0.855,0.682,0.832
			c0.492-0.022,0.65-0.419,0.645-0.877c-0.003-0.283,0.001-0.565,0.001-0.849C31.79,60.73,31.79,59.675,31.79,58.613z M47.32,65.824
			c-1.307,0.755-2.47,1.423-3.628,2.1c-0.383,0.225-0.669,0.559-0.425,1.002c0.245,0.443,0.664,0.391,1.063,0.159
			c0.217-0.126,0.433-0.252,0.651-0.376c0.961-0.546,1.924-1.09,2.992-1.694c0,1.467-0.007,2.754,0.004,4.04
			c0.004,0.49,0.087,1.017,0.723,0.986c0.583-0.028,0.606-0.531,0.605-0.991c-0.003-1.006-0.002-2.011,0-3.016
			c0.002-1.063,0.004-1.063,0.966-0.507c0.732,0.423,1.453,0.865,2.2,1.26c0.489,0.258,1.089,0.894,1.543,0.146
			c0.463-0.761-0.374-0.976-0.849-1.264c-1.008-0.609-2.033-1.191-3.141-1.837c0.367-0.229,0.62-0.395,0.881-0.546
			c0.921-0.533,1.848-1.057,2.766-1.596c0.35-0.205,0.619-0.519,0.413-0.929c-0.229-0.455-0.656-0.417-1.062-0.222
			c-0.225,0.107-0.434,0.248-0.651,0.372c-0.969,0.557-1.938,1.113-2.906,1.669c-0.257-0.355-0.151-0.677-0.155-0.976
			c-0.017-1.099-0.001-2.198-0.02-3.297c-0.007-0.373-0.16-0.676-0.603-0.702c-0.446-0.026-0.616,0.28-0.688,0.632
			c-0.055,0.272-0.026,0.563-0.027,0.846c-0.002,1.141-0.001,2.281-0.001,3.572c-1.27-0.731-2.374-1.368-3.479-2.004
			c-0.43-0.248-0.935-0.466-1.228,0.076c-0.287,0.533,0.153,0.839,0.595,1.089C44.974,64.449,46.076,65.101,47.32,65.824z
			 M10.319,65.886c-1.175,0.678-2.232,1.283-3.284,1.897c-0.454,0.266-1.106,0.531-0.757,1.179c0.353,0.653,0.914,0.256,1.378-0.007
			c0.218-0.124,0.434-0.251,0.651-0.375c0.854-0.489,1.709-0.979,2.667-1.526c0,1.389-0.004,2.611,0.002,3.833
			c0.002,0.53-0.061,1.186,0.701,1.188c0.746,0.001,0.616-0.655,0.621-1.137c0.013-1.243,0.004-2.486,0.004-3.91
			c1.133,0.654,2.111,1.247,3.118,1.788c0.508,0.272,1.153,0.938,1.613,0.133c0.431-0.754-0.436-0.951-0.906-1.238
			c-0.993-0.605-2.006-1.181-3.124-1.834c1.292-0.75,2.455-1.418,3.61-2.099c0.367-0.216,0.719-0.5,0.444-0.977
			c-0.284-0.492-0.706-0.407-1.136-0.154c-0.972,0.571-1.963,1.109-2.922,1.702c-0.563,0.348-0.732,0.267-0.708-0.413
			c0.041-1.16,0.009-2.324,0.009-3.486c0-0.427-0.163-0.771-0.615-0.797c-0.459-0.026-0.646,0.331-0.698,0.731
			c-0.036,0.278-0.012,0.564-0.012,0.848c0,1.108,0,2.217,0,3.463c-0.377-0.207-0.593-0.319-0.803-0.44
			c-0.895-0.517-1.788-1.036-2.683-1.554c-0.425-0.245-0.918-0.485-1.217,0.077c-0.286,0.539,0.139,0.859,0.584,1.098
			c0.22,0.118,0.434,0.25,0.65,0.376C8.418,64.78,9.33,65.311,10.319,65.886z M27.144,80.415c1.24-0.72,2.373-1.371,3.499-2.035
			c0.409-0.241,0.893-0.513,0.53-1.089c-0.348-0.554-0.805-0.284-1.227-0.039c-0.919,0.536-1.854,1.048-2.758,1.609
			c-0.577,0.359-0.785,0.317-0.753-0.427c0.047-1.129,0.008-2.262,0.012-3.392c0.002-0.46-0.141-0.861-0.646-0.861
			c-0.494,0.001-0.658,0.409-0.677,0.855c-0.012,0.282-0.003,0.565-0.003,0.848c0,1.078,0,2.156,0,3.358
			c-1.311-0.752-2.475-1.417-3.635-2.088c-0.396-0.228-0.809-0.305-1.064,0.135c-0.216,0.373-0.039,0.732,0.321,0.969
			c0.209,0.137,0.432,0.253,0.649,0.378c0.997,0.575,1.993,1.15,3.079,1.776c-1.3,0.754-2.487,1.437-3.669,2.129
			c-0.397,0.232-0.625,0.582-0.354,1.013c0.247,0.392,0.65,0.306,1.009,0.13c0.252-0.123,0.486-0.284,0.731-0.425
			c0.938-0.536,1.878-1.071,2.934-1.673c0,1.402-0.005,2.65,0.002,3.897c0.003,0.504-0.031,1.114,0.668,1.129
			c0.74,0.016,0.652-0.615,0.654-1.109c0.007-1.265,0.002-2.53,0.002-3.944c1.22,0.699,2.272,1.304,3.327,1.904
			c0.458,0.26,0.996,0.688,1.395,0.06c0.427-0.671-0.255-0.909-0.691-1.17C29.413,81.719,28.336,81.106,27.144,80.415z
			 M70.566,56.221c0,1.5,0.002,2.82-0.001,4.14c-0.001,0.49,0.136,0.938,0.692,0.922c0.485-0.014,0.646-0.422,0.63-0.886
			c-0.009-0.282-0.001-0.565-0.001-0.849c0-1.072,0-2.146,0-3.332c1.247,0.717,2.331,1.343,3.417,1.965
			c0.436,0.249,0.931,0.609,1.295-0.017c0.366-0.629-0.203-0.882-0.631-1.134c-1.1-0.646-2.208-1.28-3.397-1.968
			c1.218-0.709,2.321-1.35,3.422-1.994c0.409-0.239,0.93-0.489,0.622-1.067c-0.336-0.631-0.853-0.319-1.295-0.067
			c-1.104,0.627-2.202,1.266-3.433,1.975c0-1.255,0.034-2.346-0.013-3.433c-0.025-0.592,0.338-1.563-0.627-1.584
			c-0.984-0.022-0.645,0.952-0.667,1.543c-0.042,1.109-0.012,2.222-0.012,3.477c-1.263-0.729-2.366-1.373-3.475-2.005
			c-0.418-0.239-0.906-0.499-1.232,0.057c-0.33,0.563,0.138,0.837,0.561,1.082c1.121,0.649,2.239,1.303,3.471,2.021
			c-1.223,0.707-2.33,1.347-3.437,1.986c-0.456,0.264-0.949,0.575-0.568,1.165c0.344,0.532,0.821,0.228,1.238-0.014
			C68.228,57.564,69.335,56.93,70.566,56.221z"/>
		<path fill-rule="evenodd" clip-rule="evenodd" fill="#99CAEE" d="M60.375,113.578c-12.452,0-24.904,0-37.356,0
			c0.123-0.379,0.502-0.435,0.784-0.6c2.773-1.627,5.554-3.244,8.333-4.862c19.563-11.384,39.126-22.769,58.691-34.149
			c7.581-4.41,15.168-8.811,22.752-13.215c0,7.231,0,14.464,0,21.696c-0.115,0.045-0.239,0.076-0.345,0.137
			c-17.463,10.155-34.926,20.312-52.377,30.486C60.686,113.171,60.255,113.153,60.375,113.578z"/>
		<path fill-rule="evenodd" clip-rule="evenodd" fill="#6185A2" d="M20.755,113.578c-6.543,0-13.086-0.012-19.628,0.02
			c-0.65,0.003-0.886-0.139-0.748-0.774c0.524-0.051,0.902-0.407,1.328-0.655c24.404-14.193,48.807-28.392,73.201-42.604
			c0.536-0.313,0.785-0.354,1.117,0.257c1.466,2.701,2.967,5.384,4.501,8.047c0.293,0.509,0.037,0.64-0.299,0.835
			c-1.703,0.994-3.403,1.993-5.108,2.984C57.235,92.09,39.35,102.49,21.475,112.907C21.209,113.063,20.707,113.054,20.755,113.578z
			 M64.516,85.834c-0.115-0.533-0.439-0.969-0.741-1.393c-0.46-0.649-0.291-0.944,0.376-1.32c3.656-2.06,7.283-4.173,10.918-6.271
			c1.121-0.647,1.064-0.624,0.492-1.789c-0.417-0.848-0.814-1.14-1.647-0.477c-0.484,0.385-1.078,0.633-1.621,0.946
			c-3.174,1.831-6.356,3.649-9.515,5.506c-0.565,0.332-0.859,0.301-1.129-0.316c-0.216-0.492-0.538-0.938-0.886-1.53
			c-1.305,2.291-2.541,4.461-3.777,6.63c0.111,0.189,0.294,0.211,0.488,0.211c2.289,0.001,4.578,0.003,6.866,0.002
			C64.461,86.032,64.603,86.029,64.516,85.834z"/>
		<path fill-rule="evenodd" clip-rule="evenodd" fill="#818181" d="M113.579,86.977c0,8.615-0.009,17.231,0.019,25.847
			c0.002,0.646-0.127,0.774-0.773,0.773c-14.968-0.023-29.935-0.019-44.903-0.019c0.201-0.141,0.394-0.298,0.605-0.421
			c10.594-6.17,21.188-12.34,31.786-18.502C104.73,92.087,109.157,89.535,113.579,86.977z"/>
		<path fill-rule="evenodd" clip-rule="evenodd" fill="#080B0D" d="M20.755,113.578c-0.048-0.524,0.454-0.516,0.72-0.671
			c17.875-10.417,35.76-20.817,53.644-31.22c1.705-0.991,3.405-1.99,5.108-2.984c0.335-0.195,0.592-0.326,0.299-0.835
			c-1.534-2.663-3.036-5.346-4.501-8.047c-0.332-0.61-0.581-0.569-1.117-0.257c-24.394,14.212-48.796,28.41-73.201,42.604
			c-0.426,0.248-0.803,0.604-1.328,0.655c0-1.006,0-2.012,0-3.019c0.347,0.023,0.573-0.23,0.834-0.383
			c24.473-14.233,48.943-28.471,73.402-42.728c0.646-0.376,0.899-0.397,1.29,0.327c1.779,3.304,3.652,6.558,5.454,9.851
			c0.371,0.677,0.677,0.756,1.342,0.347c1.919-1.183,3.875-2.307,5.845-3.404c0.559-0.313,0.64-0.541,0.313-1.111
			c-1.887-3.286-3.72-6.604-5.596-9.896c-0.339-0.595-0.362-0.942,0.317-1.335c9.866-5.711,19.716-11.448,29.572-17.176
			c0.128-0.074,0.284-0.1,0.427-0.147c0,1.007,0,2.013,0,3.02c-0.709,0.186-1.273,0.652-1.89,1.01
			c-8.583,4.985-17.156,9.988-25.742,14.968c-0.557,0.323-0.762,0.528-0.375,1.189c1.443,2.458,2.858,4.937,4.175,7.463
			c0.467,0.896,0.861,0.904,1.63,0.447c3.392-2.015,6.81-3.986,10.215-5.979c3.998-2.339,7.992-4.683,11.987-7.024
			c0,0.503,0,1.006,0,1.51c-7.584,4.404-15.171,8.805-22.752,13.215c-19.565,11.381-39.127,22.766-58.691,34.149
			c-2.779,1.618-5.56,3.235-8.333,4.862c-0.281,0.165-0.661,0.221-0.784,0.6C22.265,113.578,21.51,113.578,20.755,113.578z"/>
		<path fill-rule="evenodd" clip-rule="evenodd" fill="#6185A2" d="M113.579,59.242c-3.996,2.342-7.99,4.686-11.987,7.024
			c-3.405,1.992-6.823,3.964-10.215,5.979c-0.769,0.457-1.163,0.449-1.63-0.447c-1.316-2.526-2.732-5.005-4.175-7.463
			c-0.388-0.661-0.183-0.866,0.375-1.189c8.586-4.979,17.159-9.982,25.742-14.968c0.617-0.357,1.181-0.824,1.89-1.01
			C113.579,51.192,113.579,55.218,113.579,59.242z"/>
		<path fill-rule="evenodd" clip-rule="evenodd" fill="#080B0D" d="M113.579,86.977c-4.422,2.559-8.849,5.11-13.266,7.679
			c-10.598,6.162-21.192,12.332-31.786,18.502c-0.212,0.123-0.404,0.28-0.605,0.421c-2.516,0-5.031,0-7.547,0
			c-0.12-0.425,0.311-0.407,0.482-0.507c17.452-10.175,34.915-20.331,52.377-30.486c0.106-0.061,0.229-0.092,0.345-0.137
			C113.579,83.958,113.579,85.467,113.579,86.977z"/>
		<path fill-rule="evenodd" clip-rule="evenodd" fill="#080B0D" d="M40.495,16.832c0.024-3.092,0.973-5.891,2.854-8.359
			c2.165-2.841,5.075-4.517,8.513-5.303c3.499-0.8,7.059-1.155,10.498,0.044c4.815,1.679,8.101,4.888,9.046,10.11
			c0.172,0.947,0.123,1.904-0.138,2.804c-0.189,0.65,0.105,0.735,0.563,0.843c1.689,0.397,3.146,1.211,4.352,2.465
			c1.681,1.746,2.532,3.794,2.111,6.232c-0.141,0.815,0.126,1.171,0.838,1.538c2.412,1.244,4.323,3.022,5.236,5.65
			c1.378,3.968-0.239,8.105-3.927,10.508c-2.948,1.921-6.195,2.646-9.64,2.647c-18.927,0.012-37.854,0.006-56.781,0.006
			c-4.332,0-8.618-2.874-10.269-6.884c-2.708-6.58-0.833-14.348,4.588-19.123c3.283-2.892,7.066-4.512,11.467-4.461
			c3.009,0.035,5.8,0.933,8.313,2.596c0.573,0.378,0.97,0.396,1.584,0.071c3.092-1.635,6.363-2.226,9.824-1.472
			c0.245,0.054,0.493,0.095,0.741,0.132C40.326,16.885,40.389,16.854,40.495,16.832z M44.286,21.136
			c-0.972-0.355-1.806-0.626-2.612-0.962c-3.987-1.659-7.85-1.384-11.52,0.851c-1.03,0.627-1.839,0.729-2.714-0.124
			c-0.154-0.15-0.364-0.244-0.547-0.365c-2.953-1.952-6.157-2.669-9.67-2.074C8.8,19.888,3.192,29.116,5.857,37.209
			c1.218,3.701,4.567,6.119,8.47,6.119c18.798,0,37.596,0.002,56.394-0.003c2.933,0,5.708-0.556,8.227-2.194
			c3.886-2.526,4.358-6.919,1.018-10.113c-1.035-0.99-2.277-1.642-3.605-2.153c-1.701-0.653-1.704-0.667-1.025-2.389
			c0.757-1.921,0.387-3.615-1.006-5.107c-1.53-1.639-3.523-2.047-5.644-2.13c-1.484-0.059-1.563-0.113-0.875-1.396
			c1.546-2.878,1.169-5.554-0.708-8.093c-1.216-1.645-2.802-2.854-4.67-3.7c-2.361-1.071-4.855-0.934-7.317-0.718
			c-3.842,0.336-7.319,1.604-9.686,4.86c-2.005,2.76-2.946,5.79-1.676,9.19C43.948,19.902,44.079,20.448,44.286,21.136z"/>
		<path fill-rule="evenodd" clip-rule="evenodd" fill="#080B0D" d="M31.79,58.613c0,1.062,0,2.117,0,3.171
			c0,0.283-0.004,0.565-0.001,0.849c0.005,0.458-0.153,0.854-0.645,0.877c-0.51,0.023-0.672-0.396-0.682-0.832
			c-0.02-0.88-0.008-1.759-0.009-2.639c0-0.466,0-0.933,0-1.588c-0.979,0.563-1.832,1.052-2.685,1.541
			c-0.272,0.155-0.548,0.304-0.815,0.467c-0.432,0.264-0.914,0.477-1.217-0.084c-0.303-0.559,0.177-0.851,0.589-1.093
			c0.836-0.492,1.683-0.966,2.523-1.451c0.269-0.155,0.532-0.322,0.915-0.554c-1.169-0.683-2.253-1.323-3.345-1.949
			c-0.447-0.257-1.001-0.529-0.682-1.124c0.366-0.678,0.922-0.262,1.375-0.008c1.082,0.605,2.151,1.232,3.341,1.917
			c0-1.241,0-2.334,0-3.427c0-0.251-0.008-0.503,0.002-0.754c0.019-0.438,0.132-0.845,0.661-0.861
			c0.549-0.017,0.658,0.409,0.666,0.839c0.018,0.941,0.007,1.884,0.008,2.826c0,0.405,0,0.811,0,1.378
			c1.051-0.598,1.988-1.129,2.924-1.663c0.245-0.14,0.481-0.293,0.729-0.427c0.394-0.215,0.819-0.295,1.077,0.147
			c0.258,0.442-0.021,0.772-0.408,0.999c-0.919,0.537-1.843,1.065-2.764,1.6c-0.243,0.141-0.482,0.288-0.854,0.511
			c1.027,0.602,1.976,1.158,2.925,1.714c0.243,0.143,0.494,0.272,0.729,0.425c0.377,0.244,0.631,0.571,0.345,1.012
			c-0.253,0.389-0.633,0.339-0.998,0.131c-0.924-0.527-1.846-1.061-2.773-1.583C32.459,58.832,32.236,58.587,31.79,58.613z"/>
		<path fill-rule="evenodd" clip-rule="evenodd" fill="#080B0D" d="M47.32,65.824c-1.244-0.724-2.346-1.375-3.46-2.006
			c-0.442-0.25-0.882-0.556-0.595-1.089c0.292-0.542,0.797-0.324,1.228-0.076c1.105,0.636,2.21,1.272,3.479,2.004
			c0-1.291-0.001-2.432,0.001-3.572c0-0.282-0.028-0.573,0.027-0.846c0.071-0.352,0.241-0.658,0.688-0.632
			c0.443,0.026,0.596,0.329,0.603,0.702c0.019,1.099,0.003,2.198,0.02,3.297c0.004,0.299-0.102,0.62,0.155,0.976
			c0.969-0.556,1.938-1.112,2.906-1.669c0.217-0.124,0.426-0.265,0.651-0.372c0.406-0.195,0.833-0.233,1.062,0.222
			c0.206,0.41-0.063,0.724-0.413,0.929c-0.918,0.539-1.845,1.063-2.766,1.596c-0.261,0.151-0.514,0.317-0.881,0.546
			c1.107,0.646,2.133,1.228,3.141,1.837c0.475,0.288,1.312,0.503,0.849,1.264c-0.454,0.747-1.054,0.111-1.543-0.146
			c-0.747-0.395-1.468-0.837-2.2-1.26c-0.962-0.556-0.963-0.556-0.966,0.507c-0.002,1.005-0.002,2.01,0,3.016
			c0.001,0.46-0.022,0.963-0.605,0.991c-0.636,0.03-0.719-0.496-0.723-0.986c-0.011-1.286-0.004-2.573-0.004-4.04
			c-1.068,0.604-2.031,1.148-2.992,1.694c-0.218,0.124-0.434,0.25-0.651,0.376c-0.398,0.231-0.818,0.284-1.063-0.159
			c-0.244-0.443,0.042-0.777,0.425-1.002C44.85,67.247,46.013,66.579,47.32,65.824z"/>
		<path fill-rule="evenodd" clip-rule="evenodd" fill="#080B0D" d="M10.319,65.886c-0.989-0.575-1.901-1.105-2.813-1.635
			c-0.216-0.126-0.43-0.258-0.65-0.376c-0.446-0.238-0.87-0.559-0.584-1.098c0.299-0.563,0.792-0.322,1.217-0.077
			c0.895,0.518,1.788,1.037,2.683,1.554c0.21,0.121,0.426,0.233,0.803,0.44c0-1.246,0-2.354,0-3.463
			c0-0.283-0.024-0.569,0.012-0.848c0.051-0.4,0.239-0.758,0.698-0.731c0.452,0.025,0.615,0.37,0.615,0.797
			c0,1.162,0.032,2.326-0.009,3.486c-0.023,0.68,0.145,0.761,0.708,0.413c0.959-0.593,1.951-1.131,2.922-1.702
			c0.43-0.253,0.852-0.338,1.136,0.154c0.274,0.477-0.078,0.761-0.444,0.977c-1.155,0.681-2.317,1.349-3.61,2.099
			c1.118,0.653,2.131,1.229,3.124,1.834c0.47,0.287,1.337,0.484,0.906,1.238c-0.459,0.806-1.104,0.14-1.613-0.133
			c-1.007-0.541-1.985-1.134-3.118-1.788c0,1.424,0.008,2.667-0.004,3.91c-0.005,0.481,0.125,1.138-0.621,1.137
			c-0.762-0.002-0.698-0.657-0.701-1.188c-0.006-1.222-0.002-2.444-0.002-3.833c-0.958,0.548-1.813,1.037-2.667,1.526
			c-0.217,0.124-0.433,0.251-0.651,0.375c-0.464,0.263-1.025,0.66-1.378,0.007c-0.349-0.647,0.303-0.913,0.757-1.179
			C8.086,67.169,9.144,66.563,10.319,65.886z"/>
		<path fill-rule="evenodd" clip-rule="evenodd" fill="#080B0D" d="M27.144,80.415c1.192,0.691,2.269,1.304,3.333,1.938
			c0.436,0.261,1.118,0.499,0.691,1.17c-0.399,0.628-0.938,0.2-1.395-0.06c-1.055-0.601-2.107-1.205-3.327-1.904
			c0,1.414,0.005,2.68-0.002,3.944c-0.002,0.494,0.086,1.125-0.654,1.109c-0.699-0.015-0.665-0.625-0.668-1.129
			c-0.007-1.247-0.002-2.495-0.002-3.897c-1.056,0.602-1.995,1.137-2.934,1.673c-0.245,0.141-0.479,0.302-0.731,0.425
			c-0.359,0.176-0.762,0.262-1.009-0.13c-0.271-0.431-0.042-0.78,0.354-1.013c1.182-0.692,2.369-1.375,3.669-2.129
			c-1.086-0.626-2.083-1.201-3.079-1.776c-0.217-0.125-0.44-0.241-0.649-0.378c-0.36-0.236-0.538-0.596-0.321-0.969
			c0.255-0.439,0.669-0.362,1.064-0.135c1.161,0.671,2.325,1.336,3.635,2.088c0-1.202,0-2.28,0-3.358
			c0-0.282-0.009-0.565,0.003-0.848c0.019-0.446,0.183-0.854,0.677-0.855c0.505,0,0.648,0.401,0.646,0.861
			c-0.004,1.13,0.035,2.263-0.012,3.392c-0.031,0.744,0.176,0.786,0.753,0.427c0.904-0.562,1.839-1.073,2.758-1.609
			c0.422-0.245,0.879-0.515,1.227,0.039c0.363,0.576-0.122,0.848-0.53,1.089C29.517,79.044,28.384,79.695,27.144,80.415z"/>
		<path fill-rule="evenodd" clip-rule="evenodd" fill="#080B0D" d="M70.566,56.221c-1.231,0.709-2.338,1.344-3.443,1.982
			c-0.417,0.241-0.894,0.546-1.238,0.014c-0.381-0.59,0.112-0.901,0.568-1.165c1.107-0.64,2.214-1.279,3.437-1.986
			c-1.232-0.718-2.35-1.371-3.471-2.021c-0.423-0.245-0.89-0.52-0.561-1.082c0.326-0.556,0.814-0.296,1.232-0.057
			c1.109,0.632,2.212,1.275,3.475,2.005c0-1.255-0.03-2.367,0.012-3.477c0.022-0.591-0.317-1.565,0.667-1.543
			c0.966,0.021,0.602,0.992,0.627,1.584c0.047,1.087,0.013,2.178,0.013,3.433c1.231-0.709,2.329-1.348,3.433-1.975
			c0.442-0.252,0.959-0.563,1.295,0.067c0.308,0.578-0.213,0.828-0.622,1.067c-1.101,0.645-2.204,1.285-3.422,1.994
			c1.189,0.688,2.297,1.321,3.397,1.968c0.428,0.252,0.997,0.505,0.631,1.134c-0.364,0.626-0.859,0.266-1.295,0.017
			c-1.086-0.622-2.169-1.248-3.417-1.965c0,1.187,0,2.26,0,3.332c0,0.283-0.008,0.566,0.001,0.849
			c0.016,0.464-0.146,0.872-0.63,0.886c-0.556,0.016-0.693-0.432-0.692-0.922C70.569,59.041,70.566,57.721,70.566,56.221z"/>
		<path fill-rule="evenodd" clip-rule="evenodd" fill="#080B0D" d="M56.986,85.82c1.236-2.169,2.472-4.339,3.777-6.63
			c0.348,0.592,0.67,1.038,0.886,1.53c0.271,0.617,0.564,0.648,1.129,0.316c3.159-1.856,6.341-3.675,9.515-5.506
			c0.542-0.313,1.136-0.562,1.621-0.946c0.833-0.663,1.229-0.371,1.647,0.477c0.573,1.165,0.629,1.142-0.492,1.789
			c-3.635,2.098-7.262,4.211-10.918,6.271c-0.667,0.376-0.836,0.671-0.376,1.32c0.301,0.424,0.626,0.859,0.741,1.393
			C62.006,85.829,59.496,85.825,56.986,85.82z"/>
		<path fill-rule="evenodd" clip-rule="evenodd" fill="#7D93A6" d="M56.986,85.82c2.51,0.005,5.021,0.009,7.53,0.014
			c0.087,0.195-0.055,0.198-0.176,0.199c-2.289,0.001-4.578-0.001-6.866-0.002C57.28,86.031,57.097,86.01,56.986,85.82z"/>
		<path fill-rule="evenodd" clip-rule="evenodd" fill="#FFFEFF" d="M44.286,21.136c-0.207-0.688-0.337-1.233-0.532-1.754
			c-1.27-3.4-0.329-6.431,1.676-9.19c2.367-3.257,5.844-4.524,9.686-4.86c2.462-0.216,4.957-0.354,7.317,0.718
			c1.868,0.847,3.454,2.056,4.67,3.7c1.877,2.539,2.254,5.215,0.708,8.093c-0.689,1.283-0.61,1.338,0.875,1.396
			c2.121,0.083,4.114,0.491,5.644,2.13c1.394,1.492,1.764,3.187,1.006,5.107c-0.678,1.722-0.676,1.735,1.025,2.389
			c1.329,0.512,2.57,1.163,3.605,2.153c3.34,3.194,2.868,7.587-1.018,10.113c-2.519,1.639-5.294,2.194-8.227,2.194
			c-18.798,0.005-37.596,0.003-56.394,0.003c-3.903,0-7.252-2.418-8.47-6.119C3.192,29.116,8.8,19.888,17.224,18.461
			c3.513-0.595,6.717,0.122,9.67,2.074c0.183,0.121,0.393,0.215,0.547,0.365c0.875,0.853,1.684,0.751,2.714,0.124
			c3.67-2.234,7.532-2.51,11.52-0.851C42.48,20.51,43.313,20.78,44.286,21.136z"/>
	</g>
</g>
<g id="Layer_2">
</g>
<g id="Layer_2_copy">
</g>
</svg>
