<?xml version="1.0" encoding="utf-8"?>
<!-- Generator: Adobe Illustrator 16.0.0, SVG Export Plug-In . SVG Version: 6.00 Build 0)  -->
<!DOCTYPE svg PUBLIC "-//W3C//DTD SVG 1.1//EN" "http://www.w3.org/Graphics/SVG/1.1/DTD/svg11.dtd">
<svg version="1.1" xmlns="http://www.w3.org/2000/svg" xmlns:xlink="http://www.w3.org/1999/xlink" x="0px" y="0px"
	 width="113.39px" height="113.39px" viewBox="0 0 113.39 113.39" enable-background="new 0 0 113.39 113.39" xml:space="preserve">
<g id="Layer_1">
	<g>
		<path fill-rule="evenodd" clip-rule="evenodd" fill="#FFFFFF" d="M0.243,88.384c0-29.059,0.003-58.117-0.018-87.175
			C0.224,0.501,0.384,0.341,1.093,0.341c37.212,0.021,74.424,0.021,111.636,0c0.708,0,0.872,0.159,0.869,0.868
			c-0.03,7.146-0.019,14.293-0.019,21.439c-0.351-0.037-0.575,0.225-0.836,0.376c-6.212,3.605-12.416,7.226-18.628,10.831
			c-5.126,2.975-10.262,5.934-15.395,8.898c-1.078,0.623-1.082,0.623-0.441,1.709c3.792,6.43,7.568,12.868,11.4,19.273
			c0.462,0.772,0.402,1.116-0.358,1.554c-2.362,1.359-4.708,2.748-7.022,4.188c-0.721,0.449-0.993,0.277-1.389-0.403
			c-3.585-6.172-7.207-12.324-10.831-18.475c-0.393-0.666-0.615-1.706-1.263-1.875c-0.663-0.174-1.35,0.647-2.022,1.039
			c-21.934,12.759-43.865,25.521-65.8,38.279C0.758,88.181,0.557,88.413,0.243,88.384z M58.444,10.651
			c0.013-1.035,0.186-2.077-0.078-3.103c-0.64-2.487-2.982-4.033-5.5-3.646c-2.555,0.393-4.273,2.555-4.155,5.224
			c0.152,3.427,0.3,6.854,0.454,10.281c0.256,5.69,0.489,11.383,0.79,17.07c0.084,1.598,0.776,2.924,2.401,3.514
			c2.438,0.884,4.789-0.823,4.918-3.592C57.676,27.818,58.056,19.234,58.444,10.651z M53.607,54.195
			c2.697,0,5.013-2.318,4.988-4.994c-0.024-2.698-2.365-5.001-5.034-4.952c-2.689,0.049-4.924,2.288-4.942,4.951
			C48.601,51.883,50.91,54.195,53.607,54.195z"/>
		<path fill-rule="evenodd" clip-rule="evenodd" fill="#818181" d="M113.579,65.527c0,16.056,0,32.112,0,48.168
			c-27.18,0-54.359,0-81.539-0.002c-0.408,0-0.815-0.028-1.223-0.043c0.148-0.112,0.287-0.241,0.446-0.334
			c3.8-2.213,7.602-4.424,11.405-6.632C60.544,96.303,78.418,85.92,96.294,75.541C102.053,72.198,107.817,68.865,113.579,65.527z"/>
		<path fill-rule="evenodd" clip-rule="evenodd" fill="#6185A2" d="M0.243,106.518c0-5.037,0-10.074,0-15.112
			c0.386,0.051,0.635-0.234,0.922-0.4c4.175-2.421,8.345-4.852,12.516-7.279c18.176-10.578,36.355-21.151,54.521-31.747
			c0.711-0.414,1.056-0.4,1.496,0.368c1.804,3.157,3.658,6.286,5.547,9.392c0.435,0.715,0.341,1.03-0.37,1.444
			C52.68,76.077,30.498,88.993,8.31,101.899C5.632,103.457,2.932,104.979,0.243,106.518z M50.652,65.469
			c-1.17,2.005-2.313,3.959-3.449,5.917c-0.228,0.394-0.087,0.567,0.361,0.566c2.251-0.007,4.502-0.004,6.919-0.004
			c-0.353-0.612-0.608-1.104-0.909-1.566c-0.32-0.491-0.278-0.764,0.287-1.083c3.637-2.053,7.249-4.148,10.868-6.233
			c1.375-0.791,1.337-0.774,0.544-2.215c-0.317-0.577-0.506-0.654-1.101-0.303c-3.354,1.982-6.742,3.91-10.123,5.847
			c-0.645,0.37-1.345,1.026-1.96,0.964c-0.68-0.069-0.783-1.156-1.241-1.73C50.829,65.604,50.8,65.588,50.652,65.469z"/>
		<path fill-rule="evenodd" clip-rule="evenodd" fill="#99C9ED" d="M113.579,52.871c0,2.708,0,5.415,0,8.123
			c-0.394,0.039-0.675,0.312-0.995,0.497c-26.775,15.556-53.549,31.112-80.32,46.676c-3.127,1.818-6.305,3.552-9.352,5.508
			c-4.613-0.01-9.227-0.02-13.84-0.029c0.306-0.211,0.599-0.445,0.919-0.632c27.082-15.762,54.165-31.521,81.25-47.276
			c5.785-3.365,11.574-6.725,17.371-10.071C110.257,54.717,111.83,53.638,113.579,52.871z"/>
		<path fill-rule="evenodd" clip-rule="evenodd" fill="#211A1B" d="M113.579,52.871c-1.749,0.767-3.322,1.846-4.967,2.795
			c-5.797,3.347-11.586,6.706-17.371,10.071c-27.085,15.756-54.168,31.515-81.25,47.276c-0.32,0.187-0.613,0.421-0.919,0.632
			c-0.876,0.09-1.753,0.083-2.629,0.007c1.262-0.753,2.518-1.519,3.789-2.258c23.137-13.457,46.273-26.913,69.42-40.353
			c0.583-0.339,0.755-0.565,0.354-1.197c-0.971-1.536-1.859-3.125-2.784-4.689c-0.829-1.403-0.834-1.407-2.286-0.563
			C50.038,79.07,25.14,93.55,0.243,108.028c0-0.504,0-1.007,0-1.511c2.689-1.539,5.389-3.061,8.067-4.618
			c22.188-12.906,44.37-25.822,66.565-38.717c0.711-0.414,0.805-0.729,0.37-1.444c-1.889-3.105-3.743-6.234-5.547-9.392
			c-0.439-0.769-0.785-0.782-1.496-0.368C50.036,62.574,31.857,73.147,13.681,83.726C9.51,86.153,5.34,88.584,1.165,91.005
			c-0.288,0.166-0.536,0.451-0.922,0.4c0-1.007,0-2.015,0-3.021c0.314,0.029,0.516-0.203,0.752-0.34
			c21.935-12.758,43.866-25.521,65.8-38.279c0.672-0.392,1.359-1.213,2.022-1.039c0.648,0.169,0.871,1.209,1.263,1.875
			c3.624,6.15,7.245,12.303,10.831,18.475c0.396,0.681,0.667,0.853,1.389,0.403c2.313-1.44,4.66-2.829,7.022-4.188
			c0.76-0.438,0.82-0.781,0.358-1.554c-3.832-6.405-7.608-12.844-11.4-19.273c-0.641-1.086-0.637-1.086,0.441-1.709
			c5.132-2.965,10.268-5.924,15.395-8.898c6.213-3.605,12.416-7.226,18.628-10.831c0.261-0.151,0.486-0.413,0.836-0.376
			c0,1.007,0,2.015,0,3.022c-0.117,0.04-0.244,0.063-0.349,0.124c-10.862,6.316-21.719,12.641-32.592,18.938
			c-0.6,0.348-0.385,0.609-0.154,1.002c1.828,3.089,3.652,6.181,5.468,9.277c0.741,1.264,0.728,1.267,2.003,0.525
			c8.261-4.807,16.523-9.61,24.787-14.411c0.26-0.151,0.482-0.418,0.838-0.345c0,0.44,0,0.882,0,1.322
			c-8.503,4.946-17.002,9.897-25.516,14.825c-0.573,0.332-0.738,0.548-0.345,1.177c1.078,1.723,2.119,3.473,3.08,5.263
			c0.4,0.745,0.724,0.762,1.395,0.366c4.426-2.61,8.869-5.192,13.316-7.767c2.681-1.552,5.378-3.073,8.069-4.608
			C113.579,51.864,113.579,52.367,113.579,52.871z"/>
		<path fill-rule="evenodd" clip-rule="evenodd" fill="#E64820" d="M0.243,108.028C25.14,93.55,50.038,79.07,74.936,64.592
			c1.452-0.844,1.457-0.84,2.286,0.563c0.925,1.564,1.813,3.153,2.784,4.689c0.4,0.632,0.229,0.858-0.354,1.197
			c-23.146,13.439-46.283,26.896-69.42,40.353c-1.271,0.739-2.526,1.505-3.789,2.258c-2.067,0.015-4.133,0.028-6.2,0.043
			C0.243,111.807,0.243,109.917,0.243,108.028z M27.65,99.145c2.874,0.022,2.624,0.147,2.629-2.646
			c0.006-2.852,0.167-2.626-2.649-2.629c-2.815-0.003-2.627-0.185-2.63,2.65C24.997,99.396,24.861,99.15,27.65,99.145z
			 M45.765,87.573c0-0.534-0.014-1.069,0.003-1.604c0.023-0.726-0.319-1.027-1.034-0.993c-0.565,0.027-1.132-0.002-1.698,0.007
			c-2.544,0.043-2.504-0.488-2.496,2.463c0.009,3.191-0.165,2.659,2.659,2.671C46.108,90.131,45.742,90.479,45.765,87.573z
			 M12.143,102.893c-0.504,0-1.009,0.027-1.511-0.007c-0.795-0.054-1.167,0.263-1.141,1.085c0.031,1.006,0.019,2.015,0.004,3.021
			c-0.011,0.761,0.333,1.075,1.097,1.049c1.038-0.035,2.078-0.034,3.116,0c0.729,0.023,1.05-0.311,1.054-1.001
			c0.007-1.038,0.001-2.077,0.002-3.116c0.001-0.744-0.344-1.093-1.11-1.037C13.152,102.922,12.646,102.894,12.143,102.893z
			 M71.639,69.613c0,0.564,0.022,1.129-0.006,1.691c-0.034,0.686,0.31,0.987,0.948,0.994c1.097,0.013,2.194,0.02,3.291-0.005
			c0.574-0.013,0.938-0.284,0.913-0.935c-0.022-0.563,0.002-1.128-0.004-1.692c-0.034-2.877,0.408-2.62-2.583-2.63
			C71.223,67.028,71.667,66.884,71.639,69.613z M61.262,78.647c0-0.565-0.021-1.132,0.005-1.695c0.029-0.646-0.27-0.92-0.895-0.916
			c-1.099,0.007-2.198,0.01-3.297-0.003c-0.658-0.009-0.982,0.248-0.958,0.95c0.033,0.972,0.005,1.946,0.009,2.92
			c0.004,1.257,0.05,1.299,1.353,1.302c0.408,0,0.816,0.002,1.225-0.001C61.617,81.188,61.24,81.522,61.262,78.647z M19.652,99.732
			c0.518,1.212,0.942,2.244,1.403,3.26c0.167,0.367,0.4,0.788,0.921,0.535c0.478-0.23,0.403-0.615,0.218-1.041
			c-0.614-1.405-1.196-2.824-1.801-4.233c-0.149-0.346-0.323-0.729-0.781-0.702c-0.397,0.022-0.548,0.355-0.688,0.688
			c-0.568,1.356-1.154,2.705-1.724,4.062c-0.182,0.433-0.446,0.976,0.134,1.231c0.667,0.295,0.823-0.36,1.02-0.797
			C18.772,101.807,19.164,100.865,19.652,99.732z M53.325,84.909c0.001,0.005,0.005-0.096-0.03-0.179
			c-0.662-1.55-1.294-3.113-2.01-4.639c-0.293-0.625-0.906-0.596-1.203,0.049c-0.693,1.501-1.329,3.03-1.971,4.554
			c-0.157,0.372-0.16,0.792,0.259,0.979c0.429,0.191,0.706-0.102,0.873-0.482c0.351-0.8,0.692-1.604,1.046-2.404
			c0.096-0.217,0.105-0.579,0.371-0.585c0.331-0.009,0.348,0.375,0.456,0.619c0.367,0.827,0.722,1.66,1.101,2.482
			c0.142,0.309,0.392,0.512,0.756,0.391C53.29,85.589,53.356,85.313,53.325,84.909z M66.22,72.891
			c0.498,1.167,0.899,2.114,1.307,3.06c0.189,0.44,0.401,0.973,0.996,0.721c0.596-0.252,0.345-0.771,0.161-1.204
			c-0.563-1.322-1.135-2.641-1.694-3.965c-0.161-0.38-0.289-0.832-0.786-0.813c-0.478,0.019-0.621,0.474-0.781,0.844
			c-0.569,1.319-1.133,2.643-1.688,3.968c-0.179,0.426-0.474,0.931,0.191,1.177c0.631,0.234,0.784-0.309,0.971-0.742
			C65.301,74.995,65.711,74.057,66.22,72.891z M35.176,90.795c0.52,1.213,0.941,2.206,1.371,3.196
			c0.188,0.434,0.467,0.829,0.993,0.56c0.471-0.242,0.313-0.679,0.145-1.074c-0.602-1.409-1.191-2.825-1.8-4.232
			c-0.134-0.309-0.271-0.66-0.708-0.661c-0.432-0.001-0.58,0.338-0.715,0.65c-0.595,1.38-1.176,2.764-1.756,4.149
			c-0.184,0.438-0.426,0.965,0.197,1.196c0.615,0.229,0.772-0.332,0.959-0.769C34.261,92.877,34.672,91.948,35.176,90.795z
			 M4.132,108.68c0.518,1.199,0.957,2.232,1.412,3.259c0.171,0.385,0.401,0.787,0.909,0.546c0.461-0.218,0.425-0.602,0.231-1.039
			c-0.622-1.4-1.207-2.817-1.813-4.225c-0.147-0.341-0.264-0.736-0.762-0.699c-0.41,0.031-0.563,0.33-0.704,0.662
			c-0.6,1.41-1.211,2.815-1.818,4.223c-0.19,0.44-0.276,0.907,0.274,1.104c0.494,0.177,0.712-0.236,0.882-0.629
			C3.176,110.879,3.612,109.877,4.132,108.68z"/>
		<path fill-rule="evenodd" clip-rule="evenodd" fill="#6185A2" d="M113.579,40.782c-0.356-0.073-0.578,0.193-0.838,0.345
			c-8.264,4.801-16.526,9.604-24.787,14.411c-1.275,0.741-1.262,0.738-2.003-0.525c-1.816-3.097-3.64-6.188-5.468-9.277
			c-0.231-0.393-0.446-0.654,0.154-1.002c10.873-6.298,21.73-12.622,32.592-18.938c0.105-0.062,0.232-0.084,0.349-0.124
			C113.579,30.708,113.579,35.745,113.579,40.782z"/>
		<path fill-rule="evenodd" clip-rule="evenodd" fill="#211A1B" d="M22.913,113.675c3.046-1.956,6.224-3.689,9.352-5.508
			c26.771-15.563,53.545-31.12,80.32-46.676c0.32-0.186,0.601-0.458,0.995-0.497c0,1.511,0,3.022,0,4.533
			c-5.762,3.338-11.526,6.671-17.285,10.014c-17.876,10.379-35.75,20.762-53.625,31.144c-3.803,2.208-7.605,4.419-11.405,6.632
			c-0.16,0.093-0.298,0.222-0.446,0.334C28.182,113.658,25.547,113.667,22.913,113.675z"/>
		<path fill-rule="evenodd" clip-rule="evenodd" fill="#E64820" d="M113.579,51.36c-2.69,1.535-5.388,3.057-8.069,4.608
			c-4.447,2.574-8.89,5.156-13.316,7.767c-0.671,0.396-0.995,0.379-1.395-0.366c-0.961-1.79-2.002-3.54-3.08-5.263
			c-0.393-0.629-0.229-0.845,0.345-1.177c8.514-4.928,17.013-9.879,25.516-14.825C113.579,45.189,113.579,48.275,113.579,51.36z
			 M109.142,51.927c2.883-0.013,2.727,0.345,2.724-2.65c-0.001-2.784,0.18-2.591-2.603-2.594c-2.983-0.003-2.659-0.157-2.674,2.708
			C106.573,52.199,106.461,51.928,109.142,51.927z M93.706,55.694c-0.535,0-1.071,0.024-1.604-0.006
			c-0.736-0.041-1.021,0.3-1.007,1.011c0.021,1.037,0.023,2.076,0,3.113c-0.016,0.708,0.257,1.044,0.997,1.023
			c1.068-0.03,2.139-0.038,3.207,0.002c0.75,0.028,1.022-0.333,1.022-1.014c0-1.038-0.004-2.076,0.001-3.113
			c0.004-0.752-0.342-1.086-1.108-1.024C94.715,55.728,94.209,55.694,93.706,55.694z M101.234,52.527
			c0.534,1.258,0.969,2.326,1.445,3.375c0.154,0.34,0.411,0.705,0.875,0.449c0.375-0.207,0.459-0.524,0.265-0.96
			c-0.664-1.485-1.296-2.985-1.926-4.486c-0.137-0.325-0.327-0.524-0.693-0.521c-0.38,0.004-0.534,0.259-0.664,0.565
			c-0.612,1.44-1.238,2.874-1.848,4.315c-0.182,0.43-0.278,0.911,0.274,1.117c0.512,0.19,0.705-0.253,0.871-0.631
			C100.273,54.751,100.705,53.747,101.234,52.527z"/>
		<path fill-rule="evenodd" clip-rule="evenodd" fill="#211A1B" d="M58.444,10.651c-0.388,8.583-0.768,17.167-1.169,25.749
			c-0.13,2.769-2.48,4.476-4.918,3.592c-1.625-0.59-2.317-1.916-2.401-3.514c-0.301-5.688-0.534-11.38-0.79-17.07
			c-0.154-3.427-0.302-6.854-0.454-10.281c-0.118-2.669,1.601-4.831,4.155-5.224c2.518-0.388,4.86,1.158,5.5,3.646
			C58.63,8.574,58.457,9.616,58.444,10.651z M57.875,10.451c0-0.851,0.051-1.484-0.009-2.107c-0.174-1.788-1.116-3.049-2.806-3.652
			c-2.975-1.064-5.84,1.098-5.729,4.355c0.137,4.022,0.368,8.042,0.542,12.063c0.154,3.551,0.245,7.104,0.448,10.651
			c0.104,1.817,0.005,3.655,0.36,5.451c0.353,1.783,2.034,2.762,3.784,2.273c1.374-0.385,2.188-1.63,2.253-3.431
			c0.078-2.17,0.146-4.339,0.247-6.507C57.264,23.109,57.577,16.67,57.875,10.451z"/>
		<path fill-rule="evenodd" clip-rule="evenodd" fill="#211A1B" d="M53.607,54.195c-2.697,0-5.006-2.313-4.988-4.995
			c0.018-2.663,2.253-4.902,4.942-4.951c2.668-0.049,5.009,2.254,5.034,4.952C58.62,51.877,56.305,54.195,53.607,54.195z
			 M53.673,44.895c-2.44-0.024-4.371,1.824-4.454,4.264c-0.079,2.297,1.957,4.396,4.323,4.46c2.3,0.061,4.423-2.001,4.459-4.331
			C58.038,46.905,56.08,44.919,53.673,44.895z"/>
		<path fill-rule="evenodd" clip-rule="evenodd" fill="#211A1B" d="M50.652,65.469c0.148,0.119,0.177,0.136,0.196,0.159
			c0.458,0.574,0.561,1.661,1.241,1.73c0.615,0.063,1.315-0.594,1.96-0.964c3.381-1.937,6.768-3.864,10.123-5.847
			c0.595-0.352,0.784-0.274,1.101,0.303c0.793,1.44,0.831,1.424-0.544,2.215c-3.619,2.085-7.231,4.181-10.868,6.233
			c-0.565,0.319-0.607,0.592-0.287,1.083c0.301,0.462,0.557,0.954,0.909,1.566c-2.417,0-4.668-0.003-6.919,0.004
			c-0.448,0.001-0.589-0.173-0.361-0.566C48.339,69.428,49.482,67.474,50.652,65.469z"/>
		<path fill-rule="evenodd" clip-rule="evenodd" fill="#211A1B" d="M27.65,99.145c-2.789,0.006-2.653,0.251-2.65-2.625
			c0.003-2.835-0.185-2.653,2.63-2.65c2.816,0.003,2.655-0.223,2.649,2.629C30.273,99.292,30.523,99.167,27.65,99.145z
			 M28.954,96.58c0-1.396,0-1.396-1.083-1.396c-1.561-0.001-1.561-0.001-1.562,1.106c-0.001,1.537-0.001,1.537,1.13,1.538
			C28.954,97.829,28.954,97.829,28.954,96.58z"/>
		<path fill-rule="evenodd" clip-rule="evenodd" fill="#211A1B" d="M45.765,87.573c-0.023,2.905,0.343,2.558-2.565,2.544
			c-2.824-0.012-2.649,0.521-2.659-2.671c-0.009-2.951-0.049-2.42,2.496-2.463c0.566-0.009,1.133,0.021,1.698-0.007
			c0.715-0.034,1.057,0.268,1.034,0.993C45.751,86.504,45.765,87.039,45.765,87.573z M44.49,87.586
			c-0.021-1.521,0.209-1.394-1.21-1.396c-1.714-0.003-1.479-0.105-1.475,1.227c0.005,1.733-0.228,1.509,1.256,1.523
			C44.49,88.954,44.49,88.943,44.49,87.586z"/>
		<path fill-rule="evenodd" clip-rule="evenodd" fill="#211A1B" d="M12.143,102.893c0.503,0.001,1.009,0.029,1.51-0.006
			c0.766-0.056,1.111,0.293,1.11,1.037c-0.001,1.039,0.005,2.078-0.002,3.116c-0.004,0.69-0.326,1.024-1.054,1.001
			c-1.038-0.034-2.078-0.035-3.116,0c-0.763,0.026-1.108-0.288-1.097-1.049c0.015-1.007,0.027-2.016-0.004-3.021
			c-0.025-0.822,0.346-1.139,1.141-1.085C11.134,102.92,11.639,102.893,12.143,102.893z M13.465,105.494
			c-0.023-1.613,0.202-1.401-1.169-1.415c-1.485-0.015-1.485-0.005-1.485,1.188c-0.001,1.568-0.001,1.576,1.399,1.566
			C13.689,106.824,13.441,106.985,13.465,105.494z"/>
		<path fill-rule="evenodd" clip-rule="evenodd" fill="#211A1B" d="M71.638,69.613c0.028-2.729-0.415-2.585,2.558-2.576
			c2.991,0.01,2.55-0.247,2.583,2.63c0.006,0.564-0.018,1.129,0.004,1.692c0.026,0.65-0.338,0.922-0.913,0.935
			c-1.097,0.024-2.194,0.018-3.291,0.005c-0.638-0.007-0.982-0.309-0.948-0.994C71.661,70.742,71.639,70.178,71.638,69.613z
			 M74.272,71.006c1.51-0.024,1.31,0.2,1.322-1.271c0.012-1.384,0.003-1.384-1.198-1.384c-1.567-0.001-1.567-0.001-1.567,1.215
			C72.83,71.006,72.83,71.006,74.272,71.006z"/>
		<path fill-rule="evenodd" clip-rule="evenodd" fill="#211A1B" d="M61.262,78.647c-0.022,2.875,0.355,2.541-2.559,2.557
			c-0.408,0.003-0.816,0.001-1.225,0.001c-1.302-0.003-1.348-0.045-1.353-1.302c-0.003-0.974,0.024-1.948-0.009-2.92
			c-0.023-0.702,0.301-0.959,0.958-0.95c1.099,0.013,2.198,0.01,3.297,0.003c0.625-0.004,0.924,0.271,0.895,0.916
			C61.242,77.516,61.262,78.082,61.262,78.647z M58.673,79.934c0.725,0.009,1.522,0.273,1.432-1.022
			c-0.126-1.807,0.17-1.674-1.17-1.666c-1.801,0.01-1.613-0.236-1.625,1.169C57.297,79.938,57.306,79.938,58.673,79.934z"/>
		<path fill-rule="evenodd" clip-rule="evenodd" fill="#211A1B" d="M19.652,99.732c-0.488,1.133-0.88,2.074-1.299,3.003
			c-0.197,0.437-0.352,1.092-1.02,0.797c-0.58-0.256-0.316-0.799-0.134-1.231c0.57-1.356,1.156-2.705,1.724-4.062
			c0.14-0.333,0.291-0.666,0.688-0.688c0.458-0.026,0.632,0.356,0.781,0.702c0.605,1.409,1.187,2.828,1.801,4.233
			c0.186,0.426,0.26,0.811-0.218,1.041c-0.521,0.253-0.754-0.168-0.921-0.535C20.594,101.977,20.17,100.944,19.652,99.732z"/>
		<path fill-rule="evenodd" clip-rule="evenodd" fill="#211A1B" d="M53.325,84.909c0.031,0.403-0.035,0.68-0.354,0.785
			c-0.364,0.121-0.614-0.082-0.756-0.391c-0.378-0.822-0.734-1.655-1.101-2.482c-0.108-0.244-0.125-0.628-0.456-0.619
			c-0.265,0.006-0.275,0.368-0.371,0.585c-0.354,0.8-0.695,1.604-1.046,2.404c-0.167,0.381-0.444,0.674-0.873,0.482
			c-0.419-0.188-0.417-0.607-0.259-0.979c0.643-1.523,1.278-3.053,1.971-4.554c0.297-0.645,0.91-0.674,1.203-0.049
			c0.716,1.525,1.349,3.089,2.01,4.639C53.331,84.813,53.326,84.914,53.325,84.909z"/>
		<path fill-rule="evenodd" clip-rule="evenodd" fill="#211A1B" d="M66.22,72.891c-0.508,1.166-0.918,2.104-1.324,3.044
			c-0.188,0.434-0.34,0.977-0.971,0.742c-0.666-0.246-0.37-0.751-0.191-1.177c0.556-1.325,1.119-2.648,1.688-3.968
			c0.16-0.37,0.303-0.825,0.781-0.844c0.497-0.019,0.625,0.434,0.786,0.813c0.56,1.324,1.132,2.643,1.694,3.965
			c0.184,0.433,0.436,0.952-0.161,1.204c-0.594,0.252-0.807-0.28-0.996-0.721C67.119,75.005,66.718,74.058,66.22,72.891z"/>
		<path fill-rule="evenodd" clip-rule="evenodd" fill="#211A1B" d="M35.176,90.795c-0.504,1.153-0.915,2.082-1.314,3.016
			c-0.187,0.437-0.344,0.997-0.959,0.769c-0.623-0.231-0.381-0.758-0.197-1.196c0.58-1.386,1.162-2.77,1.756-4.149
			c0.135-0.313,0.283-0.651,0.715-0.65c0.437,0.001,0.574,0.353,0.708,0.661c0.609,1.407,1.198,2.823,1.8,4.232
			c0.168,0.396,0.327,0.832-0.145,1.074c-0.526,0.27-0.805-0.126-0.993-0.56C36.117,93.001,35.695,92.008,35.176,90.795z"/>
		<path fill-rule="evenodd" clip-rule="evenodd" fill="#211A1B" d="M4.132,108.68c-0.52,1.197-0.956,2.199-1.388,3.202
			c-0.169,0.393-0.388,0.806-0.882,0.629c-0.55-0.197-0.464-0.664-0.274-1.104c0.607-1.407,1.218-2.813,1.818-4.223
			c0.141-0.332,0.294-0.631,0.704-0.662c0.498-0.037,0.615,0.358,0.762,0.699c0.606,1.407,1.19,2.824,1.813,4.225
			c0.194,0.438,0.229,0.821-0.231,1.039c-0.508,0.241-0.738-0.161-0.909-0.546C5.089,110.912,4.65,109.879,4.132,108.68z"/>
		<path fill-rule="evenodd" clip-rule="evenodd" fill="#211A1B" d="M109.142,51.927c-2.68,0.001-2.568,0.272-2.553-2.536
			c0.015-2.865-0.309-2.711,2.674-2.708c2.783,0.003,2.602-0.19,2.603,2.594C111.868,52.271,112.024,51.914,109.142,51.927z
			 M109.248,47.96c-1.341,0-1.341,0-1.342,1.127c-0.001,1.54-0.001,1.54,1.123,1.541c1.528,0.001,1.528,0.001,1.528-1.229
			C110.557,47.96,110.557,47.96,109.248,47.96z"/>
		<path fill-rule="evenodd" clip-rule="evenodd" fill="#211A1B" d="M93.706,55.694c0.503,0,1.009,0.033,1.509-0.008
			c0.766-0.062,1.112,0.272,1.108,1.024c-0.005,1.037-0.001,2.075-0.001,3.113c0,0.681-0.272,1.042-1.022,1.014
			c-1.068-0.04-2.139-0.032-3.207-0.002c-0.74,0.021-1.013-0.315-0.997-1.023c0.023-1.037,0.022-2.076,0-3.113
			c-0.015-0.711,0.271-1.052,1.007-1.011C92.635,55.719,93.171,55.694,93.706,55.694z M95.067,58.307
			c-0.021-1.505,0.223-1.438-1.086-1.43c-1.791,0.012-1.591-0.229-1.59,1.199c0.001,1.796-0.216,1.564,1.217,1.566
			C95.28,59.645,95.043,59.849,95.067,58.307z"/>
		<path fill-rule="evenodd" clip-rule="evenodd" fill="#211A1B" d="M101.234,52.527c-0.529,1.22-0.961,2.224-1.401,3.225
			c-0.166,0.378-0.359,0.821-0.871,0.631c-0.552-0.206-0.456-0.688-0.274-1.117c0.61-1.441,1.235-2.875,1.848-4.315
			c0.13-0.307,0.284-0.562,0.664-0.565c0.366-0.004,0.556,0.195,0.693,0.521c0.63,1.501,1.262,3.001,1.926,4.486
			c0.195,0.436,0.11,0.753-0.265,0.96c-0.464,0.256-0.72-0.109-0.875-0.449C102.203,54.854,101.769,53.785,101.234,52.527z"/>
		<path fill-rule="evenodd" clip-rule="evenodd" fill="#E64820" d="M57.875,10.451c-0.297,6.219-0.611,12.658-0.91,19.098
			c-0.101,2.168-0.168,4.337-0.247,6.507c-0.065,1.801-0.879,3.046-2.253,3.431c-1.75,0.488-3.431-0.49-3.784-2.273
			c-0.355-1.796-0.256-3.634-0.36-5.451c-0.204-3.547-0.294-7.101-0.448-10.651c-0.175-4.021-0.405-8.041-0.542-12.063
			c-0.111-3.258,2.754-5.42,5.729-4.355c1.69,0.604,2.632,1.864,2.806,3.652C57.926,8.967,57.875,9.601,57.875,10.451z"/>
		<path fill-rule="evenodd" clip-rule="evenodd" fill="#E64820" d="M53.673,44.895c2.407,0.024,4.365,2.011,4.328,4.393
			c-0.036,2.33-2.159,4.392-4.459,4.331c-2.366-0.063-4.401-2.163-4.323-4.46C49.302,46.719,51.232,44.87,53.673,44.895z"/>
		<path fill-rule="evenodd" clip-rule="evenodd" fill="#E64820" d="M28.954,96.58c0,1.249,0,1.249-1.515,1.248
			c-1.131-0.001-1.131-0.001-1.13-1.538c0-1.107,0-1.107,1.562-1.106C28.955,95.185,28.955,95.185,28.954,96.58z"/>
		<path fill-rule="evenodd" clip-rule="evenodd" fill="#E64820" d="M44.49,87.586c0,1.357,0,1.368-1.429,1.354
			c-1.484-0.015-1.251,0.21-1.256-1.523c-0.004-1.332-0.239-1.229,1.475-1.227C44.699,86.192,44.469,86.064,44.49,87.586z"/>
		<path fill-rule="evenodd" clip-rule="evenodd" fill="#E64820" d="M13.465,105.494c-0.024,1.491,0.224,1.33-1.255,1.339
			c-1.4,0.01-1.4,0.002-1.399-1.566c0-1.192,0-1.202,1.485-1.188C13.667,104.093,13.442,103.881,13.465,105.494z"/>
		<path fill-rule="evenodd" clip-rule="evenodd" fill="#E64820" d="M74.272,71.006c-1.443,0-1.443,0-1.443-1.439
			c0-1.216,0-1.216,1.567-1.215c1.201,0,1.21,0,1.198,1.384C75.582,71.206,75.783,70.981,74.272,71.006z"/>
		<path fill-rule="evenodd" clip-rule="evenodd" fill="#E64820" d="M58.673,79.934c-1.367,0.005-1.376,0.005-1.363-1.52
			c0.012-1.405-0.176-1.159,1.625-1.169c1.34-0.008,1.044-0.141,1.17,1.666C60.196,80.207,59.398,79.942,58.673,79.934z"/>
		<path fill-rule="evenodd" clip-rule="evenodd" fill="#E64820" d="M109.248,47.96c1.31,0,1.31,0,1.309,1.439
			c0,1.229,0,1.229-1.528,1.229c-1.124-0.001-1.124-0.001-1.123-1.541C107.907,47.96,107.907,47.96,109.248,47.96z"/>
		<path fill-rule="evenodd" clip-rule="evenodd" fill="#E64820" d="M95.067,58.307c-0.024,1.542,0.212,1.338-1.459,1.336
			c-1.433-0.002-1.216,0.229-1.217-1.566c-0.001-1.429-0.2-1.188,1.59-1.199C95.29,56.869,95.046,56.802,95.067,58.307z"/>
	</g>
</g>
<g id="Layer_2">
</g>
<g id="Layer_2_copy">
</g>
</svg>
