<?xml version="1.0" encoding="utf-8"?>
<!-- Generator: Adobe Illustrator 16.0.0, SVG Export Plug-In . SVG Version: 6.00 Build 0)  -->
<!DOCTYPE svg PUBLIC "-//W3C//DTD SVG 1.1//EN" "http://www.w3.org/Graphics/SVG/1.1/DTD/svg11.dtd">
<svg version="1.1" xmlns="http://www.w3.org/2000/svg" xmlns:xlink="http://www.w3.org/1999/xlink" x="0px" y="0px"
	 width="113.39px" height="113.39px" viewBox="0 0 113.39 113.39" enable-background="new 0 0 113.39 113.39" xml:space="preserve">
<g id="Layer_1">
	<g>
		<path fill-rule="evenodd" clip-rule="evenodd" fill="#FEFEFE" d="M0.19,109.799c0-36.253,0.002-72.507-0.018-108.76
			c0-0.708,0.16-0.868,0.868-0.868c37.229,0.021,74.458,0.021,111.688,0c0.708,0,0.87,0.16,0.869,0.868
			c-0.024,14.269-0.018,28.536-0.018,42.805c-4.167,2.44-8.316,4.912-12.517,7.294c-0.82,0.465-0.968,0.747-0.464,1.57
			c1.984,3.239,3.884,6.529,5.841,9.785c0.305,0.507,0.322,0.745-0.257,1.069c-2.179,1.224-4.336,2.487-6.466,3.795
			c-0.706,0.435-1.019,0.313-1.418-0.389c-1.867-3.276-3.803-6.513-5.684-9.782c-0.342-0.595-0.563-0.765-1.254-0.357
			c-6.353,3.745-12.734,7.44-19.108,11.149c-2.462,1.433-2.463,1.432-2.291,4.362c-0.012,2.893-0.024,5.784-0.034,8.676
			c-0.001,0.247-0.02,0.487,0.235,0.669c0.686,0.488,1.353,1.003,2.027,1.507c0.234,0.39,0.568,0.684,0.918,0.963
			c0.479,0.732,1.02,1.433,1.427,2.203c2.113,3.992,2.455,8.075,0.722,12.328c-2.273,5.582-8.943,9.36-14.732,8.273
			c-4.243-0.796-7.535-2.956-9.839-6.633c-0.468-0.747-0.646-1.636-1.23-2.312c0.085-0.466-0.399-0.776-0.34-1.235
			c0.007-0.063,0.032-0.127,0.021-0.186c-1.22-6.339,0.662-11.43,6.085-15.083c0.291-0.195,0.384-0.38,0.291-0.691
			c0-0.994,0-1.989,0-2.994c-0.335-0.01-0.54,0.21-0.776,0.348c-17.875,10.398-35.75,20.8-53.627,31.195
			C0.819,109.537,0.568,109.812,0.19,109.799z M68.59,60.476c0-6.93,0.004-13.858-0.002-20.787
			c-0.002-2.606-1.309-4.547-3.553-5.181c-1.508-0.426-3.061-0.426-4.569,0.001c-2.274,0.643-3.555,2.579-3.556,5.277
			c-0.003,13.89-0.006,27.778,0.012,41.668c0,0.635-0.181,1-0.733,1.345c-4.348,2.72-6.583,8.03-5.462,12.873
			c1.215,5.255,5.326,9,10.568,9.628c5.769,0.691,11.108-2.656,13.064-8.188c1.872-5.295-0.24-11.325-5.053-14.318
			c-0.555-0.345-0.732-0.711-0.73-1.344C68.598,74.459,68.59,67.467,68.59,60.476z M27.972,38.776
			c5.858,0,11.717-0.012,17.575,0.006c1.823,0.006,3.545-0.31,5.187-1.145c3.11-1.581,4.886-4.935,4.265-8.27
			c-0.414-2.222-1.689-3.886-3.555-5.112c-0.364-0.238-0.586-0.426-0.518-0.955c0.362-2.791-1.034-5.34-3.628-6.514
			c-0.703-0.318-0.842-0.664-0.805-1.375c0.198-3.799-1.565-6.646-4.7-8.527c-3.53-2.118-7.234-1.6-10.695,0.229
			c-3.309,1.748-4.862,4.773-5.229,8.44c-0.036,0.36,0.087,0.808-0.564,0.662c-2.099-0.467-4.056-0.008-5.89,1.018
			c-0.437,0.244-0.679,0.194-1.063-0.076c-3.462-2.439-7.829-2.365-11.249,0.159c-4.695,3.466-6.738,9.832-5.051,15.404
			c1.001,3.306,3.995,6.244,8.252,6.104C16.187,38.63,22.082,38.776,27.972,38.776z M74.424,14.266
			c-0.016,6.769,5.462,12.297,12.237,12.347c6.707,0.05,12.325-5.519,12.361-12.252C99.058,7.563,93.514,1.994,86.71,1.993
			C79.924,1.992,74.44,7.47,74.424,14.266z M11.491,48.179c-0.908,1.942-1.773,3.752-2.597,5.581
			c-0.347,0.769-0.693,1.557-0.885,2.372c-0.348,1.479-0.203,2.9,1.016,3.989c1.073,0.958,2.331,1.199,3.687,0.721
			c1.948-0.687,2.909-2.748,2.078-4.982C13.832,53.283,12.629,50.798,11.491,48.179z M40.657,48.916
			c-1.147,2.528-2.189,4.775-3.187,7.042c-0.464,1.055-0.647,2.18-0.338,3.313c0.52,1.905,2.395,2.982,4.331,2.537
			c1.922-0.441,3.157-2.395,2.652-4.44C43.4,54.461,41.659,51.974,40.657,48.916z M21.05,59.583
			c-1.175,2.65-2.265,5.076-3.324,7.516c-0.25,0.577-0.333,1.212-0.333,1.846c0,1.792,1.355,3.369,3.098,3.611
			c1.787,0.249,3.5-0.834,3.988-2.575c0.317-1.132,0.126-2.252-0.333-3.31C23.148,64.373,21.998,62.142,21.05,59.583z
			 M26.477,41.064c-1.197,2.668-2.314,5.066-3.343,7.502c-0.379,0.897-0.448,1.898-0.18,2.864c0.527,1.891,2.465,3.021,4.318,2.553
			c1.95-0.493,3.177-2.394,2.682-4.418C29.237,46.64,27.483,44.138,26.477,41.064z M87.364,33.254c0-1.256-0.004-2.511,0.002-3.766
			c0.002-0.456-0.132-0.872-0.625-0.889c-0.541-0.018-0.718,0.416-0.719,0.9c-0.005,2.447-0.009,4.895-0.002,7.343
			c0.001,0.464,0.127,0.937,0.689,0.936c0.579-0.001,0.658-0.474,0.657-0.947C87.363,35.639,87.365,34.446,87.364,33.254z
			 M67.063,2.223c-0.417-0.011-0.667,0.091-0.762,0.413c-0.148,0.502,0.165,0.748,0.542,0.966c2.064,1.189,4.125,2.385,6.189,3.572
			c0.443,0.255,0.957,0.555,1.299-0.067c0.356-0.648-0.241-0.867-0.665-1.113c-2.005-1.166-4.014-2.326-6.023-3.483
			C67.429,2.387,67.2,2.289,67.063,2.223z M98.785,33.986c-0.042-0.105-0.091-0.291-0.183-0.451
			c-1.22-2.119-2.449-4.233-3.669-6.354c-0.245-0.426-0.582-0.753-1.058-0.49c-0.562,0.312-0.329,0.792-0.081,1.222
			c1.178,2.034,2.353,4.072,3.537,6.104c0.124,0.212,0.292,0.403,0.465,0.581c0.172,0.178,0.392,0.184,0.607,0.067
			C98.641,34.537,98.788,34.348,98.785,33.986z M75.286,34.742c0.352-0.063,0.565-0.302,0.747-0.621
			c1.181-2.068,2.374-4.129,3.567-6.19c0.247-0.426,0.505-0.907-0.043-1.227c-0.525-0.307-0.854,0.086-1.11,0.538
			c-0.709,1.255-1.434,2.501-2.153,3.751c-0.5,0.868-1.022,1.726-1.496,2.608C74.498,34.163,74.757,34.729,75.286,34.742z
			 M67.123,26.311c0.081-0.038,0.312-0.127,0.525-0.248c0.871-0.494,1.735-0.999,2.603-1.499c1.22-0.702,2.446-1.394,3.656-2.112
			c0.363-0.215,0.689-0.527,0.392-0.997c-0.273-0.431-0.667-0.388-1.063-0.147c-0.053,0.032-0.115,0.05-0.169,0.081
			c-2.031,1.176-4.062,2.351-6.09,3.531c-0.187,0.108-0.361,0.242-0.526,0.382c-0.229,0.194-0.2,0.469-0.11,0.696
			C66.44,26.247,66.676,26.36,67.123,26.311z M107.154,25.692c-0.056-0.387-0.332-0.574-0.64-0.751
			c-2.063-1.188-4.124-2.382-6.186-3.573c-0.436-0.252-0.929-0.439-1.231,0.1c-0.272,0.486,0.101,0.8,0.516,1.039
			c2.063,1.188,4.121,2.387,6.186,3.571c0.211,0.121,0.46,0.224,0.698,0.241C106.907,26.349,107.129,26.106,107.154,25.692z
			 M99.719,7.476c0.157-0.07,0.393-0.153,0.606-0.276c2.066-1.188,4.125-2.389,6.194-3.574c0.442-0.254,0.87-0.55,0.553-1.095
			c-0.317-0.546-0.801-0.309-1.229-0.061c-2.063,1.193-4.128,2.385-6.19,3.581c-0.188,0.109-0.383,0.229-0.525,0.388
			c-0.183,0.206-0.166,0.478-0.042,0.709C99.193,7.35,99.402,7.442,99.719,7.476z M105.639,14.957c1.196,0,2.393-0.005,3.588,0.002
			c0.508,0.003,1.008-0.047,0.987-0.703c-0.019-0.575-0.471-0.653-0.95-0.652c-2.424,0.006-4.848,0.011-7.271-0.004
			c-0.534-0.003-1.015,0.125-1.004,0.708c0.009,0.52,0.463,0.664,0.968,0.655C103.184,14.943,104.412,14.957,105.639,14.957z
			 M67.843,14.942c1.197,0,2.394-0.003,3.59,0.001c0.477,0.001,0.947-0.077,0.943-0.661c-0.004-0.572-0.466-0.67-0.944-0.67
			c-2.425,0.001-4.85,0.002-7.275-0.003c-0.49-0.002-0.947,0.144-0.947,0.674c0,0.533,0.445,0.673,0.948,0.665
			C65.386,14.931,66.615,14.942,67.843,14.942z"/>
		<path fill-rule="evenodd" clip-rule="evenodd" fill="#99CAEE" d="M49.456,98.016c0.583,0.676,0.762,1.564,1.23,2.312
			c2.304,3.677,5.596,5.837,9.839,6.633c5.789,1.087,12.458-2.691,14.732-8.273c1.733-4.253,1.391-8.336-0.722-12.328
			c-0.407-0.771-0.948-1.471-1.426-2.203c0.194-0.103,0.393-0.197,0.582-0.309c8.316-4.854,16.626-9.721,24.949-14.563
			c4.969-2.892,9.959-5.748,14.94-8.62c0,7.244,0,14.489,0,21.733c-0.196,0.094-0.399,0.176-0.586,0.284
			c-15.335,8.917-30.673,17.828-45.996,26.765c-2.314,1.35-4.697,2.587-6.905,4.117c-10.122,0.005-20.243,0.012-30.364,0.014
			c-2.294,0.001-4.589-0.018-6.883-0.027c0.184-0.322,0.535-0.411,0.825-0.58c5.293-3.083,10.586-6.167,15.885-9.241
			C42.85,101.815,46.155,99.919,49.456,98.016z"/>
		<path fill-rule="evenodd" clip-rule="evenodd" fill="#818181" d="M113.579,86.932c0,8.882,0,17.765,0,26.646
			c-11.792,0-23.583,0.001-35.375-0.001c-3.458-0.001-6.917-0.015-10.375-0.022c0.181-0.121,0.355-0.252,0.543-0.361
			c10.639-6.192,21.277-12.387,31.919-18.573C104.716,92.049,109.15,89.494,113.579,86.932z"/>
		<path fill-rule="evenodd" clip-rule="evenodd" fill="#6185A2" d="M55.511,80.82c0.093,0.312,0,0.496-0.291,0.691
			c-5.423,3.653-7.305,8.744-6.085,15.083c0.011,0.059-0.013,0.123-0.021,0.186c-2.202,1.26-4.413,2.506-6.605,3.782
			c-7.418,4.319-14.83,8.65-22.245,12.978c-0.376,0.013-0.752,0.036-1.128,0.036c-6.315,0.002-12.631,0.002-18.946,0.002
			c0-0.252,0-0.504,0-0.756c0.344,0.022,0.577-0.218,0.841-0.371c14.794-8.606,29.583-17.22,44.378-25.823
			C48.767,84.676,52.144,82.756,55.511,80.82z"/>
		<path fill-rule="evenodd" clip-rule="evenodd" fill="#040507" d="M113.579,86.932c-4.429,2.563-8.863,5.117-13.287,7.688
			c-10.643,6.187-21.28,12.381-31.919,18.573c-0.188,0.109-0.362,0.24-0.543,0.361c-2.579,0.003-5.159,0.005-7.738,0.008
			c2.208-1.53,4.591-2.768,6.905-4.117c15.323-8.937,30.661-17.848,45.996-26.765c0.187-0.108,0.391-0.19,0.586-0.284
			C113.579,83.908,113.579,85.42,113.579,86.932z"/>
		<path fill-rule="evenodd" clip-rule="evenodd" fill="#0A0E10" d="M113.579,60.663c-4.98,2.872-9.971,5.729-14.94,8.62
			c-8.323,4.843-16.633,9.709-24.949,14.563c-0.189,0.111-0.388,0.206-0.582,0.309c-0.351-0.279-0.685-0.573-0.918-0.964
			c0.119-0.035,0.25-0.047,0.354-0.107c8.262-4.812,16.518-9.635,24.792-14.427c0.596-0.346,0.407-0.611,0.168-1.01
			c-1.483-2.475-3.013-4.924-4.404-7.449c-0.488-0.886-0.832-0.867-1.607-0.412c-7.165,4.206-14.352,8.375-21.532,12.555
			c-0.172-2.931-0.172-2.93,2.291-4.362c6.374-3.709,12.755-7.404,19.108-11.149c0.691-0.407,0.913-0.237,1.254,0.357
			c1.881,3.27,3.817,6.506,5.684,9.782c0.4,0.702,0.713,0.823,1.418,0.389c2.129-1.308,4.287-2.571,6.466-3.795
			c0.579-0.324,0.562-0.563,0.257-1.069c-1.958-3.256-3.857-6.546-5.841-9.785c-0.504-0.823-0.355-1.105,0.464-1.57
			c4.2-2.382,8.35-4.854,12.517-7.294c0,1.071,0,2.142,0,3.213c-0.093,0.009-0.203-0.011-0.276,0.032
			c-3.497,2.031-6.984,4.078-10.49,6.094c-0.548,0.315-0.269,0.583-0.082,0.9c1.312,2.219,2.622,4.439,3.939,6.654
			c0.351,0.591,0.663,1.573,1.11,1.645c0.558,0.09,1.228-0.594,1.864-0.915c1.332-0.672,2.494-1.656,3.934-2.126
			C113.579,59.781,113.579,60.223,113.579,60.663z"/>
		<path fill-rule="evenodd" clip-rule="evenodd" fill="#0B0C0C" d="M55.511,80.82c-3.368,1.936-6.745,3.855-10.102,5.808
			c-14.795,8.604-29.584,17.217-44.378,25.823c-0.264,0.153-0.497,0.394-0.841,0.371c0-1.008,0-2.016,0-3.023
			c0.378,0.013,0.629-0.262,0.918-0.43C18.986,98.974,36.86,88.572,54.735,78.174c0.236-0.138,0.441-0.357,0.776-0.348
			C55.511,78.831,55.511,79.826,55.511,80.82z"/>
		<path fill-rule="evenodd" clip-rule="evenodd" fill="#6084A1" d="M113.579,59.341c-1.44,0.47-2.603,1.454-3.934,2.126
			c-0.636,0.321-1.307,1.005-1.864,0.915c-0.447-0.071-0.759-1.054-1.11-1.645c-1.318-2.215-2.627-4.436-3.939-6.654
			c-0.187-0.317-0.466-0.585,0.082-0.9c3.505-2.016,6.993-4.063,10.49-6.094c0.073-0.043,0.183-0.023,0.276-0.032
			C113.579,51.151,113.579,55.246,113.579,59.341z"/>
		<path fill-rule="evenodd" clip-rule="evenodd" fill="#261D1F" d="M68.59,60.476c0,6.991,0.008,13.983-0.014,20.975
			c-0.001,0.633,0.176,0.999,0.73,1.344c4.813,2.993,6.925,9.023,5.053,14.318c-1.956,5.531-7.296,8.879-13.064,8.188
			c-5.242-0.628-9.354-4.373-10.568-9.628c-1.12-4.843,1.115-10.153,5.462-12.873c0.553-0.345,0.734-0.71,0.733-1.345
			c-0.018-13.89-0.016-27.778-0.012-41.668c0.001-2.698,1.281-4.635,3.556-5.277c1.508-0.427,3.061-0.427,4.569-0.001
			c2.245,0.634,3.551,2.574,3.553,5.181C68.594,46.617,68.59,53.546,68.59,60.476z M61.783,41.211
			c0.626-0.097,0.791,0.172,0.788,0.785c-0.007,1.831,0.02,1.831-1.815,1.832c-0.283,0-0.566,0-0.85,0.005
			c-0.157,0.004-0.365,0.018-0.372,0.199c-0.022,0.627-0.128,1.291,0.038,1.871c0.122,0.425,0.72,0.164,1.104,0.195
			c0.438,0.036,0.881,0.023,1.322,0.005c0.392-0.018,0.534,0.122,0.57,0.535c0.168,1.973,0.183,1.971-1.787,1.972
			c-0.283,0.001-0.567,0-0.85,0.006c-0.157,0.003-0.371,0.013-0.38,0.192c-0.03,0.626-0.138,1.284,0.015,1.87
			c0.12,0.462,0.715,0.221,1.093,0.225c2.095,0.023,2.081,0.011,1.91,2.048c-0.035,0.414-0.175,0.548-0.568,0.536
			c-0.66-0.018-1.322,0.006-1.983-0.007c-0.339-0.007-0.532,0.468-0.532,0.468s-0.115,1.817,1.548,1.817
			c0.346,0,0.692,0.007,1.039,0c0.289-0.007,0.435,0.072,0.492,0.406c0.326,1.897,0.083,2.207-1.812,2.208
			c-0.126,0-0.255,0.019-0.377-0.003c-1.047-0.188-0.879,0.532-0.886,1.153c-0.007,0.641-0.118,1.295,0.909,1.143
			c0.523-0.078,1.069,0.001,1.604-0.019c0.396-0.014,0.532,0.129,0.566,0.539c0.165,1.969,0.179,1.968-1.789,1.97
			c-0.094,0-0.191,0.015-0.283-0.003c-0.872-0.162-1.024,0.251-1.02,1.047c0.032,5.981-0.023,11.964,0.05,17.944
			c0.016,1.254-0.308,1.917-1.469,2.505c-3.766,1.906-5.729,6.426-4.838,10.512c0.967,4.435,5.223,7.979,10.131,7.675
			c4.924-0.305,9.257-4.506,9.145-9.795c-0.085-4.002-2.051-6.979-5.676-8.754c-0.648-0.317-0.824-0.675-0.822-1.358
			c0.024-7.241,0.015-14.482,0.015-21.723c0-7.053,0-14.104-0.002-21.156c0-0.409,0.005-0.821-0.042-1.227
			c-0.114-1.001-1.084-1.936-2.087-1.985c-0.754-0.037-1.513-0.045-2.266,0c-1.499,0.091-2.268,1.364-2.104,3.682"/>
		<path fill-rule="evenodd" clip-rule="evenodd" fill="#0B0C0C" d="M27.972,38.776c-5.89,0-11.785-0.146-17.668,0.049
			c-4.257,0.141-7.25-2.798-8.252-6.104c-1.688-5.572,0.355-11.938,5.051-15.404c3.42-2.524,7.787-2.599,11.249-0.159
			c0.385,0.271,0.627,0.32,1.063,0.076c1.834-1.025,3.791-1.484,5.89-1.018c0.651,0.146,0.528-0.302,0.564-0.662
			c0.367-3.667,1.921-6.692,5.229-8.44c3.461-1.829,7.166-2.348,10.695-0.229c3.134,1.881,4.898,4.729,4.7,8.527
			c-0.037,0.711,0.102,1.057,0.805,1.375c2.594,1.174,3.99,3.723,3.628,6.514c-0.068,0.529,0.154,0.717,0.518,0.955
			c1.866,1.227,3.141,2.891,3.555,5.112c0.621,3.335-1.155,6.688-4.265,8.27c-1.641,0.835-3.364,1.15-5.187,1.145
			C39.688,38.765,33.83,38.776,27.972,38.776z M29.035,20.267c-1.053-0.407-1.979-0.768-2.907-1.123
			c-1.972-0.758-3.856-0.583-5.662,0.52c-1.741,1.063-1.72,1.023-3.345-0.152c-2.453-1.775-5.048-2.074-7.738-0.536
			c-4.903,2.804-6.53,9.564-4.265,14.26c0.837,1.736,2.235,2.891,4.282,2.893c12.092,0.014,24.184,0.004,36.276,0.011
			c1.336,0.001,2.617-0.188,3.816-0.813c2.928-1.525,3.882-4.841,2.102-7.374c-0.647-0.921-1.533-1.559-2.545-2.031
			c-1.381-0.646-1.381-0.647-0.916-2.062c0.229-0.696,0.338-1.396,0.148-2.125c-0.515-1.978-1.866-2.909-4.413-3.025
			c-1.045-0.048-1.071-0.059-0.66-1.034c0.583-1.386,0.944-2.787,0.51-4.287c-0.979-3.388-3.583-5.196-7.46-5.069
			c-6.038,0.197-8.471,5.567-7.655,9.669C28.748,18.71,28.878,19.436,29.035,20.267z"/>
		<path fill-rule="evenodd" clip-rule="evenodd" fill="#6084A1" d="M69.961,72.341c7.181-4.18,14.367-8.349,21.532-12.555
			c0.775-0.455,1.119-0.474,1.607,0.412c1.391,2.525,2.921,4.975,4.404,7.449c0.238,0.398,0.428,0.664-0.168,1.01
			c-8.274,4.792-16.53,9.615-24.792,14.427c-0.104,0.061-0.235,0.072-0.354,0.107c-0.674-0.503-1.341-1.018-2.027-1.506
			c-0.255-0.182-0.236-0.422-0.235-0.669C69.937,78.125,69.95,75.233,69.961,72.341z M81.168,76.359
			c-0.335-0.594-0.523-1.031-0.802-1.399c-0.475-0.628-0.319-0.949,0.351-1.327c3.55-2.003,7.072-4.056,10.604-6.093
			c1.504-0.867,1.471-0.85,0.607-2.387c-0.344-0.613-0.632-0.582-1.167-0.27c-3.493,2.042-7.003,4.053-10.506,6.075
			c-1.61,0.93-1.608,0.931-2.583-0.723c-0.089-0.151-0.193-0.294-0.369-0.559c-1.208,2.091-2.366,4.09-3.518,6.091
			c-0.222,0.386-0.101,0.592,0.352,0.592C76.423,76.359,78.71,76.359,81.168,76.359z"/>
		<path fill-rule="evenodd" clip-rule="evenodd" fill="#0B0C0C" d="M74.424,14.266C74.44,7.47,79.924,1.992,86.71,1.993
			c6.804,0.001,12.348,5.57,12.312,12.367c-0.036,6.733-5.654,12.302-12.361,12.252C79.886,26.563,74.408,21.034,74.424,14.266z
			 M77.069,14.279c-0.016,5.273,4.326,9.671,9.584,9.708c5.211,0.036,9.708-4.396,9.727-9.587c0.019-5.355-4.428-9.854-9.698-9.812
			C81.403,4.632,77.085,8.985,77.069,14.279z"/>
		<path fill-rule="evenodd" clip-rule="evenodd" fill="#0A0E10" d="M22.845,113.549c-0.86-0.003-1.72-0.006-2.58-0.009
			c7.415-4.327,14.826-8.658,22.245-12.978c2.192-1.276,4.403-2.522,6.605-3.782c-0.059,0.459,0.425,0.77,0.34,1.235
			c-3.3,1.903-6.605,3.8-9.901,5.712c-5.298,3.074-10.591,6.158-15.885,9.241C23.379,113.138,23.029,113.227,22.845,113.549z"/>
		<path fill-rule="evenodd" clip-rule="evenodd" fill="#282629" d="M11.491,48.179c1.138,2.619,2.341,5.104,3.299,7.681
			c0.831,2.234-0.13,4.296-2.078,4.982c-1.355,0.479-2.614,0.237-3.687-0.721c-1.219-1.089-1.363-2.511-1.016-3.989
			c0.192-0.815,0.538-1.604,0.885-2.372C9.718,51.931,10.583,50.121,11.491,48.179z M11.484,51.332
			c-0.603,1.266-1.095,2.275-1.566,3.295c-0.37,0.8-0.688,1.618-0.769,2.511c-0.139,1.53,0.957,2.695,2.486,2.626
			c1.588-0.071,2.518-1.421,2.098-3.187C13.311,54.799,12.299,53.265,11.484,51.332z"/>
		<path fill-rule="evenodd" clip-rule="evenodd" fill="#282629" d="M40.657,48.916c1.001,3.058,2.743,5.545,3.458,8.451
			c0.504,2.046-0.73,3.999-2.652,4.44c-1.937,0.445-3.812-0.632-4.331-2.537c-0.309-1.133-0.125-2.258,0.338-3.313
			C38.468,53.691,39.51,51.444,40.657,48.916z M40.588,52.278c-0.554,1.146-1.005,2.038-1.418,2.947
			c-0.427,0.94-0.851,1.884-0.902,2.945c-0.083,1.729,1.396,2.938,3.029,2.462c1.243-0.362,1.909-1.579,1.55-3.104
			C42.423,55.726,41.418,54.162,40.588,52.278z"/>
		<path fill-rule="evenodd" clip-rule="evenodd" fill="#282629" d="M21.05,59.583c0.947,2.559,2.098,4.79,3.096,7.088
			c0.46,1.058,0.651,2.178,0.333,3.31c-0.488,1.741-2.201,2.824-3.988,2.575c-1.742-0.242-3.098-1.819-3.098-3.611
			c0-0.634,0.082-1.269,0.333-1.846C18.785,64.659,19.875,62.233,21.05,59.583z M18.629,68.857c-0.03,1.491,0.986,2.493,2.469,2.433
			c1.401-0.057,2.328-1.163,2.2-2.602c-0.128-1.448-0.877-2.663-1.469-3.935c-0.256-0.551-0.383-1.508-0.878-1.516
			c-0.514-0.008-0.629,0.953-0.89,1.492C19.425,66.045,18.675,67.333,18.629,68.857z"/>
		<path fill-rule="evenodd" clip-rule="evenodd" fill="#282629" d="M26.477,41.064c1.006,3.073,2.76,5.575,3.477,8.501
			c0.496,2.024-0.731,3.925-2.682,4.418c-1.853,0.469-3.791-0.662-4.318-2.553c-0.269-0.966-0.2-1.967,0.18-2.864
			C24.163,46.131,25.28,43.732,26.477,41.064z M26.414,44.395c-0.506,1.037-0.933,1.866-1.318,2.714
			c-0.454,0.999-0.938,1.988-0.997,3.12c-0.076,1.441,0.891,2.539,2.278,2.553c1.445,0.015,2.435-0.99,2.378-2.446
			c-0.016-0.404-0.065-0.825-0.198-1.203C28.01,47.567,27.216,46.114,26.414,44.395z"/>
		<path fill-rule="evenodd" clip-rule="evenodd" fill="#282629" d="M87.365,33.254c0,1.192-0.001,2.385,0.001,3.577
			c0.001,0.474-0.078,0.946-0.657,0.947c-0.562,0.001-0.688-0.472-0.689-0.936c-0.007-2.448-0.003-4.896,0.002-7.343
			c0.001-0.484,0.178-0.918,0.719-0.9c0.493,0.017,0.627,0.433,0.625,0.889C87.36,30.743,87.364,31.998,87.365,33.254z"/>
		<path fill-rule="evenodd" clip-rule="evenodd" fill="#252326" d="M67.063,2.223c0.137,0.066,0.366,0.164,0.58,0.287
			c2.01,1.157,4.018,2.317,6.023,3.483c0.423,0.246,1.021,0.465,0.665,1.113c-0.342,0.622-0.855,0.322-1.299,0.067
			c-2.065-1.188-4.125-2.383-6.189-3.572c-0.376-0.218-0.689-0.464-0.542-0.966C66.396,2.313,66.646,2.212,67.063,2.223z"/>
		<path fill-rule="evenodd" clip-rule="evenodd" fill="#282629" d="M98.785,33.986c0.003,0.361-0.144,0.551-0.381,0.679
			c-0.215,0.116-0.435,0.11-0.607-0.067c-0.172-0.178-0.341-0.369-0.465-0.581c-1.185-2.031-2.359-4.069-3.537-6.104
			c-0.249-0.43-0.481-0.91,0.081-1.222c0.476-0.263,0.813,0.064,1.058,0.49c1.22,2.12,2.449,4.234,3.669,6.354
			C98.694,33.695,98.743,33.881,98.785,33.986z"/>
		<path fill-rule="evenodd" clip-rule="evenodd" fill="#252326" d="M75.286,34.742c-0.529-0.013-0.789-0.579-0.487-1.141
			c0.474-0.883,0.996-1.74,1.496-2.608c0.719-1.25,1.444-2.496,2.153-3.751c0.255-0.452,0.585-0.845,1.11-0.538
			c0.548,0.319,0.29,0.801,0.043,1.227c-1.193,2.062-2.387,4.122-3.567,6.19C75.851,34.44,75.638,34.679,75.286,34.742z"/>
		<path fill-rule="evenodd" clip-rule="evenodd" fill="#252326" d="M67.123,26.311c-0.447,0.05-0.683-0.063-0.781-0.313
			c-0.09-0.228-0.119-0.502,0.11-0.696c0.165-0.14,0.339-0.273,0.526-0.382c2.028-1.181,4.059-2.355,6.09-3.531
			c0.054-0.031,0.116-0.049,0.169-0.081c0.396-0.24,0.79-0.283,1.063,0.147c0.297,0.47-0.029,0.782-0.392,0.997
			c-1.21,0.719-2.437,1.41-3.656,2.112c-0.868,0.5-1.732,1.005-2.603,1.499C67.435,26.184,67.204,26.272,67.123,26.311z"/>
		<path fill-rule="evenodd" clip-rule="evenodd" fill="#252326" d="M107.154,25.692c-0.025,0.414-0.248,0.656-0.657,0.627
			c-0.238-0.018-0.487-0.12-0.698-0.241c-2.065-1.185-4.123-2.384-6.186-3.571c-0.415-0.239-0.788-0.553-0.516-1.039
			c0.303-0.539,0.795-0.352,1.231-0.1c2.062,1.191,4.122,2.385,6.186,3.573C106.822,25.118,107.099,25.306,107.154,25.692z"/>
		<path fill-rule="evenodd" clip-rule="evenodd" fill="#252326" d="M99.719,7.476c-0.317-0.033-0.526-0.126-0.634-0.328
			c-0.124-0.231-0.14-0.503,0.042-0.709c0.142-0.159,0.337-0.278,0.525-0.388c2.062-1.196,4.126-2.388,6.19-3.581
			c0.428-0.248,0.912-0.485,1.229,0.061c0.317,0.545-0.11,0.841-0.553,1.095c-2.068,1.186-4.128,2.386-6.194,3.574
			C100.112,7.322,99.876,7.405,99.719,7.476z"/>
		<path fill-rule="evenodd" clip-rule="evenodd" fill="#211A1C" d="M105.639,14.957c-1.228,0-2.456-0.014-3.683,0.006
			c-0.504,0.009-0.958-0.136-0.968-0.655c-0.01-0.583,0.47-0.711,1.004-0.708c2.424,0.015,4.847,0.01,7.271,0.004
			c0.479-0.001,0.931,0.077,0.95,0.652c0.021,0.656-0.479,0.706-0.987,0.703C108.032,14.952,106.835,14.957,105.639,14.957z"/>
		<path fill-rule="evenodd" clip-rule="evenodd" fill="#211A1C" d="M67.843,14.942c-1.229,0-2.457-0.012-3.685,0.006
			c-0.503,0.008-0.948-0.132-0.948-0.665c0-0.53,0.457-0.676,0.947-0.674c2.425,0.005,4.85,0.004,7.275,0.003
			c0.479,0,0.94,0.098,0.944,0.67c0.004,0.584-0.466,0.662-0.943,0.661C70.237,14.939,69.04,14.942,67.843,14.942z"/>
		<path fill-rule="evenodd" clip-rule="evenodd" fill="#E7461F" d="M59.471,40.526c-0.164-2.317,0.645-3.591,2.144-3.682
			c0.753-0.045,1.512-0.037,2.266,0c1.002,0.05,1.973,0.984,2.087,1.985c0.046,0.405,0.042,0.817,0.042,1.227
			c0.002,7.052,0.002,14.104,0.002,21.156c0,7.24,0.009,14.481-0.015,21.723c-0.002,0.684,0.173,1.041,0.822,1.358
			c3.625,1.774,5.591,4.752,5.676,8.754c0.113,5.289-4.221,9.49-9.145,9.795c-4.909,0.304-9.164-3.24-10.131-7.675
			c-0.891-4.086,1.073-8.605,4.838-10.512c1.161-0.588,1.485-1.251,1.469-2.505c-0.074-5.98-0.023-11.963-0.055-17.944
			 M64.427,75.778c0-2.488,0-4.977,0-7.465c0-2.369,0-2.335-2.407-2.379c-0.792-0.015-0.983,0.214-0.979,0.992
			c0.034,5.89,0,11.779,0.041,17.669c0.006,0.778-0.248,1.045-0.951,1.281c-3.923,1.318-6.01,5.679-4.701,9.704
			c1.256,3.864,5.555,6.125,9.423,4.956c3.321-1.005,5.547-3.86,5.624-7.216c0.079-3.476-1.981-6.354-5.416-7.525
			c-0.498-0.17-0.652-0.42-0.647-0.946C64.441,81.826,64.426,78.802,64.427,75.778z"/>
		<path fill-rule="evenodd" clip-rule="evenodd" fill="#E1E2E7" d="M29.035,20.267c-0.156-0.831-0.287-1.557-0.431-2.28
			c-0.815-4.102,1.617-9.472,7.655-9.669c3.877-0.127,6.481,1.682,7.46,5.069c0.434,1.5,0.073,2.901-0.51,4.287
			c-0.411,0.976-0.385,0.986,0.66,1.034c2.546,0.116,3.898,1.048,4.413,3.025c0.19,0.729,0.081,1.429-0.148,2.125
			c-0.466,1.414-0.466,1.416,0.916,2.062c1.012,0.473,1.898,1.11,2.545,2.031c1.78,2.533,0.826,5.849-2.102,7.374
			c-1.2,0.625-2.48,0.813-3.816,0.813C33.584,36.131,21.492,36.141,9.4,36.127c-2.047-0.002-3.444-1.156-4.282-2.893
			c-2.266-4.695-0.638-11.456,4.265-14.26c2.689-1.538,5.285-1.239,7.738,0.536c1.625,1.176,1.604,1.215,3.345,0.152
			c1.806-1.103,3.69-1.277,5.662-0.52C27.056,19.499,27.982,19.859,29.035,20.267z"/>
		<path fill-rule="evenodd" clip-rule="evenodd" fill="#211A1C" d="M81.168,76.359c-2.458,0-4.745,0-7.032,0.001
			c-0.452,0-0.573-0.206-0.352-0.592c1.152-2.001,2.31-4,3.518-6.091c0.176,0.265,0.28,0.407,0.369,0.559
			c0.975,1.653,0.973,1.652,2.583,0.723c3.503-2.022,7.014-4.033,10.506-6.075c0.535-0.313,0.823-0.344,1.167,0.27
			c0.864,1.537,0.897,1.52-0.607,2.387c-3.532,2.037-7.054,4.09-10.604,6.093c-0.67,0.378-0.826,0.699-0.351,1.327
			C80.646,75.328,80.833,75.766,81.168,76.359z"/>
		<path fill-rule="evenodd" clip-rule="evenodd" fill="#FBE009" d="M77.069,14.279c0.016-5.294,4.334-9.647,9.613-9.69
			c5.27-0.043,9.717,4.456,9.698,9.812c-0.019,5.19-4.516,9.623-9.727,9.587C81.395,23.95,77.053,19.553,77.069,14.279z"/>
		<path fill-rule="evenodd" clip-rule="evenodd" fill="#DEDFE4" d="M11.484,51.332c0.815,1.933,1.827,3.467,2.249,5.245
			c0.419,1.766-0.51,3.115-2.098,3.187c-1.529,0.069-2.625-1.096-2.486-2.626c0.081-0.893,0.399-1.711,0.769-2.511
			C10.389,53.607,10.881,52.598,11.484,51.332z"/>
		<path fill-rule="evenodd" clip-rule="evenodd" fill="#DEDFE4" d="M40.588,52.278c0.83,1.884,1.835,3.447,2.259,5.25
			c0.359,1.525-0.307,2.742-1.55,3.104c-1.632,0.477-3.112-0.733-3.029-2.462c0.051-1.062,0.475-2.005,0.902-2.945
			C39.583,54.316,40.035,53.425,40.588,52.278z"/>
		<path fill-rule="evenodd" clip-rule="evenodd" fill="#DEDFE4" d="M18.628,68.857c0.046-1.524,0.797-2.813,1.433-4.127
			c0.261-0.539,0.375-1.5,0.89-1.492c0.495,0.008,0.622,0.965,0.878,1.516c0.591,1.271,1.34,2.486,1.469,3.935
			c0.128,1.438-0.799,2.545-2.2,2.602C19.615,71.351,18.599,70.349,18.628,68.857z"/>
		<path fill-rule="evenodd" clip-rule="evenodd" fill="#DEDFE4" d="M26.414,44.395c0.803,1.72,1.596,3.173,2.144,4.737
			c0.132,0.378,0.182,0.799,0.198,1.203c0.057,1.456-0.933,2.461-2.378,2.446c-1.388-0.014-2.354-1.111-2.278-2.553
			c0.06-1.132,0.543-2.121,0.997-3.12C25.481,46.261,25.908,45.432,26.414,44.395z"/>
		<path fill-rule="evenodd" clip-rule="evenodd" fill="#211A1C" d="M64.427,75.778c0,3.023,0.014,6.048-0.014,9.071
			c-0.005,0.526,0.149,0.776,0.647,0.946c3.435,1.171,5.495,4.05,5.416,7.525c-0.076,3.355-2.302,6.211-5.624,7.216
			c-3.868,1.169-8.167-1.092-9.423-4.956c-1.309-4.025,0.778-8.386,4.701-9.704c0.704-0.236,0.957-0.503,0.951-1.281
			c-0.041-5.89-0.007-11.779-0.041-17.669c-0.004-0.778,0.187-1.007,0.979-0.992c2.407,0.044,2.407,0.01,2.407,2.379
			C64.427,70.802,64.427,73.29,64.427,75.778z M64.768,95.779c1.542,0.003,2.92-1.057,3.393-2.553
			c0.503-1.593-0.096-3.387-1.452-4.341c-1.218-0.857-2.898-0.922-3.88-0.148C65.037,90.406,65.993,92.75,64.768,95.779z"/>
		<path fill-rule="evenodd" clip-rule="evenodd" fill="#FEFEFE" d="M64.768,95.779c1.225-3.029,0.269-5.373-1.939-7.042
			c0.982-0.773,2.662-0.709,3.88,0.148c1.356,0.954,1.956,2.748,1.452,4.341C67.688,94.723,66.31,95.782,64.768,95.779z"/>
	</g>
</g>
<g id="Layer_2">
	<rect x="59.176" y="55.765" fill-rule="evenodd" clip-rule="evenodd" fill="#261D1F" width="3.469" height="2.547"/>
	<rect x="59.176" y="60.601" fill-rule="evenodd" clip-rule="evenodd" fill="#261D1F" width="3.469" height="2.547"/>
	<rect x="59.176" y="50.905" fill-rule="evenodd" clip-rule="evenodd" fill="#261D1F" width="3.469" height="2.547"/>
	<rect x="59.176" y="46.093" fill-rule="evenodd" clip-rule="evenodd" fill="#261D1F" width="3.469" height="2.547"/>
	<rect x="59.176" y="41.21" fill-rule="evenodd" clip-rule="evenodd" fill="#261D1F" width="3.469" height="2.547"/>
</g>
<g id="Layer_2_copy">
</g>
</svg>
