<?xml version="1.0" encoding="utf-8"?>
<!-- Generator: Adobe Illustrator 16.0.0, SVG Export Plug-In . SVG Version: 6.00 Build 0)  -->
<!DOCTYPE svg PUBLIC "-//W3C//DTD SVG 1.1//EN" "http://www.w3.org/Graphics/SVG/1.1/DTD/svg11.dtd">
<svg version="1.1" xmlns="http://www.w3.org/2000/svg" xmlns:xlink="http://www.w3.org/1999/xlink" x="0px" y="0px"
	 width="113.39px" height="113.39px" viewBox="0 0 113.39 113.39" enable-background="new 0 0 113.39 113.39" xml:space="preserve">
<g id="Layer_1">
	<g>
		<path fill-rule="evenodd" clip-rule="evenodd" fill="#FFFFFF" d="M113.579,60.664c0,7.245,0,14.489,0,21.733
			c-0.769,1.22-2.119,1.647-3.267,2.316c-6.791,3.961-13.582,7.923-20.381,11.87c-9.356,5.431-18.693,10.896-28.057,16.316
			c-0.617,0.356-1.325,0.414-1.968,0.68c-12.347,0-24.693,0-37.04,0c-0.224-0.707,0.381-0.852,0.78-1.087
			c3.878-2.285,7.782-4.524,11.668-6.798c4.13-2.416,8.28-4.796,12.399-7.229c0.261-0.154,0.59-0.244,0.696-0.604
			c-0.327-0.152-0.541,0.084-0.769,0.215c-8.203,4.741-16.388,9.515-24.567,14.297c-0.903,0.528-1.854,0.918-2.854,1.206
			c-6.458,0-12.917-0.003-19.376,0.005c-0.419,0.001-0.825,0.065-0.655-0.572c0.289-0.721,0.903-1.099,1.534-1.462
			c10.688-6.162,21.332-12.402,32.001-18.597c6.805-3.95,13.603-7.912,20.403-11.87c0.595-0.347,0.975-0.771,0.963-1.49
			c-0.012-0.766-0.245-0.93-0.914-0.544c-1.771,1.022-3.536,2.059-5.305,3.085c-9.229,5.354-18.446,10.729-27.67,16.091
			c-6.558,3.812-13.104,7.643-19.672,11.438c-0.418,0.242-0.837,0.658-1.341,0.137c0-36.253,0.002-72.506-0.019-108.76
			c0-0.708,0.16-0.868,0.868-0.868c37.229,0.021,74.46,0.021,111.689,0c0.708,0,0.869,0.16,0.868,0.868
			c-0.024,14.331-0.018,28.663-0.018,42.994c-0.368,0.668-1.002,1.003-1.635,1.367c-3.409,1.962-6.794,3.967-10.2,5.933
			c-0.784,0.453-0.87,0.708-0.432,1.522c1.227,2.271,2.64,4.434,3.939,6.662c0.555,0.951,1.126,1.894,1.656,2.859
			c0.364,0.665,0.25,1.204-0.418,1.604c-2.188,1.308-4.386,2.597-6.61,3.84c-0.908,0.507-1.374,0.323-1.946-0.613
			c-1.742-2.845-3.426-5.725-5.089-8.615c-0.825-1.434-0.941-1.512-2.393-0.663c-4.698,2.749-9.413,5.471-14.112,8.22
			c-1.656,0.969-3.322,1.923-4.969,2.909c-0.243,0.146-0.508,0.267-0.68,0.501c-0.344,0.467-0.484,1.058-0.172,1.502
			c0.355,0.506,0.81-0.002,1.146-0.197c4.651-2.704,9.306-5.404,13.95-8.121c2.01-1.176,4.03-2.334,6.041-3.508
			c0.822-0.479,1.219-0.388,1.717,0.434c1.518,2.502,3.005,5.022,4.44,7.572c0.559,0.992,0.465,1.305-0.533,1.904
			c-4.448,2.677-8.971,5.229-13.448,7.856c-3.202,1.88-6.418,3.736-9.633,5.594c-0.27,0.155-0.559,0.292-0.788,0.641
			c0.442,0.153,0.72-0.131,1.007-0.299c3.829-2.241,7.666-4.468,11.502-6.697c8.135-4.727,16.265-9.463,24.396-14.192
			c0.708-0.412,1.418-0.817,2.129-1.222C112.787,60.632,113.15,60.354,113.579,60.664z"/>
		<path fill-rule="evenodd" clip-rule="evenodd" fill="#797979" d="M113.579,86.933c0,8.631-0.01,17.261,0.018,25.891
			c0.003,0.647-0.127,0.775-0.774,0.774c-14.992-0.023-29.985-0.018-44.978-0.018c-0.22-0.719,0.435-0.849,0.807-1.077
			c1.85-1.135,3.735-2.212,5.614-3.3c5.282-3.057,10.551-6.136,15.827-9.204c7.342-4.27,14.692-8.526,22.019-12.824
			C112.549,86.918,113.009,86.51,113.579,86.933z"/>
		<path fill-rule="evenodd" clip-rule="evenodd" fill="#020202" d="M113.579,86.933c-4.112,2.376-8.23,4.742-12.336,7.129
			c-10.771,6.26-21.536,12.527-32.302,18.797c-0.377,0.22-0.731,0.479-1.097,0.722c-2.646,0-5.291,0-7.938,0
			c3.216-1.897,6.423-3.81,9.648-5.688c14.362-8.367,28.729-16.726,43.099-25.08c0.289-0.168,0.541-0.448,0.925-0.414
			C113.579,83.909,113.579,85.421,113.579,86.933z"/>
		<path fill-rule="evenodd" clip-rule="evenodd" fill="#020202" d="M113.579,60.664c-10.136,5.907-20.271,11.813-30.405,17.721
			c-3.018,1.759-6.057,3.48-9.036,5.302c-0.89,0.544-1.408,0.42-1.904-0.477c2.078-1.209,4.164-2.422,6.251-3.637
			c6.197-3.605,12.389-7.223,18.602-10.803c0.688-0.397,0.737-0.67,0.322-1.345c-1.511-2.456-2.967-4.947-4.38-7.461
			c-0.367-0.651-0.627-0.636-1.211-0.294c-6.919,4.055-13.854,8.082-20.786,12.115c-0.318,0.185-0.646,0.354-1.103,0.604
			c0-0.962,0.021-1.798-0.007-2.633c-0.019-0.55,0.411-0.656,0.748-0.853C77.026,65.2,83.386,61.5,89.745,57.798
			c0.19-0.11,0.38-0.223,0.569-0.334c1.83-1.079,1.819-1.072,2.869,0.734c1.691,2.91,3.415,5.802,5.085,8.724
			c0.415,0.728,0.762,0.865,1.521,0.395c2.077-1.289,4.202-2.502,6.333-3.704c0.568-0.321,0.664-0.567,0.311-1.153
			c-1.901-3.148-3.752-6.328-5.629-9.492c-0.741-1.25-0.736-1.217,0.513-1.937c3.785-2.185,7.556-4.396,11.338-6.585
			c0.289-0.167,0.539-0.45,0.925-0.411c0,1.008,0,2.016,0,3.023c-0.417,0.943-1.333,1.296-2.134,1.763
			c-2.413,1.407-4.839,2.792-7.245,4.21c-1.032,0.609-1.108,0.879-0.507,1.867c1.208,1.984,2.349,4.008,3.532,6.006
			c0.522,0.881,0.761,0.938,1.653,0.431c1.229-0.697,2.427-1.446,3.668-2.121c0.35-0.189,0.668-0.365,1.032-0.061
			C113.579,59.656,113.579,60.16,113.579,60.664z"/>
		<path fill-rule="evenodd" clip-rule="evenodd" fill="#020202" d="M0.189,109.8c0.404-0.01,0.686-0.293,1.004-0.479
			c17.824-10.363,35.645-20.732,53.466-31.101c0.24-0.14,0.486-0.271,0.896-0.498c0,1.011,0.005,1.898-0.001,2.786
			c-0.004,0.499-0.471,0.549-0.77,0.724C44.142,87.437,33.491,93.63,22.842,99.826c-7.552,4.394-15.102,8.791-22.652,13.187
			C0.189,111.941,0.189,110.871,0.189,109.8z"/>
		<path fill-rule="evenodd" clip-rule="evenodd" fill="#FFFFFF" d="M113.579,59.152c-1.735,1.008-3.48,1.999-5.198,3.034
			c-0.498,0.299-0.782,0.31-1.1-0.238c-1.521-2.633-3.065-5.254-4.631-7.861c-0.274-0.457-0.139-0.63,0.261-0.859
			c3.562-2.047,7.113-4.111,10.668-6.17C113.579,51.089,113.579,55.121,113.579,59.152z"/>
		<path fill-rule="evenodd" clip-rule="evenodd" fill="#020202" d="M20.221,113.58c0.153-0.31,0.482-0.386,0.744-0.537
			c9.066-5.286,18.136-10.567,27.22-15.823c0.268-0.155,0.621-0.856,1.034-0.123c0.32,0.57,0.238,0.945-0.409,1.32
			c-8.38,4.843-16.74,9.718-25.103,14.59c-0.292,0.17-0.638,0.269-0.84,0.573C21.985,113.58,21.104,113.58,20.221,113.58z"/>
		<path fill-rule="evenodd" clip-rule="evenodd" fill="#020202" d="M68.588,60.485c0,6.989,0.008,13.979-0.015,20.969
			c-0.002,0.642,0.192,1.004,0.742,1.349c4.817,3.013,6.912,9.03,5.029,14.337c-1.95,5.494-7.259,8.828-13.004,8.165
			c-5.249-0.605-9.379-4.349-10.601-9.608c-1.128-4.86,1.087-10.159,5.442-12.887c0.603-0.377,0.741-0.793,0.74-1.448
			c-0.017-13.822-0.008-27.645-0.018-41.466c-0.001-2.175,0.694-3.955,2.688-5.035c2.44-1.321,6.308-0.657,7.894,1.317
			c0.854,1.063,1.103,2.299,1.102,3.622C68.585,46.694,68.588,53.59,68.588,60.485z"/>
		<path fill-rule="evenodd" clip-rule="evenodd" fill="#020202" d="M27.911,38.773c-5.981,0-11.964-0.035-17.945,0.014
			c-3.53,0.028-5.976-1.638-7.364-4.737c-2.651-5.918-0.544-14,5.611-17.418c3.468-1.926,6.877-1.625,10.144,0.536
			c0.403,0.268,0.658,0.294,1.077,0.061c1.811-1.008,3.738-1.462,5.805-1.021c0.684,0.146,0.59-0.297,0.638-0.706
			c0.493-4.278,2.505-7.527,6.644-9.045c3.119-1.144,6.362-1.463,9.35,0.461c3.019,1.944,4.795,4.683,4.619,8.402
			c-0.038,0.813,0.161,1.169,0.911,1.521c2.513,1.184,3.885,3.717,3.531,6.397c-0.073,0.557,0.143,0.783,0.541,1.046
			c1.869,1.229,3.13,2.904,3.53,5.133c0.593,3.306-1.162,6.625-4.24,8.204c-1.637,0.84-3.361,1.165-5.188,1.159
			C39.687,38.762,33.799,38.773,27.911,38.773z"/>
		<path fill-rule="evenodd" clip-rule="evenodd" fill="#020202" d="M86.67,2.004c6.725-0.046,12.285,5.438,12.349,12.178
			c0.063,6.788-5.533,12.433-12.32,12.427c-6.733-0.006-12.228-5.494-12.269-12.256C74.39,7.54,79.831,2.05,86.67,2.004z"/>
		<path fill-rule="evenodd" clip-rule="evenodd" fill="#020202" d="M81.118,76.352c-2.424,0-4.707,0-6.99,0.001
			c-0.49,0-0.521-0.232-0.311-0.597c1.143-1.966,2.284-3.932,3.501-6.026c0.319,0.552,0.596,0.96,0.801,1.4
			c0.296,0.638,0.606,0.784,1.278,0.382c2.526-1.514,5.093-2.962,7.645-4.433c1.304-0.751,2.618-1.481,3.908-2.254
			c0.418-0.251,0.609-0.217,0.872,0.223c0.95,1.589,0.978,1.59-0.626,2.521c-3.52,2.045-7.037,4.093-10.582,6.094
			c-0.611,0.345-0.777,0.602-0.349,1.192C80.571,75.276,80.787,75.762,81.118,76.352z"/>
		<path fill-rule="evenodd" clip-rule="evenodd" fill="#020202" d="M40.604,49.018c1.176,2.676,2.365,5.097,3.308,7.609
			c0.886,2.362-0.236,4.597-2.342,5.154c-2.703,0.715-5-1.555-4.498-4.458c0.063-0.368,0.155-0.742,0.306-1.082
			C38.413,53.894,39.468,51.555,40.604,49.018z"/>
		<path fill-rule="evenodd" clip-rule="evenodd" fill="#020202" d="M26.587,41.368c0.903,2.843,2.684,5.32,3.364,8.245
			c0.473,2.03-0.806,3.947-2.757,4.387c-1.839,0.414-3.742-0.727-4.236-2.588c-0.274-1.032-0.159-2.077,0.263-3.048
			c1.014-2.332,2.072-4.645,3.113-6.966C26.419,41.389,26.503,41.379,26.587,41.368z"/>
		<path fill-rule="evenodd" clip-rule="evenodd" fill="#020202" d="M11.491,48.093c1.021,2.862,2.53,5.284,3.373,7.981
			c0.598,1.911-0.055,3.555-1.533,4.453c-1.343,0.815-3.024,0.702-4.212-0.332c-1.469-1.278-1.572-2.955-0.943-4.586
			C9.133,53.132,10.31,50.74,11.491,48.093z"/>
		<path fill-rule="evenodd" clip-rule="evenodd" fill="#020202" d="M21.036,59.582c1.004,2.718,2.287,5.029,3.24,7.483
			c0.478,1.229,0.554,2.521-0.152,3.734c-0.8,1.375-2.462,2.067-3.971,1.671c-1.635-0.431-2.761-1.849-2.747-3.516
			c0.004-0.467,0.052-0.954,0.192-1.396C18.454,64.857,19.942,62.438,21.036,59.582z"/>
		<path fill-rule="evenodd" clip-rule="evenodd" fill="#020202" d="M94.174,26.629c0.362,0.004,0.565,0.235,0.728,0.517
			c1.226,2.119,2.452,4.237,3.672,6.359c0.236,0.411,0.366,0.854-0.163,1.134c-0.488,0.26-0.769-0.103-0.979-0.464
			c-1.248-2.142-2.494-4.284-3.714-6.442C93.38,27.136,93.623,26.631,94.174,26.629z"/>
		<path fill-rule="evenodd" clip-rule="evenodd" fill="#020202" d="M106.416,2.237c0.336-0.015,0.563,0.082,0.678,0.339
			c0.109,0.244,0.101,0.501-0.104,0.698c-0.133,0.129-0.292,0.236-0.453,0.33c-2.063,1.198-4.129,2.394-6.195,3.587
			c-0.135,0.078-0.276,0.148-0.422,0.202c-0.335,0.122-0.652,0.056-0.822-0.255c-0.19-0.344-0.103-0.691,0.25-0.896
			c2.252-1.312,4.509-2.613,6.768-3.914C106.22,2.268,106.353,2.256,106.416,2.237z"/>
		<path fill-rule="evenodd" clip-rule="evenodd" fill="#020202" d="M67.054,2.236c0.138,0.064,0.372,0.154,0.586,0.277
			c2.012,1.157,4.021,2.316,6.027,3.484c0.423,0.246,1.021,0.48,0.643,1.121c-0.358,0.607-0.872,0.282-1.311,0.03
			c-2.067-1.187-4.131-2.38-6.194-3.573c-0.346-0.2-0.614-0.456-0.497-0.907C66.392,2.345,66.633,2.229,67.054,2.236z"/>
		<path fill-rule="evenodd" clip-rule="evenodd" fill="#020202" d="M105.543,14.955c-1.192,0-2.385-0.011-3.576,0.006
			c-0.495,0.007-0.954-0.119-0.967-0.649c-0.014-0.597,0.471-0.711,0.997-0.708c2.416,0.011,4.832,0.006,7.248,0.004
			c0.471-0.001,0.934,0.062,0.954,0.647c0.022,0.667-0.485,0.702-0.985,0.701C107.99,14.954,106.767,14.955,105.543,14.955z"/>
		<path fill-rule="evenodd" clip-rule="evenodd" fill="#020202" d="M79.908,27.223c-0.123,0.276-0.215,0.544-0.353,0.785
			c-1.155,2.014-2.32,4.021-3.479,6.034c-0.176,0.306-0.354,0.616-0.733,0.673c-0.52,0.077-0.871-0.514-0.564-1.059
			c1.246-2.215,2.53-4.408,3.801-6.609c0.195-0.34,0.478-0.487,0.866-0.39C79.737,26.731,79.784,26.989,79.908,27.223z"/>
		<path fill-rule="evenodd" clip-rule="evenodd" fill="#020202" d="M87.355,33.136c0.001,1.224,0.001,2.447,0.001,3.672
			c-0.001,0.467-0.065,0.954-0.646,0.958c-0.565,0.004-0.683-0.479-0.685-0.941c-0.007-2.448-0.003-4.896,0.004-7.343
			c0.002-0.447,0.171-0.856,0.664-0.866c0.508-0.01,0.661,0.393,0.661,0.85C87.354,30.688,87.354,31.912,87.355,33.136z"/>
		<path fill-rule="evenodd" clip-rule="evenodd" fill="#020202" d="M99.845,21.148c0.139-0.009,0.37,0.164,0.613,0.305
			c1.982,1.146,3.965,2.291,5.947,3.437c0.44,0.255,0.981,0.524,0.622,1.135c-0.319,0.544-0.824,0.284-1.241,0.044
			c-2.066-1.188-4.128-2.384-6.191-3.576c-0.343-0.198-0.64-0.434-0.543-0.888C99.119,21.281,99.366,21.16,99.845,21.148z"/>
		<path fill-rule="evenodd" clip-rule="evenodd" fill="#020202" d="M74.391,21.78c-0.03,0.329-0.256,0.537-0.538,0.7
			c-2.125,1.226-4.249,2.454-6.378,3.673c-0.377,0.216-0.811,0.331-1.081-0.121c-0.265-0.444,0.005-0.783,0.395-1.009
			c2.15-1.244,4.299-2.493,6.463-3.714C73.83,20.983,74.381,21.235,74.391,21.78z"/>
		<path fill-rule="evenodd" clip-rule="evenodd" fill="#020202" d="M67.732,14.942c-1.161,0-2.322-0.007-3.483,0.004
			c-0.51,0.005-1.026-0.058-1.022-0.678c0.003-0.546,0.483-0.657,0.961-0.656c2.417,0.002,4.833,0.001,7.25,0.004
			c0.476,0,0.938,0.109,0.927,0.683c-0.011,0.582-0.491,0.645-0.96,0.644C70.181,14.941,68.957,14.942,67.732,14.942z"/>
		<path fill-rule="evenodd" clip-rule="evenodd" fill="#FFFFFF" d="M65.969,61.274c0,7.242,0.01,14.484-0.018,21.727
			c-0.002,0.697,0.213,1.029,0.844,1.343c4.701,2.336,6.782,7.393,5.042,12.12c-1.485,4.034-5.478,6.604-9.838,6.331
			c-4.08-0.254-7.836-3.524-8.711-7.585c-0.91-4.222,1.008-8.552,4.839-10.522c1.129-0.58,1.439-1.226,1.426-2.438
			c-0.066-6.014-0.018-12.028-0.046-18.042c-0.004-0.726-0.036-23.657-0.036-23.657c-0.149-2.848,0.949-3.452,2.212-3.669
			c0.551-0.095,1.131-0.034,1.697-0.026c1.595,0.023,2.583,1.001,2.585,2.6c0.007,7.021,0.003,14.043,0.004,21.065
			C65.969,60.771,65.969,61.022,65.969,61.274z"/>
		<path fill-rule="evenodd" clip-rule="evenodd" fill="#FFFFFF" d="M29.066,20.315c-0.201-1.278-0.51-2.412-0.536-3.553
			c-0.117-5.188,3.432-8.424,8.813-8.481c3.477-0.037,6.828,3.769,6.516,6.949c-0.098,0.995-0.521,1.87-0.852,2.78
			c-0.167,0.459-0.182,0.699,0.41,0.711c0.501,0.01,0.999,0.113,1.5,0.162c2.447,0.238,3.917,2.452,3.201,4.828
			c-0.483,1.606-0.483,1.606,1.014,2.323c2.144,1.027,3.469,2.963,3.314,4.841c-0.189,2.3-1.762,4.142-4.107,4.867
			c-0.947,0.293-1.908,0.363-2.889,0.362c-11.839-0.004-23.679-0.043-35.518,0.033c-2.313,0.015-4.296-1.603-5.037-3.433
			C3.064,28.183,4.701,22.35,8.643,19.498c2.646-1.913,5.798-1.903,8.417,0.029c1.671,1.231,1.668,1.227,3.44,0.17
			c1.781-1.063,3.635-1.303,5.592-0.502C27.038,19.582,28.005,19.917,29.066,20.315z"/>
		<path fill-rule="evenodd" clip-rule="evenodd" fill="#FFFFFF" d="M86.601,23.916c-5.522-0.144-9.645-4.563-9.495-10.183
			c0.132-4.987,4.684-9.161,9.854-9.037c5.202,0.125,9.49,4.567,9.389,9.727C96.244,19.661,91.738,24.05,86.601,23.916z"/>
		<path fill-rule="evenodd" clip-rule="evenodd" fill="#FFFFFF" d="M40.567,52.347c0.827,1.951,1.892,3.534,2.264,5.403
			c0.26,1.308-0.496,2.474-1.698,2.746c-1.175,0.267-2.367-0.374-2.688-1.501c-0.23-0.811-0.112-1.627,0.221-2.394
			C39.251,55.25,39.865,53.911,40.567,52.347z"/>
		<path fill-rule="evenodd" clip-rule="evenodd" fill="#FFFFFF" d="M26.404,44.563c0.795,1.799,1.769,3.345,2.211,5.128
			c0.26,1.046,0.007,1.947-0.865,2.603c-0.747,0.563-1.585,0.603-2.399,0.158c-0.933-0.51-1.245-1.348-1.171-2.385
			c0.053-0.74,0.323-1.408,0.614-2.065C25.285,46.894,25.819,45.806,26.404,44.563z"/>
		<path fill-rule="evenodd" clip-rule="evenodd" fill="#FFFFFF" d="M11.438,51.5c0.723,1.596,1.388,3.011,2.002,4.447
			c0.259,0.605,0.382,1.26,0.239,1.931c-0.254,1.191-1.29,1.961-2.472,1.834c-1.146-0.123-1.977-1.047-1.997-2.24
			c-0.011-0.665,0.109-1.31,0.388-1.92C10.181,54.271,10.762,52.989,11.438,51.5z"/>
		<path fill-rule="evenodd" clip-rule="evenodd" fill="#FFFFFF" d="M21.041,63.084c0.713,1.596,1.383,3.035,1.997,4.497
			c0.284,0.676,0.346,1.412,0.12,2.124c-0.323,1.022-1.382,1.665-2.434,1.524c-1.115-0.148-1.973-1.123-1.987-2.283
			c-0.007-0.538,0.113-1.059,0.301-1.563C19.568,65.948,20.254,64.588,21.041,63.084z"/>
		<path fill-rule="evenodd" clip-rule="evenodd" fill="#020202" d="M64.458,75.783c0,2.991,0.015,5.983-0.013,8.975
			c-0.005,0.565,0.172,0.818,0.715,1.001c3.026,1.015,4.848,3.162,5.281,6.279c0.445,3.202-0.754,5.862-3.497,7.614
			c-2.769,1.769-5.694,1.756-8.451-0.038c-2.696-1.754-3.867-4.388-3.445-7.553c0.407-3.048,2.171-5.191,5.091-6.229
			c0.758-0.271,0.912-0.611,0.909-1.334c-0.026-5.889-0.028-11.778-0.028-17.666c0-0.913-0.014-0.913,0.865-0.913l1.828-0.002
			c0.746,0,0.746-0.009,0.731,0.77C64.398,69.111,64.458,73.358,64.458,75.783z"/>
		<path fill-rule="evenodd" clip-rule="evenodd" fill="#FEFEFE" d="M62.773,88.688c1.487-0.798,3.173-0.566,4.351,0.535
			c1.165,1.091,1.538,2.875,0.907,4.341c-0.588,1.368-1.924,2.278-3.25,2.165C65.936,92.897,65.197,90.58,62.773,88.688z"/>
	</g>
</g>
<g id="Layer_2">
</g>
<g id="Layer_2_copy">
	<rect x="59.167" y="55.765" fill-rule="evenodd" clip-rule="evenodd" fill="#020202" width="3.469" height="2.547"/>
	<rect x="59.167" y="60.601" fill-rule="evenodd" clip-rule="evenodd" fill="#020202" width="3.469" height="2.547"/>
	<rect x="59.167" y="50.905" fill-rule="evenodd" clip-rule="evenodd" fill="#020202" width="3.469" height="2.547"/>
	<rect x="59.167" y="46.093" fill-rule="evenodd" clip-rule="evenodd" fill="#020202" width="3.469" height="2.547"/>
	<rect x="59.167" y="41.21" fill-rule="evenodd" clip-rule="evenodd" fill="#020202" width="3.469" height="2.547"/>
</g>
</svg>
