<?xml version="1.0" encoding="utf-8"?>
<!-- Generator: Adobe Illustrator 16.0.0, SVG Export Plug-In . SVG Version: 6.00 Build 0)  -->
<!DOCTYPE svg PUBLIC "-//W3C//DTD SVG 1.1//EN" "http://www.w3.org/Graphics/SVG/1.1/DTD/svg11.dtd">
<svg version="1.1" xmlns="http://www.w3.org/2000/svg" xmlns:xlink="http://www.w3.org/1999/xlink" x="0px" y="0px"
	 width="113.39px" height="113.39px" viewBox="0 0 113.39 113.39" enable-background="new 0 0 113.39 113.39" xml:space="preserve">
<g id="Layer_1">
	<g>
		<path fill-rule="evenodd" clip-rule="evenodd" fill="#FEFEFE" d="M0.189,106.964c0-35.308,0.002-70.616-0.018-105.924
			c0-0.708,0.16-0.869,0.868-0.868c37.229,0.02,74.459,0.02,111.688,0c0.708,0,0.87,0.159,0.869,0.868
			c-0.024,14.331-0.018,28.662-0.018,42.994c-0.319-0.048-0.518,0.193-0.752,0.33c-9.684,5.625-19.36,11.264-29.056,16.87
			c-0.726,0.421-0.833,0.745-0.412,1.474c1.9,3.288,3.747,6.606,5.606,9.917c0.167,0.297,0.493,0.574-0.067,0.892
			c-2.279,1.288-4.535,2.619-6.829,3.951c-2.005-3.567-3.994-7.08-5.95-10.61c-0.333-0.603-0.647-0.725-1.311-0.47
			c-2.17,0.833-4.312,1.734-6.47,2.596c-6.006,2.396-12.081,4.613-18.04,7.135c-10.894,4.609-21.626,9.533-31.699,15.782
			c-4.498,2.79-8.75,5.915-12.709,9.438C3.89,103.114,2.08,105.079,0.189,106.964z M70.36,13.992
			c0.057,0.027,0.114,0.055,0.171,0.082c0,5.038,0,10.075,0,15.112c0,1.498,0.438,2.177,1.38,2.147
			c0.92-0.029,1.313-0.658,1.313-2.115c0.001-6.014,0-12.028,0-18.042c0-0.221,0.013-0.442-0.008-0.661
			c-0.113-1.159-0.911-1.664-1.967-1.2c-0.328,0.144-0.588,0.105-0.899,0.03c-4.298-1.046-8.62-2.006-12.887-3.167
			c-1.458-0.397-2.612-0.211-3.929,0.42C39.281,13.424,25,20.2,10.728,26.992c-1.475,0.702-2.008,1.741-1.748,3.359
			c0.035,0.217,0.057,0.436,0.097,0.652c0.48,2.552,1.511,4.845,3.248,6.792c0.778,0.871,1.689,1.12,2.883,0.791
			c15.598-4.309,31.207-8.582,46.815-12.852c0.622-0.17,1.07-0.504,1.387-1.039c1.826-3.082,3.902-6.002,5.828-9.02
			C69.601,15.106,69.986,14.552,70.36,13.992z M72.101,45.382c-2.169,0.096-4.308,0.438-6.434,0.831
			c-12.397,2.295-24.376,5.952-35.89,11.106c-1.004,0.45-1.989,0.942-2.976,1.43c-0.403,0.199-0.836,0.453-0.594,0.997
			c0.271,0.607,0.755,0.404,1.203,0.197c0.085-0.039,0.173-0.076,0.257-0.118c6.724-3.317,13.731-5.905,20.901-8.063
			c6.765-2.036,13.599-3.785,20.616-4.722c1.118-0.149,2.246-0.224,3.37-0.315c0.462-0.037,0.837-0.184,0.802-0.707
			c-0.033-0.507-0.421-0.649-0.879-0.638C72.353,45.384,72.227,45.382,72.101,45.382z M74.515,50.419
			c-2.009,0.165-3.963,0.629-5.907,1.124c-7.991,2.034-15.731,4.79-23.236,8.2c-1.373,0.624-2.693,1.362-4.032,2.059
			c-0.394,0.205-0.697,0.518-0.44,0.982c0.242,0.438,0.654,0.418,1.065,0.207c0.28-0.144,0.56-0.286,0.839-0.429
			c9.278-4.728,19.03-8.126,29.184-10.4c0.95-0.213,1.908-0.357,2.88-0.428c0.478-0.035,1.016-0.135,0.94-0.789
			c-0.066-0.576-0.542-0.607-1.013-0.554C74.702,50.402,74.608,50.41,74.515,50.419z M17.795,59.644
			c1.222-0.706,2.334-1.351,3.449-1.993c0.424-0.245,0.902-0.539,0.61-1.087c-0.327-0.614-0.844-0.334-1.3-0.072
			c-1.105,0.637-2.213,1.271-3.444,1.976c0-0.452,0-0.759,0-1.066c0-0.944,0.009-1.89-0.004-2.834
			c-0.007-0.495,0.063-1.129-0.649-1.144c-0.696-0.015-0.702,0.583-0.706,1.103c-0.002,0.252,0,0.504,0,0.756
			c0,1.017,0,2.034,0,3.183c-1.322-0.762-2.481-1.44-3.652-2.099c-0.383-0.215-0.818-0.292-1.071,0.167
			c-0.212,0.385-0.034,0.727,0.34,0.951c0.188,0.113,0.377,0.226,0.567,0.336c1.014,0.59,2.029,1.18,3.122,1.815
			c-0.396,0.242-0.685,0.426-0.981,0.599c-0.895,0.521-1.796,1.033-2.688,1.561c-0.36,0.212-0.588,0.547-0.367,0.943
			c0.241,0.434,0.646,0.441,1.06,0.195c0.27-0.16,0.544-0.313,0.817-0.468c0.912-0.52,1.823-1.038,2.854-1.625
			c0,1.469-0.006,2.756,0.002,4.043c0.003,0.496,0.097,1.022,0.719,0.996c0.55-0.022,0.642-0.505,0.639-0.982
			c-0.006-0.977-0.002-1.952-0.001-2.929c0.001-1.153,0.001-1.15,0.967-0.596c0.925,0.53,1.855,1.055,2.781,1.586
			c0.389,0.223,0.757,0.188,0.983-0.194c0.236-0.396,0.017-0.722-0.325-0.957c-0.206-0.142-0.429-0.261-0.646-0.387
			C19.875,60.845,18.877,60.269,17.795,59.644z M88.858,43.28c-0.208-0.391-0.113-0.739-0.118-1.072
			c-0.016-1.039,0.002-2.079-0.017-3.118c-0.007-0.399-0.144-0.784-0.623-0.797c-0.519-0.014-0.69,0.363-0.718,0.815
			c-0.018,0.282-0.005,0.566-0.005,0.85c0,1.084,0,2.169,0,3.391c-1.228-0.709-2.304-1.339-3.39-1.954
			c-0.437-0.248-0.966-0.593-1.315,0.011c-0.34,0.588,0.171,0.887,0.628,1.149c1.106,0.632,2.206,1.277,3.385,1.962
			c-0.383,0.234-0.673,0.417-0.969,0.59c-0.895,0.521-1.797,1.032-2.687,1.562c-0.388,0.231-0.631,0.572-0.339,1.013
			c0.252,0.38,0.625,0.361,0.999,0.141c0.271-0.16,0.548-0.309,0.82-0.464c0.912-0.521,1.824-1.044,2.869-1.642
			c0,1.373-0.005,2.562,0.002,3.751c0.003,0.557-0.084,1.29,0.704,1.285c0.73-0.005,0.652-0.705,0.653-1.238
			c0.002-1.04,0.017-2.08-0.007-3.118c-0.014-0.588,0.165-0.638,0.638-0.348c0.883,0.542,1.786,1.051,2.689,1.558
			c0.451,0.253,0.994,0.71,1.389,0.049c0.387-0.648-0.226-0.922-0.691-1.192c-1.083-0.629-2.164-1.262-3.326-1.94
			c1.202-0.695,2.313-1.338,3.424-1.982c0.448-0.26,0.961-0.554,0.586-1.155c-0.336-0.539-0.818-0.262-1.242-0.018
			C91.089,42.003,89.979,42.637,88.858,43.28z M32.655,71.17c-1.305,0.76-2.471,1.437-3.634,2.117
			c-0.389,0.228-0.666,0.555-0.41,1.001c0.252,0.438,0.664,0.399,1.068,0.164c0.949-0.553,1.913-1.084,2.847-1.661
			c0.582-0.359,0.864-0.401,0.814,0.438c-0.055,0.91-0.025,1.826-0.008,2.739c0.01,0.572-0.166,1.397,0.653,1.426
			c0.86,0.03,0.684-0.801,0.698-1.373c0.017-0.661,0.003-1.323,0.003-1.984c0-0.511,0-1.021,0-1.671
			c0.51,0.28,0.836,0.453,1.158,0.636c0.873,0.497,1.744,0.997,2.616,1.496c0.396,0.228,0.755,0.156,0.975-0.225
			c0.205-0.355,0.013-0.676-0.283-0.9c-0.223-0.17-0.483-0.292-0.728-0.434c-0.987-0.572-1.974-1.145-3.049-1.767
			c1.214-0.705,2.297-1.338,3.385-1.964c0.449-0.258,0.988-0.544,0.658-1.141c-0.334-0.604-0.862-0.293-1.311-0.035
			c-1.103,0.634-2.205,1.268-3.42,1.967c0-1.479,0.007-2.8-0.005-4.12c-0.003-0.34-0.015-0.7-0.403-0.885
			c-0.227-0.108-0.444-0.07-0.625,0.059c-0.318,0.228-0.328,0.584-0.327,0.936c0.001,1.285,0,2.57,0,3.997
			c-1.217-0.697-2.322-1.334-3.43-1.963c-0.445-0.253-0.965-0.561-1.295,0.067c-0.287,0.547,0.172,0.842,0.604,1.089
			C30.322,69.815,31.433,70.464,32.655,71.17z M12.764,73.209c0-0.444,0-0.748,0-1.052c0-1.04,0.01-2.079-0.006-3.118
			c-0.006-0.426-0.098-0.874-0.635-0.884c-0.577-0.012-0.704,0.431-0.718,0.91c-0.008,0.283-0.001,0.567-0.001,0.851
			c0,1.052,0,2.104,0,3.284c-1.147-0.655-2.149-1.228-3.151-1.799c-0.218-0.124-0.434-0.254-0.66-0.36
			c-0.356-0.169-0.718-0.138-0.905,0.22c-0.231,0.44-0.005,0.777,0.398,1.011c1.184,0.686,2.366,1.372,3.627,2.104
			c-0.386,0.235-0.676,0.419-0.972,0.592c-0.895,0.522-1.795,1.035-2.688,1.561c-0.359,0.212-0.598,0.536-0.385,0.938
			C6.9,77.903,7.3,77.93,7.719,77.681c0.27-0.16,0.546-0.31,0.819-0.466c0.912-0.521,1.824-1.042,2.866-1.638
			c0,1.403-0.003,2.625,0.001,3.846c0.002,0.539-0.025,1.201,0.708,1.192c0.67-0.008,0.653-0.634,0.651-1.15
			c-0.003-1.071,0.017-2.143-0.008-3.213c-0.013-0.6,0.175-0.626,0.64-0.344c0.912,0.555,1.847,1.07,2.772,1.603
			c0.44,0.253,0.946,0.608,1.31,0.003c0.359-0.598-0.172-0.896-0.613-1.154c-1.108-0.646-2.222-1.285-3.415-1.975
			c1.208-0.699,2.32-1.345,3.434-1.986c0.423-0.243,0.909-0.527,0.629-1.081c-0.315-0.622-0.832-0.356-1.291-0.092
			C15.116,71.865,14.006,72.497,12.764,73.209z"/>
		<path fill-rule="evenodd" clip-rule="evenodd" fill="#99CAEE" d="M113.579,60.663c0,7.245,0,14.489,0,21.733
			c-0.144,0.057-0.297,0.097-0.43,0.174c-17.468,10.158-34.935,20.318-52.391,30.497c-0.17,0.099-0.607,0.081-0.472,0.512
			c-12.473,0-24.946,0-37.419,0c0.125-0.336,0.472-0.393,0.727-0.541c10.573-6.164,21.152-12.315,31.729-18.473
			c11.823-6.883,23.642-13.771,35.465-20.653C98.382,69.492,105.981,65.079,113.579,60.663z"/>
		<path fill-rule="evenodd" clip-rule="evenodd" fill="#6085A2" d="M20.599,113.579c-6.429,0-12.857-0.027-19.286,0.028
			c-0.975,0.009-1.333-0.206-1.124-1.163c0.868-0.353,1.05-1.277,1.588-1.906c3.051-3.56,6.228-6.993,9.855-9.984
			c5.186-4.276,10.81-7.914,16.7-11.11c7.521-4.081,15.23-7.794,23.161-11.031c2.966-1.21,5.846-2.657,8.867-3.701
			c4.967-1.717,9.741-3.903,14.633-5.797c0.73-0.283,0.897-0.058,1.167,0.428c1.353,2.438,2.709,4.875,4.066,7.312
			c0.82,1.472,0.82,1.468-0.621,2.225c-0.334,0.175-0.654,0.376-0.98,0.567c-4.789,2.813-9.571,5.637-14.369,8.436
			c-14.195,8.278-28.398,16.544-42.588,24.833C21.284,112.938,20.715,112.999,20.599,113.579z M55.749,80.89
			c-1.184,2.052-2.304,4-3.432,5.944c-0.208,0.359-0.33,0.666,0.274,0.668c2.285,0.005,4.569,0.002,6.996,0.002
			c-0.323-0.575-0.539-1.058-0.844-1.475c-0.417-0.571-0.319-0.85,0.314-1.206c3.625-2.046,7.222-4.142,10.824-6.228
			c1.353-0.783,1.323-0.778,0.542-2.176c-0.317-0.567-0.547-0.753-1.201-0.366c-3.34,1.978-6.712,3.9-10.077,5.835
			c-0.648,0.373-1.361,1.062-1.961,0.981c-0.711-0.095-0.828-1.202-1.287-1.813C55.878,81.033,55.856,81.012,55.749,80.89z"/>
		<path fill-rule="evenodd" clip-rule="evenodd" fill="#818181" d="M113.579,86.932c0,8.631-0.009,17.261,0.019,25.891
			c0.002,0.647-0.127,0.775-0.774,0.774c-14.993-0.023-29.985-0.018-44.978-0.018c0.177-0.125,0.346-0.263,0.533-0.371
			c9.145-5.326,18.29-10.652,27.438-15.972C101.733,93.796,107.658,90.366,113.579,86.932z"/>
		<path fill-rule="evenodd" clip-rule="evenodd" fill="#242124" d="M20.599,113.579c0.116-0.58,0.685-0.641,1.069-0.865
			c14.19-8.289,28.393-16.555,42.588-24.833c4.798-2.799,9.58-5.623,14.369-8.436c0.326-0.191,0.646-0.393,0.98-0.567
			c1.44-0.757,1.44-0.753,0.621-2.225c-1.356-2.437-2.713-4.873-4.066-7.312c-0.27-0.485-0.436-0.711-1.167-0.428
			c-4.892,1.894-9.666,4.08-14.633,5.797c-3.021,1.044-5.901,2.491-8.867,3.701c-7.931,3.237-15.639,6.95-23.161,11.031
			c-5.89,3.196-11.514,6.834-16.7,11.11c-3.627,2.991-6.804,6.425-9.855,9.984c-0.539,0.629-0.721,1.554-1.588,1.906
			c0-1.826,0-3.653,0-5.48c1.891-1.885,3.701-3.85,5.7-5.628c3.959-3.522,8.211-6.647,12.709-9.438
			c10.073-6.249,20.805-11.173,31.699-15.782c5.959-2.521,12.034-4.739,18.04-7.135c2.158-0.861,4.3-1.763,6.47-2.596
			c0.663-0.255,0.977-0.133,1.311,0.47c1.956,3.53,3.945,7.043,5.95,10.61c2.294-1.332,4.55-2.663,6.829-3.951
			c0.561-0.317,0.234-0.595,0.067-0.892c-1.86-3.311-3.707-6.629-5.606-9.917c-0.421-0.729-0.314-1.053,0.412-1.474
			c9.695-5.605,19.372-11.244,29.056-16.87c0.235-0.137,0.434-0.377,0.752-0.33c0,1.008,0,2.016,0,3.023
			c-0.062,0.009-0.134,0.001-0.185,0.03c-9.186,5.343-18.368,10.693-27.561,16.025c-0.507,0.294-0.442,0.531-0.199,0.959
			c1.485,2.618,2.958,5.243,4.399,7.887c0.32,0.586,0.583,0.619,1.141,0.287c2.612-1.556,5.255-3.06,7.881-4.593
			c4.844-2.829,9.683-5.666,14.524-8.5c0,0.504,0,1.008,0,1.512c-7.597,4.416-15.197,8.829-22.792,13.249
			c-11.824,6.882-23.643,13.771-35.465,20.653c-10.577,6.157-21.156,12.309-31.729,18.473c-0.255,0.148-0.602,0.205-0.727,0.541
			C22.111,113.579,21.355,113.579,20.599,113.579z"/>
		<path fill-rule="evenodd" clip-rule="evenodd" fill="#6085A2" d="M113.579,59.151c-4.841,2.834-9.681,5.671-14.524,8.5
			c-2.625,1.533-5.269,3.037-7.881,4.593c-0.557,0.332-0.821,0.299-1.141-0.287c-1.44-2.644-2.914-5.269-4.399-7.887
			c-0.243-0.428-0.308-0.665,0.199-0.959c9.193-5.332,18.375-10.682,27.561-16.025c0.05-0.029,0.123-0.021,0.185-0.03
			C113.579,51.088,113.579,55.12,113.579,59.151z"/>
		<path fill-rule="evenodd" clip-rule="evenodd" fill="#242124" d="M113.579,86.932c-5.921,3.435-11.845,6.864-17.763,10.305
			c-9.149,5.319-18.293,10.646-27.438,15.972c-0.187,0.108-0.355,0.246-0.533,0.371c-2.52,0-5.04,0-7.559,0
			c-0.135-0.431,0.302-0.413,0.472-0.512c17.457-10.179,34.923-20.339,52.391-30.497c0.132-0.077,0.286-0.117,0.43-0.174
			C113.579,83.908,113.579,85.42,113.579,86.932z"/>
		<path fill-rule="evenodd" clip-rule="evenodd" fill="#242124" d="M70.36,13.992c-0.374,0.561-0.759,1.114-1.122,1.682
			c-1.926,3.018-4.002,5.938-5.828,9.02c-0.317,0.535-0.765,0.869-1.387,1.039c-15.608,4.271-31.217,8.543-46.815,12.852
			c-1.194,0.33-2.105,0.081-2.883-0.791c-1.737-1.946-2.768-4.24-3.248-6.792c-0.041-0.216-0.063-0.436-0.097-0.652
			c-0.26-1.618,0.273-2.657,1.748-3.359C25,20.2,39.281,13.424,53.536,6.597c1.317-0.631,2.471-0.817,3.929-0.42
			c4.267,1.161,8.588,2.121,12.887,3.167c0.311,0.076,0.571,0.114,0.899-0.03c1.056-0.464,1.854,0.041,1.967,1.2
			c0.021,0.219,0.008,0.44,0.008,0.661c0,6.014,0,12.028,0,18.042c0,1.457-0.393,2.086-1.313,2.115
			c-0.942,0.029-1.38-0.65-1.38-2.147c0-5.037,0-10.075,0-15.112C70.474,14.046,70.417,14.019,70.36,13.992z M19.829,24.184
			c-0.063,0-0.135-0.022-0.187,0.001c-2.982,1.384-5.962,2.774-8.945,4.157c-0.315,0.146-0.369,0.413-0.365,0.702
			c0.047,3.13,0.861,5.945,3.304,8.105c0.268,0.236,0.52,0.341,0.846,0.25c3.133-0.871,6.266-1.747,9.398-2.621
			c2.87-0.771,5.739-1.542,8.608-2.313c0.211-0.048,0.425-0.088,0.634-0.147c3.153-0.887,6.352-1.61,9.464-2.64
			c2.848-0.783,5.695-1.565,8.542-2.348c1.892-0.263,3.682-0.928,5.519-1.406c1.027-0.268,2.084-0.453,2.97-0.854
			c-4.508-4.715-6.559-10.286-6.496-16.74c-2.555,1.207-5.155,2.435-7.756,3.663c-2.706,1.275-5.454,2.463-8.09,3.882
			c-3.18,1.354-6.279,2.881-9.386,4.39C25.203,21.572,22.516,22.878,19.829,24.184z M54.565,10.178
			c0.37,4.61,1.846,8.813,4.667,12.513c0.438,0.576,0.972,1.076,1.595,1.46c0.645,0.398,1.152,0.34,1.516-0.418
			c0.413-0.861,0.454-1.768,0.378-2.674c-0.35-4.221-1.751-8.077-4.171-11.549c-0.625-0.898-1.308-1.753-2.39-2.197
			c-0.668-0.274-1.001-0.044-1.248,0.542C54.599,8.598,54.588,9.381,54.565,10.178z M64.119,21.033
			c2.122-3.231,4.13-6.301,6.153-9.361c0.405-0.613,0.325-0.918-0.437-1.088c-1.804-0.403-3.593-0.867-5.39-1.301
			c-1.69-0.408-3.383-0.808-5.268-1.257C62.037,11.987,63.587,16.226,64.119,21.033z"/>
		<path fill-rule="evenodd" clip-rule="evenodd" fill="#242124" d="M72.101,45.382c0.126,0,0.251,0.002,0.377,0
			c0.458-0.011,0.846,0.131,0.879,0.638c0.035,0.523-0.34,0.669-0.802,0.707c-1.125,0.091-2.252,0.166-3.37,0.315
			c-7.017,0.938-13.851,2.687-20.616,4.722c-7.17,2.158-14.177,4.745-20.901,8.063c-0.084,0.042-0.172,0.079-0.257,0.118
			c-0.448,0.207-0.932,0.41-1.203-0.197c-0.242-0.544,0.191-0.798,0.594-0.997c0.986-0.487,1.971-0.98,2.976-1.43
			c11.513-5.155,23.492-8.811,35.89-11.106C67.793,45.819,69.932,45.478,72.101,45.382z"/>
		<path fill-rule="evenodd" clip-rule="evenodd" fill="#242124" d="M74.515,50.419c0.093-0.009,0.187-0.017,0.28-0.028
			c0.47-0.054,0.946-0.022,1.013,0.554c0.076,0.654-0.462,0.754-0.94,0.789c-0.973,0.071-1.93,0.215-2.88,0.428
			c-10.153,2.274-19.905,5.673-29.184,10.4c-0.28,0.143-0.56,0.285-0.839,0.429c-0.411,0.211-0.823,0.231-1.065-0.207
			c-0.257-0.465,0.046-0.777,0.44-0.982c1.339-0.696,2.659-1.435,4.032-2.059c7.505-3.41,15.245-6.167,23.236-8.2
			C70.551,51.048,72.506,50.584,74.515,50.419z"/>
		<path fill-rule="evenodd" clip-rule="evenodd" fill="#242124" d="M17.795,59.644c1.082,0.625,2.08,1.201,3.076,1.778
			c0.217,0.126,0.44,0.245,0.646,0.387c0.342,0.235,0.561,0.561,0.325,0.957c-0.227,0.382-0.594,0.417-0.983,0.194
			c-0.926-0.531-1.856-1.056-2.781-1.586c-0.966-0.555-0.966-0.558-0.967,0.596c-0.001,0.977-0.005,1.952,0.001,2.929
			c0.003,0.478-0.089,0.96-0.639,0.982c-0.623,0.026-0.716-0.5-0.719-0.996c-0.008-1.287-0.002-2.574-0.002-4.043
			c-1.031,0.587-1.942,1.105-2.854,1.625c-0.273,0.155-0.547,0.308-0.817,0.468c-0.414,0.246-0.819,0.238-1.06-0.195
			c-0.221-0.396,0.007-0.731,0.367-0.943c0.892-0.527,1.793-1.039,2.688-1.561c0.296-0.173,0.586-0.356,0.981-0.599
			c-1.092-0.635-2.107-1.225-3.122-1.815c-0.19-0.111-0.379-0.223-0.567-0.336c-0.374-0.225-0.552-0.566-0.34-0.951
			c0.252-0.459,0.688-0.382,1.071-0.167c1.171,0.659,2.33,1.337,3.652,2.099c0-1.148,0-2.166,0-3.183c0-0.252-0.002-0.504,0-0.756
			c0.004-0.52,0.01-1.118,0.706-1.103c0.713,0.015,0.643,0.649,0.649,1.144c0.013,0.944,0.004,1.89,0.004,2.834
			c0,0.307,0,0.614,0,1.066c1.231-0.706,2.339-1.339,3.444-1.976c0.456-0.262,0.973-0.542,1.3,0.072
			c0.292,0.548-0.186,0.842-0.61,1.087C20.129,58.293,19.017,58.938,17.795,59.644z"/>
		<path fill-rule="evenodd" clip-rule="evenodd" fill="#242124" d="M88.858,43.28c1.122-0.643,2.231-1.276,3.338-1.914
			c0.424-0.244,0.906-0.521,1.242,0.018c0.375,0.601-0.139,0.896-0.586,1.155c-1.111,0.645-2.223,1.287-3.424,1.982
			c1.162,0.678,2.243,1.311,3.326,1.94c0.465,0.27,1.078,0.544,0.691,1.192c-0.395,0.661-0.938,0.204-1.389-0.049
			c-0.903-0.506-1.806-1.016-2.689-1.558c-0.473-0.29-0.651-0.24-0.638,0.348c0.023,1.039,0.009,2.079,0.007,3.118
			c-0.001,0.533,0.077,1.233-0.653,1.238c-0.789,0.005-0.701-0.728-0.704-1.285c-0.007-1.189-0.002-2.378-0.002-3.751
			c-1.044,0.598-1.957,1.121-2.869,1.642c-0.272,0.156-0.549,0.305-0.82,0.464c-0.374,0.22-0.746,0.239-0.999-0.141
			c-0.292-0.441-0.049-0.781,0.339-1.013c0.89-0.53,1.792-1.041,2.687-1.562c0.296-0.172,0.585-0.356,0.969-0.59
			c-1.179-0.685-2.278-1.331-3.385-1.962c-0.458-0.262-0.969-0.561-0.628-1.149c0.35-0.604,0.879-0.258,1.315-0.011
			c1.085,0.615,2.162,1.245,3.39,1.954c0-1.222,0-2.307,0-3.391c0-0.283-0.012-0.567,0.005-0.85
			c0.028-0.452,0.199-0.829,0.718-0.815c0.479,0.013,0.616,0.398,0.623,0.797c0.02,1.039,0.001,2.079,0.017,3.118
			C88.745,42.541,88.65,42.889,88.858,43.28z"/>
		<path fill-rule="evenodd" clip-rule="evenodd" fill="#242124" d="M32.655,71.17c-1.222-0.706-2.333-1.354-3.449-1.991
			c-0.432-0.247-0.891-0.542-0.604-1.089c0.33-0.628,0.85-0.32,1.295-0.067c1.108,0.629,2.213,1.266,3.43,1.963
			c0-1.427,0.001-2.712,0-3.997c0-0.352,0.009-0.708,0.327-0.936c0.181-0.129,0.397-0.167,0.625-0.059
			c0.388,0.185,0.4,0.545,0.403,0.885c0.013,1.32,0.005,2.641,0.005,4.12c1.215-0.699,2.317-1.333,3.42-1.967
			c0.449-0.258,0.977-0.569,1.311,0.035c0.331,0.597-0.209,0.883-0.658,1.141c-1.087,0.626-2.171,1.259-3.385,1.964
			c1.075,0.622,2.062,1.194,3.049,1.767c0.245,0.142,0.505,0.264,0.728,0.434c0.295,0.225,0.488,0.545,0.283,0.9
			c-0.219,0.381-0.579,0.452-0.975,0.225c-0.872-0.499-1.743-0.999-2.616-1.496c-0.321-0.183-0.648-0.355-1.158-0.636
			c0,0.649,0,1.16,0,1.671c0,0.661,0.013,1.323-0.003,1.984c-0.014,0.572,0.162,1.403-0.698,1.373
			c-0.819-0.028-0.643-0.854-0.653-1.426c-0.017-0.913-0.046-1.829,0.008-2.739c0.05-0.839-0.232-0.797-0.814-0.438
			c-0.934,0.577-1.897,1.108-2.847,1.661c-0.404,0.235-0.816,0.274-1.068-0.164c-0.256-0.446,0.021-0.773,0.41-1.001
			C30.184,72.606,31.35,71.93,32.655,71.17z"/>
		<path fill-rule="evenodd" clip-rule="evenodd" fill="#242124" d="M12.764,73.209c1.242-0.712,2.352-1.344,3.458-1.983
			c0.459-0.265,0.976-0.53,1.291,0.092c0.28,0.554-0.206,0.838-0.629,1.081c-1.114,0.642-2.225,1.287-3.434,1.986
			c1.193,0.689,2.307,1.328,3.415,1.975c0.441,0.258,0.973,0.557,0.613,1.154c-0.363,0.605-0.869,0.25-1.31-0.003
			c-0.925-0.532-1.86-1.048-2.772-1.603c-0.464-0.282-0.653-0.256-0.64,0.344c0.024,1.07,0.004,2.142,0.008,3.213
			c0.002,0.517,0.019,1.143-0.651,1.15c-0.733,0.009-0.706-0.653-0.708-1.192c-0.004-1.221-0.001-2.442-0.001-3.846
			c-1.042,0.596-1.954,1.117-2.866,1.638c-0.273,0.156-0.549,0.306-0.819,0.466C7.3,77.93,6.9,77.903,6.668,77.467
			c-0.213-0.402,0.026-0.727,0.385-0.938c0.893-0.525,1.793-1.038,2.688-1.561c0.296-0.173,0.585-0.356,0.972-0.592
			c-1.261-0.732-2.444-1.419-3.627-2.104c-0.403-0.233-0.629-0.57-0.398-1.011c0.188-0.357,0.549-0.389,0.905-0.22
			c0.226,0.106,0.442,0.236,0.66,0.36c1.002,0.571,2.004,1.144,3.151,1.799c0-1.181,0-2.232,0-3.284
			c0-0.283-0.006-0.567,0.001-0.851c0.014-0.479,0.141-0.922,0.718-0.91c0.537,0.01,0.628,0.458,0.635,0.884
			c0.016,1.039,0.005,2.078,0.006,3.118C12.764,72.461,12.764,72.765,12.764,73.209z"/>
		<path fill-rule="evenodd" clip-rule="evenodd" fill="#242124" d="M55.749,80.89c0.108,0.122,0.129,0.144,0.148,0.168
			c0.459,0.61,0.576,1.718,1.287,1.813c0.6,0.08,1.313-0.608,1.961-0.981c3.365-1.935,6.737-3.857,10.077-5.835
			c0.653-0.387,0.883-0.201,1.201,0.366c0.782,1.397,0.811,1.393-0.542,2.176c-3.602,2.086-7.199,4.182-10.824,6.228
			c-0.633,0.356-0.731,0.635-0.314,1.206c0.305,0.417,0.521,0.899,0.844,1.475c-2.427,0-4.711,0.003-6.996-0.002
			c-0.604-0.002-0.482-0.309-0.274-0.668C53.444,84.89,54.565,82.941,55.749,80.89z"/>
		<path fill-rule="evenodd" clip-rule="evenodd" fill="#E7461E" d="M45.367,11.995c2.601-1.228,5.201-2.456,7.756-3.663
			c-0.063,6.455,1.987,12.025,6.496,16.74c-0.885,0.401-1.942,0.585-2.97,0.854c-1.837,0.479-3.627,1.143-5.52,1.406
			c-0.156-0.192-0.292-0.405-0.47-0.573c-1.504-1.406-2.621-3.085-3.531-4.918C45.581,18.729,45.175,15.417,45.367,11.995z"/>
		<path fill-rule="evenodd" clip-rule="evenodd" fill="#FEFEFE" d="M45.367,11.995c-0.192,3.421,0.214,6.734,1.761,9.846
			c0.911,1.833,2.027,3.512,3.531,4.918c0.179,0.167,0.314,0.381,0.47,0.573c-2.847,0.783-5.694,1.565-8.542,2.348
			c-1.804-1.504-3.197-3.315-4.175-5.457c-1.221-2.673-1.428-5.473-1.135-8.346C39.913,14.458,42.661,13.27,45.367,11.995z"/>
		<path fill-rule="evenodd" clip-rule="evenodd" fill="#E7461E" d="M37.276,15.877c-0.293,2.874-0.085,5.673,1.135,8.346
			c0.978,2.142,2.372,3.953,4.175,5.457c-3.113,1.029-6.312,1.753-9.464,2.64c-0.208,0.059-0.422,0.099-0.634,0.147
			c-0.108-0.152-0.196-0.324-0.327-0.453c-2.076-2.042-3.306-4.533-3.953-7.347c-0.334-1.454-0.188-2.936-0.318-4.4
			C30.998,18.758,34.097,17.231,37.276,15.877z"/>
		<path fill-rule="evenodd" clip-rule="evenodd" fill="#FEFEFE" d="M27.89,20.267c0.13,1.464-0.016,2.946,0.318,4.4
			c0.647,2.813,1.877,5.304,3.953,7.347c0.131,0.128,0.219,0.3,0.327,0.453c-2.869,0.771-5.738,1.542-8.608,2.313
			c-0.57-0.667-1.228-1.248-1.75-1.964c-1.886-2.585-2.501-5.497-2.301-8.631C22.516,22.878,25.203,21.572,27.89,20.267z"/>
		<path fill-rule="evenodd" clip-rule="evenodd" fill="#E7461E" d="M19.829,24.184c-0.2,3.135,0.416,6.046,2.301,8.631
			c0.522,0.716,1.181,1.297,1.75,1.964c-3.132,0.874-6.265,1.75-9.398,2.621c-0.326,0.091-0.578-0.014-0.846-0.25
			c-2.443-2.16-3.257-4.975-3.304-8.105c-0.004-0.29,0.05-0.556,0.365-0.702c2.983-1.383,5.963-2.773,8.945-4.157
			C19.694,24.161,19.766,24.183,19.829,24.184z"/>
		<path fill-rule="evenodd" clip-rule="evenodd" fill="#FEFEFE" d="M54.565,10.178c0.023-0.796,0.034-1.58,0.347-2.324
			c0.247-0.586,0.58-0.816,1.248-0.542c1.082,0.444,1.765,1.299,2.39,2.197c2.42,3.473,3.821,7.328,4.171,11.549
			c0.076,0.907,0.035,1.813-0.378,2.674c-0.364,0.759-0.871,0.816-1.516,0.418c-0.623-0.384-1.156-0.884-1.595-1.46
			C56.411,18.991,54.935,14.788,54.565,10.178z"/>
		<path fill-rule="evenodd" clip-rule="evenodd" fill="#FEFEFE" d="M64.119,21.033c-0.532-4.807-2.082-9.045-4.941-13.007
			c1.884,0.449,3.577,0.849,5.268,1.257c1.797,0.434,3.586,0.898,5.39,1.301c0.761,0.17,0.841,0.475,0.437,1.088
			C68.249,14.731,66.241,17.801,64.119,21.033z"/>
	</g>
</g>
<g id="Layer_2">
</g>
<g id="Layer_2_copy">
</g>
</svg>
