<?xml version="1.0" encoding="utf-8"?>
<!-- Generator: Adobe Illustrator 16.0.0, SVG Export Plug-In . SVG Version: 6.00 Build 0)  -->
<!DOCTYPE svg PUBLIC "-//W3C//DTD SVG 1.1//EN" "http://www.w3.org/Graphics/SVG/1.1/DTD/svg11.dtd">
<svg version="1.1" xmlns="http://www.w3.org/2000/svg" xmlns:xlink="http://www.w3.org/1999/xlink" x="0px" y="0px"
	 width="113.39px" height="113.39px" viewBox="0 0 113.39 113.39" enable-background="new 0 0 113.39 113.39" xml:space="preserve">
<g id="Layer_1">
	<g>
		<path fill-rule="evenodd" clip-rule="evenodd" fill="#FFFFFF" d="M0.188,106.964C0.188,71.656,0.19,36.348,0.17,1.04
			c0-0.708,0.16-0.869,0.868-0.868c37.229,0.02,74.46,0.02,111.689,0c0.708,0,0.869,0.159,0.868,0.868
			c-0.024,14.331-0.018,28.662-0.018,42.994c-0.437,0.79-1.217,1.16-1.948,1.584c-6.807,3.947-13.603,7.912-20.405,11.864
			c-2.123,1.233-4.235,2.483-6.368,3.699c-1.178,0.671-1.245,0.953-0.548,2.163c1.68,2.918,3.329,5.854,4.917,8.822
			c0.619,1.159,0.57,1.306-0.507,1.969c-1.876,1.154-3.798,2.233-5.702,3.342c-0.873,0.508-1.253,0.375-1.764-0.5
			c-1.713-2.936-3.35-5.914-5.014-8.878c-0.704-1.254-0.961-1.387-2.331-0.841c-3.42,1.361-6.804,2.82-10.263,4.074
			c-3.642,1.32-7.219,2.797-10.814,4.228c-4.063,1.616-8.038,3.447-12.042,5.208c-4.873,2.142-9.594,4.603-14.291,7.09
			c-6.098,3.228-11.889,6.95-17.277,11.298c-1.941,1.566-3.677,3.34-5.583,4.932c-0.897,0.749-1.493,1.79-2.391,2.542
			C0.943,106.883,0.671,107.264,0.188,106.964z"/>
		<path fill-rule="evenodd" clip-rule="evenodd" fill="#FFFFFF" d="M113.578,60.663c0,7.245,0,14.489,0,21.733
			c-0.273,0.557-0.711,0.937-1.244,1.245c-8.575,4.972-17.14,9.962-25.708,14.945c-6.202,3.608-12.412,7.202-18.598,10.839
			c-1.979,1.164-3.987,2.282-5.956,3.466c-0.614,0.37-1.342,0.39-1.977,0.688c-12.41,0-24.82,0-37.229,0
			c-0.272-0.597,0.21-0.779,0.571-1.005c2.429-1.517,4.938-2.898,7.41-4.345c5.568-3.26,11.151-6.493,16.729-9.736
			c7.999-4.649,15.99-9.313,23.993-13.957c5.744-3.333,11.468-6.7,17.205-10.045c7.803-4.549,15.614-9.083,23.417-13.633
			C112.607,60.615,113.051,60.258,113.578,60.663z"/>
		<path fill-rule="evenodd" clip-rule="evenodd" fill="#FFFFFF" d="M20.409,113.579c-6.366,0-12.731-0.027-19.097,0.028
			c-0.976,0.009-1.333-0.206-1.124-1.163c0.532-2.112,2.214-3.448,3.546-4.961c3.373-3.827,7.144-7.242,11.292-10.248
			c5.263-3.814,10.831-7.092,16.568-10.135c5.093-2.7,10.288-5.201,15.568-7.462c5.777-2.474,11.53-5.037,17.491-7.095
			c3.442-1.188,6.742-2.793,10.145-4.118c0.853-0.333,1.189-0.279,1.648,0.497c1.583,2.683,3.125,5.39,4.557,8.157
			c0.556,1.073,0.434,1.402-0.576,1.988c-8.084,4.69-16.154,9.403-24.233,14.102c-9.686,5.632-19.372,11.26-29.05,16.905
			c-1.358,0.793-2.749,1.537-4.058,2.41C22.258,113.038,21.317,113.254,20.409,113.579z"/>
		<path fill-rule="evenodd" clip-rule="evenodd" fill="#797979" d="M113.578,86.932c0,8.631-0.01,17.261,0.018,25.891
			c0.003,0.647-0.127,0.775-0.774,0.774c-14.992-0.023-29.985-0.018-44.978-0.018c-0.22-0.719,0.435-0.849,0.807-1.077
			c1.85-1.136,3.735-2.212,5.614-3.3c5.282-3.057,10.551-6.136,15.827-9.204c7.342-4.27,14.692-8.525,22.019-12.824
			C112.548,86.917,113.008,86.51,113.578,86.932z"/>
		<path fill-rule="evenodd" clip-rule="evenodd" fill="#020202" d="M20.409,113.579c2.772-1.821,5.673-3.429,8.535-5.097
			c14.512-8.46,29.033-16.902,43.552-25.35c2.629-1.529,5.248-3.076,7.898-4.57c0.578-0.325,0.619-0.592,0.313-1.131
			c-1.58-2.778-3.135-5.57-4.685-8.364c-0.187-0.336-0.283-0.543-0.769-0.349c-5.035,2.025-10.072,4.048-15.119,6.045
			c-7.054,2.791-14.042,5.758-20.889,9.063c-5.802,2.803-11.514,5.743-17.001,9.106c-5.259,3.224-10.253,6.83-14.656,11.17
			c-2.475,2.438-4.883,4.959-6.851,7.851c-0.141,0.206-0.296,0.407-0.55,0.49c0-1.826,0-3.653,0-5.48
			c1.915-1.861,3.709-3.845,5.712-5.621c4.085-3.624,8.478-6.827,13.124-9.688c9.971-6.14,20.57-11.004,31.335-15.546
			c8.057-3.399,16.287-6.354,24.37-9.679c0.777-0.319,1.082-0.102,1.444,0.554c1.807,3.271,3.678,6.506,5.471,9.783
			c0.354,0.646,0.607,0.641,1.174,0.298c1.937-1.172,3.895-2.31,5.867-3.418c0.538-0.303,0.581-0.547,0.28-1.073
			c-1.905-3.329-3.767-6.684-5.662-10.019c-0.283-0.5-0.407-0.796,0.236-1.168c9.85-5.703,19.683-11.435,29.522-17.157
			c0.157-0.091,0.343-0.133,0.516-0.198c0,1.008,0,2.016,0,3.023c-0.494,0.934-1.461,1.259-2.29,1.744
			c-7.144,4.175-14.31,8.313-21.445,12.501c-1.004,0.589-2.023,1.151-3.03,1.736c-0.633,0.368-0.814,0.822-0.452,1.485
			c1.222,2.235,2.441,4.474,3.793,6.636c0.442,0.708,0.775,0.741,1.67,0.208c1.893-1.128,3.8-2.229,5.704-3.336
			c4.787-2.782,9.565-5.581,14.366-8.339c0.481-0.276,0.987-0.914,1.685-0.352c0,0.44,0,0.882,0,1.322
			c-2.859,1.633-5.728,3.248-8.575,4.9c-7.108,4.127-14.208,8.271-21.31,12.409c-20.014,11.665-40.026,23.33-60.036,35.003
			c-0.282,0.165-0.665,0.224-0.791,0.604C22.047,113.579,21.229,113.579,20.409,113.579z"/>
		<path fill-rule="evenodd" clip-rule="evenodd" fill="#FFFFFF" d="M113.578,59.341c-2.765,1.415-5.391,3.074-8.079,4.624
			c-4.728,2.727-9.438,5.484-14.143,8.251c-0.668,0.393-1.014,0.392-1.429-0.386c-1.402-2.624-2.888-5.204-4.378-7.78
			c-0.286-0.495-0.24-0.698,0.259-0.987c9.093-5.269,18.175-10.558,27.258-15.844c0.16-0.093,0.297-0.245,0.512-0.162
			C113.578,51.151,113.578,55.246,113.578,59.341z"/>
		<path fill-rule="evenodd" clip-rule="evenodd" fill="#020202" d="M113.578,86.932c-4.112,2.376-8.23,4.742-12.336,7.129
			c-10.771,6.26-21.536,12.528-32.302,18.797c-0.377,0.22-0.731,0.479-1.097,0.722c-2.583,0-5.165,0-7.748,0
			c3.157-1.862,6.306-3.737,9.472-5.582c14.527-8.468,29.06-16.926,43.591-25.387c0.136-0.078,0.279-0.143,0.42-0.214
			C113.578,83.908,113.578,85.42,113.578,86.932z"/>
		<path fill-rule="evenodd" clip-rule="evenodd" fill="#020202" d="M70.495,14.421c-1.688,2.572-3.377,5.145-5.066,7.717
			c-0.311,0.473-0.708,0.911-0.919,1.425c-0.758,1.84-2.2,2.532-4.06,3.034c-15.075,4.065-30.123,8.228-45.173,12.384
			c-0.99,0.273-1.814,0.137-2.508-0.582c-2.227-2.312-3.398-5.113-3.628-8.286c-0.094-1.31,0.576-2.195,1.825-2.787
			c14.261-6.75,28.513-13.521,42.739-20.344c1.364-0.654,2.561-0.802,4.034-0.406c4.217,1.133,8.48,2.091,12.722,3.13
			c0.381,0.093,0.693,0.105,1.078-0.065c0.881-0.389,1.637,0.058,1.817,1.016c0.058,0.305,0.045,0.626,0.045,0.94
			c0.002,5.983,0.002,11.966,0.002,17.949c0,0.158,0.004,0.315-0.003,0.473c-0.041,1.074-0.553,1.703-1.366,1.685
			c-0.805-0.018-1.305-0.659-1.307-1.754c-0.009-4.818-0.004-9.636-0.004-14.454c0-0.337,0-0.674,0-1.011
			C70.648,14.465,70.571,14.443,70.495,14.421z"/>
		<path fill-rule="evenodd" clip-rule="evenodd" fill="#020202" d="M71.127,45.501c0.407-0.036,0.813-0.077,1.221-0.106
			c0.476-0.034,0.938,0.041,0.985,0.614c0.05,0.605-0.418,0.683-0.892,0.71c-3.874,0.222-7.67,0.954-11.449,1.781
			c-6.334,1.386-12.553,3.179-18.687,5.282c-5.008,1.717-9.893,3.723-14.651,6.04c-0.197,0.096-0.396,0.202-0.605,0.26
			c-0.324,0.088-0.626,0.056-0.815-0.283c-0.195-0.351-0.033-0.62,0.226-0.823c0.219-0.172,0.483-0.288,0.736-0.413
			c8.189-4.028,16.778-6.978,25.555-9.406c5.487-1.518,11.036-2.764,16.686-3.524c0.56-0.076,1.127-0.099,1.69-0.146
			C71.127,45.492,71.127,45.497,71.127,45.501z"/>
		<path fill-rule="evenodd" clip-rule="evenodd" fill="#020202" d="M75.812,50.997c-0.023,0.564-0.443,0.68-0.85,0.723
			c-4.971,0.532-9.701,2.045-14.419,3.578c-6.196,2.014-12.272,4.332-18.037,7.405c-0.488,0.26-1.143,0.845-1.555,0.083
			c-0.468-0.863,0.478-1.013,0.977-1.27c9.616-4.944,19.743-8.462,30.297-10.767c0.886-0.194,1.801-0.266,2.705-0.359
			C75.37,50.344,75.748,50.477,75.812,50.997z"/>
		<path fill-rule="evenodd" clip-rule="evenodd" fill="#020202" d="M13.441,74.386c1.173,0.68,2.204,1.275,3.234,1.873
			c0.19,0.11,0.397,0.203,0.563,0.344c0.28,0.237,0.475,0.544,0.243,0.905c-0.251,0.392-0.617,0.388-0.991,0.175
			c-0.874-0.497-1.743-1.003-2.617-1.501c-0.318-0.181-0.646-0.347-1.119-0.601c0,1.194,0.001,2.253,0,3.311
			c-0.001,0.314,0.001,0.63-0.012,0.944c-0.017,0.422-0.189,0.77-0.647,0.776c-0.463,0.008-0.656-0.354-0.665-0.761
			c-0.025-1.133-0.052-2.267-0.009-3.397c0.032-0.821-0.229-0.819-0.827-0.446c-0.906,0.564-1.845,1.078-2.77,1.614
			c-0.424,0.246-0.87,0.35-1.142-0.155c-0.246-0.458,0.081-0.768,0.459-0.989c1.161-0.682,2.326-1.357,3.592-2.094
			c-1.211-0.702-2.316-1.347-3.426-1.985C6.882,72.154,6.4,71.87,6.685,71.316c0.325-0.633,0.854-0.324,1.297-0.073
			c1.087,0.614,2.167,1.241,3.429,1.967c0-1.219-0.001-2.27,0-3.32c0.001-0.314-0.01-0.63,0.015-0.943
			c0.03-0.406,0.173-0.758,0.655-0.771c0.501-0.014,0.644,0.356,0.653,0.755c0.026,1.007,0.006,2.014,0.024,3.021
			c0.007,0.366-0.096,0.75,0.148,1.184c0.983-0.565,1.953-1.124,2.924-1.682c0.218-0.125,0.432-0.26,0.657-0.368
			c0.374-0.18,0.771-0.216,0.998,0.188c0.258,0.456-0.028,0.779-0.41,1.004C15.912,72.96,14.742,73.632,13.441,74.386z"/>
		<path fill-rule="evenodd" clip-rule="evenodd" fill="#020202" d="M89.411,44.527c1.156,0.668,2.17,1.234,3.162,1.836
			c0.477,0.289,1.305,0.526,0.847,1.28c-0.459,0.755-1.056,0.107-1.541-0.155c-1.01-0.546-1.998-1.133-3.154-1.794
			c0,1.231,0.001,2.291,0,3.35c-0.001,0.314,0.001,0.629-0.012,0.944c-0.019,0.424-0.201,0.767-0.659,0.766
			c-0.462,0-0.645-0.368-0.654-0.774c-0.023-1.069-0.014-2.14-0.019-3.209c-0.005-1.072-0.007-1.074-0.902-0.56
			c-0.899,0.517-1.796,1.039-2.694,1.558c-0.425,0.245-0.872,0.34-1.135-0.173c-0.237-0.463,0.098-0.765,0.474-0.985
			c1.161-0.681,2.326-1.356,3.584-2.088c-1.215-0.703-2.324-1.349-3.438-1.989c-0.428-0.246-0.902-0.538-0.61-1.086
			c0.334-0.625,0.861-0.308,1.304-0.058c1.086,0.613,2.165,1.24,3.418,1.96c0-1.256-0.001-2.341,0.001-3.427
			c0.001-0.314-0.013-0.632,0.025-0.942c0.046-0.374,0.228-0.665,0.657-0.666c0.441-0.002,0.617,0.302,0.628,0.677
			c0.028,1.038,0.014,2.076,0.037,3.114c0.008,0.365-0.104,0.75,0.154,1.166c1.092-0.627,2.172-1.251,3.256-1.871
			c0.445-0.254,0.977-0.575,1.314,0.028c0.337,0.603-0.222,0.882-0.663,1.139C91.707,43.197,90.621,43.826,89.411,44.527z"/>
		<path fill-rule="evenodd" clip-rule="evenodd" fill="#020202" d="M15.76,60.817c-1.301,0.747-2.389,1.367-3.472,1.994
			c-0.43,0.248-0.905,0.5-1.232-0.054c-0.332-0.561,0.143-0.856,0.557-1.101c1.107-0.651,2.224-1.288,3.47-2.008
			c-1.119-0.652-2.133-1.241-3.146-1.831c-0.217-0.126-0.449-0.234-0.646-0.387c-0.298-0.231-0.465-0.554-0.245-0.905
			c0.283-0.451,0.706-0.347,1.082-0.136c1.146,0.644,2.282,1.308,3.629,2.083c0-1.295-0.024-2.432,0.011-3.568
			c0.018-0.575-0.249-1.473,0.714-1.438c0.87,0.032,0.589,0.892,0.607,1.436c0.039,1.124,0.012,2.25,0.012,3.565
			c1.061-0.604,1.971-1.121,2.881-1.639c0.273-0.155,0.538-0.326,0.817-0.468c0.404-0.206,0.826-0.248,1.06,0.215
			c0.206,0.411-0.047,0.725-0.402,0.934c-0.867,0.509-1.741,1.007-2.609,1.513c-0.317,0.186-0.628,0.382-1.032,0.628
			c1.032,0.603,1.979,1.154,2.925,1.707c0.244,0.143,0.493,0.276,0.731,0.429c0.348,0.222,0.597,0.534,0.378,0.942
			c-0.243,0.455-0.655,0.422-1.058,0.192c-1.173-0.668-2.342-1.342-3.576-2.05c-0.223,0.897-0.075,1.742-0.11,2.576
			c-0.021,0.502-0.004,1.007-0.008,1.51c-0.003,0.439-0.102,0.876-0.614,0.906c-0.584,0.034-0.711-0.438-0.716-0.902
			C15.75,63.646,15.76,62.33,15.76,60.817z"/>
		<path fill-rule="evenodd" clip-rule="evenodd" fill="#020202" d="M33.332,69.997c0-1.257-0.002-2.342,0.001-3.426
			c0.001-0.314-0.013-0.632,0.025-0.942c0.045-0.374,0.226-0.665,0.655-0.669c0.441-0.004,0.619,0.3,0.629,0.675
			c0.03,1.037,0.025,2.075,0.033,3.113c0.002,0.366,0,0.733,0,1.258c1.195-0.685,2.223-1.274,3.251-1.861
			c0.19-0.109,0.379-0.226,0.58-0.313c0.357-0.155,0.719-0.123,0.907,0.234c0.243,0.462-0.044,0.777-0.426,1.002
			c-1.164,0.683-2.333,1.355-3.629,2.107c1.093,0.63,2.089,1.203,3.085,1.778c0.245,0.142,0.507,0.265,0.723,0.442
			c0.282,0.233,0.469,0.545,0.231,0.907c-0.223,0.338-0.553,0.398-0.907,0.199c-0.959-0.539-1.91-1.09-2.871-1.625
			c-0.263-0.146-0.492-0.382-0.944-0.377c0,1.101,0.001,2.191-0.001,3.282c-0.001,0.314,0.004,0.63-0.021,0.943
			c-0.03,0.392-0.242,0.676-0.646,0.675c-0.406,0-0.627-0.3-0.642-0.681c-0.031-0.88-0.024-1.761-0.033-2.642
			c-0.002-0.22,0.001-0.44,0-0.66c-0.005-1.073-0.006-1.075-0.901-0.561c-0.899,0.517-1.795,1.038-2.693,1.557
			c-0.425,0.245-0.873,0.34-1.137-0.17c-0.238-0.462,0.096-0.766,0.472-0.986c1.161-0.681,2.325-1.356,3.585-2.09
			c-1.214-0.702-2.323-1.348-3.436-1.987c-0.427-0.245-0.903-0.536-0.611-1.086c0.333-0.627,0.859-0.311,1.302-0.061
			C30.998,68.649,32.077,69.275,33.332,69.997z"/>
		<path fill-rule="evenodd" clip-rule="evenodd" fill="#020202" d="M59.555,87.49c-2.419,0-4.654-0.004-6.89,0.003
			c-0.406,0.001-0.644-0.107-0.394-0.54c1.137-1.968,2.284-3.93,3.504-6.023c0.334,0.577,0.631,1.01,0.847,1.48
			c0.271,0.591,0.572,0.665,1.144,0.33c3.134-1.838,6.288-3.64,9.436-5.455c0.759-0.438,1.526-0.862,2.271-1.322
			c0.343-0.212,0.507-0.168,0.737,0.181c1.056,1.601,1.072,1.597-0.561,2.542c-3.551,2.056-7.094,4.122-10.666,6.139
			c-0.597,0.337-0.683,0.606-0.316,1.142C58.963,86.398,59.199,86.873,59.555,87.49z"/>
		<path fill-rule="evenodd" clip-rule="evenodd" fill="#020202" d="M45.713,12.33c-0.016-0.568,0.244-0.936,0.764-1.178
			c2.225-1.035,4.441-2.086,6.659-3.137c0.375-0.178,0.617-0.198,0.521,0.339c-0.555,3.08,0.129,6.008,1.14,8.88
			c1.065,3.027,2.487,5.853,4.96,8.016c0.423,0.37,0.411,0.565-0.156,0.723c-2.334,0.649-4.665,1.309-6.992,1.982
			c-0.502,0.145-0.847-0.086-1.198-0.364c-0.925-0.067-1.405-0.736-1.941-1.373c-2.858-3.399-4.226-7.346-4.39-11.75
			C45.049,13.675,45.139,12.936,45.713,12.33z"/>
		<path fill-rule="evenodd" clip-rule="evenodd" fill="#020202" d="M42.707,30.077c0.12,0.529-0.313,0.55-0.621,0.637
			c-2.691,0.76-5.388,1.505-8.081,2.259c-0.418,0.117-0.808,0.054-1.192-0.116c-1.618-0.631-2.357-2.089-3.173-3.446
			c-0.845-1.408-1.363-2.956-1.653-4.574c-0.076-0.428-0.157-0.888,0.337-1.166c0.012-1.003,0.041-2.007,0.029-3.01
			c-0.007-0.57,0.201-0.921,0.739-1.167c2.48-1.131,4.944-2.3,7.42-3.444c0.328-0.151,0.761-0.554,0.906,0.204
			c0.466,0.238,0.395,0.652,0.363,1.065c-0.341,4.371,0.998,8.141,4.036,11.312C42.21,29.041,42.819,29.345,42.707,30.077z"/>
		<path fill-rule="evenodd" clip-rule="evenodd" fill="#FFFFFF" d="M42.707,30.077c-3.812-3.152-5.552-7.239-5.461-12.143
			c0.011-0.561,0.112-1.12,0.172-1.68c2.723-1.398,5.492-2.698,8.295-3.925c-0.589,6.016,1.373,11.08,5.696,15.262
			c-2.552,0.914-5.204,1.479-7.796,2.257C43.315,29.938,43.01,30.001,42.707,30.077z"/>
		<path fill-rule="evenodd" clip-rule="evenodd" fill="#020202" d="M23.998,35.177c0.473,0.351,0.517,0.589-0.14,0.77
			c-2.941,0.811-5.878,1.639-8.813,2.471c-0.373,0.106-0.671,0.022-0.958-0.218c-2.81-2.342-4.382-5.213-3.843-8.983
			c0.099-0.688,0.395-1.211,1.091-1.526c2.606-1.179,5.192-2.403,7.785-3.612c0.435-0.203,0.913-0.543,0.934,0.349
			c0.247,0.185,0.317,0.419,0.306,0.733c-0.12,3.223,0.816,6.088,2.882,8.588C23.578,34.155,24.132,34.5,23.998,35.177z"/>
		<path fill-rule="evenodd" clip-rule="evenodd" fill="#FFFFFF" d="M23.998,35.177c-3.091-2.932-4.53-6.469-3.944-10.75
			c2.674-1.256,5.348-2.512,8.092-3.801c0.096,1.078-0.117,2.081,0.178,3.046c0.288,3.25,1.653,6.01,3.823,8.404
			c0.229,0.253,0.444,0.521,0.666,0.781c-2.724,0.729-5.447,1.459-8.172,2.185C24.43,35.098,24.213,35.132,23.998,35.177z"/>
		<path fill-rule="evenodd" clip-rule="evenodd" fill="#FFFFFF" d="M62.935,22.2c0.013,0.337-0.026,0.999-0.268,1.622
			c-0.412,1.064-0.921,1.215-1.86,0.566c-0.786-0.544-1.419-1.249-1.94-2.039c-2.522-3.827-4.126-7.957-4.065-12.616
			c0.01-0.79,0.039-1.767,0.805-2.079c0.821-0.335,1.521,0.375,2.084,0.978c2.445,2.627,3.733,5.846,4.652,9.241
			C62.695,19.179,62.924,20.512,62.935,22.2z"/>
		<path fill-rule="evenodd" clip-rule="evenodd" fill="#FFFFFF" d="M64.307,21.422c-0.545-4.818-2.079-9.017-4.775-12.788
			c0.207-0.225,0.422-0.115,0.613-0.068c3.296,0.799,6.588,1.614,9.888,2.398c0.672,0.16,0.858,0.425,0.46,1.03
			C68.473,15.064,66.46,18.139,64.307,21.422z"/>
	</g>
</g>
<g id="Layer_2">
</g>
<g id="Layer_2_copy">
</g>
</svg>
