<?xml version="1.0" encoding="utf-8"?>
<!-- Generator: Adobe Illustrator 16.0.0, SVG Export Plug-In . SVG Version: 6.00 Build 0)  -->
<!DOCTYPE svg PUBLIC "-//W3C//DTD SVG 1.1//EN" "http://www.w3.org/Graphics/SVG/1.1/DTD/svg11.dtd">
<svg version="1.1" id="Layer_1" xmlns="http://www.w3.org/2000/svg" xmlns:xlink="http://www.w3.org/1999/xlink" x="0px" y="0px"
	 width="1666px" height="1624px" viewBox="0 0 1666 1624" enable-background="new 0 0 1666 1624" xml:space="preserve">
<path display="none" fill-rule="evenodd" clip-rule="evenodd" fill="#FFFFFF" d="M-862,2284c0-826.666,0-1653.333,0-2480
	c1170.666,0,2341.332,0,3511.999,0C2650,630.666,2650,1457.332,2650,2283.998C1479.334,2283.999,308.667,2283.999-862,2284z
	 M1626.326,820.561c0.149-10.758-6.541-17.322-13.193-23.975c-249.146-249.121-498.273-498.259-747.432-747.367
	c-3.285-3.285-6.544-6.864-10.486-9.15c-3.854-2.235-8.477-3.616-12.924-4.267c-10.415-1.522-17.389,4.695-24.184,11.492
	C567.613,297.873,317.07,548.404,66.535,798.942c-1.414,1.414-2.891,2.772-4.223,4.26c-8.746,9.768-9.064,23.658-0.643,33.758
	c2.339,2.806,5.095,5.267,7.688,7.859c248.895,248.899,497.792,497.797,746.69,746.694c1.886,1.886,3.724,3.821,5.663,5.649
	c12.631,11.904,26.489,11.825,38.794-0.2c1.43-1.398,2.829-2.827,4.243-4.241c249.604-249.604,499.209-499.209,748.813-748.813
	c2.121-2.122,4.274-4.212,6.342-6.385C1624.504,832.683,1626.536,826.863,1626.326,820.561z M122.33,207.722
	c0-5.272,0-8.891,0-12.51c0-47.638,0.004-95.276-0.012-142.915c-0.001-2.994,0.177-6.046-0.326-8.969
	c-0.988-5.746-5.275-8.498-10.963-7.058c-2.539,0.643-4.927,1.972-7.302,3.153C86.74,47.869,69.772,56.354,52.8,64.832
	c-1.489,0.743-3.029,1.41-4.433,2.291c-5.821,3.649-6.913,7.068-3.897,13.314c2.166,4.486,4.548,8.893,7.154,13.138
	c4.685,7.629,6.925,8.234,14.47,4.106c5.424-2.968,10.725-6.163,16.959-9.765c0,40.517,0,79.585,0,119.753
	c-4.177,0-7.756,0.141-11.321-0.023c-17.72-0.813-18.474,2.656-18.1,17.807c0.295,11.966,2.187,14.14,13.896,14.195
	c14.991,0.071,29.982,0.02,44.974,0.018c7.329-0.001,14.665,0.187,21.985-0.063c8.674-0.297,10.942-2.806,11.153-11.661
	c0.096-3.996,0.212-8.009-0.051-11.989c-0.36-5.441-2.556-7.754-8.042-8.161C132.97,207.451,128.346,207.722,122.33,207.722z"/>
<path fill-rule="evenodd" clip-rule="evenodd" d="M1626.326,820.561c0.21,6.303-1.822,12.122-6.425,16.963
	c-2.067,2.173-4.221,4.263-6.342,6.385c-249.604,249.604-499.209,499.209-748.813,748.813c-1.414,1.414-2.813,2.843-4.243,4.241
	c-12.305,12.025-26.163,12.104-38.794,0.2c-1.939-1.828-3.777-3.764-5.663-5.649c-248.897-248.897-497.795-497.795-746.69-746.694
	c-2.592-2.593-5.348-5.054-7.688-7.859c-8.421-10.1-8.103-23.99,0.643-33.758c1.332-1.487,2.809-2.846,4.223-4.26
	C317.07,548.404,567.613,297.873,818.107,47.294c6.795-6.797,13.769-13.015,24.184-11.492c4.447,0.65,9.069,2.031,12.924,4.267
	c3.942,2.286,7.201,5.865,10.486,9.15c249.158,249.108,498.286,498.246,747.432,747.367
	C1619.785,803.238,1626.476,809.803,1626.326,820.561z M95.618,820.822c-0.521,0.592-1.043,1.183-1.564,1.774
	c2.746,3.079,5.345,6.304,8.256,9.216c242.021,242.066,484.066,484.109,726.118,726.146c2.119,2.118,4.174,4.366,6.575,6.118
	c3.918,2.856,8.103,2.867,11.951-0.253c2.063-1.672,3.886-3.646,5.772-5.526c31.629-31.537,63.285-63.048,94.87-94.629
	c210.021-210,420.025-420.014,630.034-630.024c2.121-2.121,4.403-4.112,6.292-6.425c1.321-1.617,2.101-3.677,3.593-6.396
	C1089.393,820.822,592.505,820.822,95.618,820.822z M772.257,461.594c78.671-50.257,156.919-100.245,235.982-150.754
	c5.021,4.423,9.942,8.304,14.347,12.704c105.624,105.532,211.191,211.121,316.775,316.695c2.355,2.355,4.612,4.847,7.188,6.939
	c10.399,8.449,25.203,7.871,34.694-1.21c9.827-9.403,10.83-24.588,2.139-35.376c-2.497-3.1-5.487-5.81-8.313-8.636
	c-161.66-161.672-323.327-323.337-484.992-485.003c-13.432-13.432-26.781-26.947-40.327-40.262
	c-6.72-6.604-11.031-6.442-18.011-0.014c-1.225,1.128-2.364,2.348-3.543,3.525C687.031,221.368,545.866,362.531,404.714,503.707
	c-2.235,2.235-4.316,4.625-6.47,6.943c0.375,0.516,0.751,1.03,1.126,1.546c78.896-44.746,157.792-89.493,236.636-134.21
	C681.748,406.056,726.852,433.732,772.257,461.594z"/>
<path display="none" fill-rule="evenodd" clip-rule="evenodd" d="M122.33,207.722c6.016,0,10.64-0.271,15.217,0.069
	c5.486,0.407,7.682,2.72,8.042,8.161c0.263,3.98,0.146,7.993,0.051,11.989c-0.211,8.855-2.479,11.364-11.153,11.661
	c-7.32,0.25-14.656,0.063-21.985,0.063c-14.991,0.002-29.983,0.054-44.974-0.018c-11.709-0.056-13.601-2.229-13.896-14.195
	c-0.374-15.15,0.38-18.62,18.1-17.807c3.565,0.164,7.144,0.023,11.321,0.023c0-40.168,0-79.236,0-119.753
	c-6.234,3.602-11.535,6.797-16.959,9.765c-7.544,4.128-9.785,3.522-14.47-4.106c-2.606-4.245-4.988-8.651-7.154-13.138
	c-3.015-6.246-1.923-9.665,3.897-13.314c1.404-0.881,2.944-1.548,4.433-2.291c16.972-8.478,33.939-16.963,50.927-25.408
	c2.375-1.182,4.763-2.511,7.302-3.153c5.688-1.44,9.975,1.312,10.963,7.058c0.503,2.923,0.325,5.975,0.326,8.969
	c0.016,47.639,0.012,95.277,0.012,142.915C122.33,198.831,122.33,202.449,122.33,207.722z"/>
<path fill-rule="evenodd" clip-rule="evenodd" fill="#FFFFFF" d="M95.618,820.822c496.887,0,993.775,0,1491.898,0
	c-1.492,2.72-2.271,4.779-3.593,6.396c-1.889,2.313-4.171,4.304-6.292,6.425c-210.009,210.011-420.014,420.024-630.034,630.024
	c-31.585,31.581-63.241,63.092-94.87,94.629c-1.887,1.881-3.71,3.854-5.772,5.526c-3.849,3.12-8.033,3.109-11.951,0.253
	c-2.401-1.752-4.456-4-6.575-6.118c-242.052-242.036-484.097-484.079-726.118-726.146c-2.911-2.912-5.511-6.137-8.256-9.216
	C94.575,822.005,95.096,821.414,95.618,820.822z"/>
<path fill-rule="evenodd" clip-rule="evenodd" fill="#FFFFFF" d="M772.257,461.594c-45.405-27.861-90.509-55.538-136.251-83.607
	c-78.844,44.717-157.739,89.464-236.636,134.21c-0.375-0.516-0.751-1.03-1.126-1.546c2.153-2.318,4.234-4.708,6.47-6.943
	C545.866,362.531,687.031,221.368,828.195,80.204c1.179-1.178,2.318-2.397,3.543-3.525c6.979-6.429,11.291-6.591,18.011,0.014
	c13.546,13.314,26.896,26.83,40.327,40.262c161.665,161.666,323.332,323.331,484.992,485.003c2.826,2.826,5.816,5.536,8.313,8.636
	c8.691,10.788,7.688,25.973-2.139,35.376c-9.491,9.081-24.295,9.659-34.694,1.21c-2.575-2.093-4.832-4.584-7.188-6.939
	c-105.584-105.574-211.151-211.163-316.775-316.695c-4.404-4.4-9.326-8.281-14.347-12.704
	C929.176,361.349,850.928,411.337,772.257,461.594z"/>
<path display="none" fill-rule="evenodd" clip-rule="evenodd" d="M827.639,1257.766c2.852-3.836,5.427-7.242,7.94-10.692
	c67.035-91.995,142.916-175.758,231.173-247.952c49.912-40.828,102.714-77.367,160.397-106.504c8.316-4.2,16.81-8.105,25.431-11.635
	c12.396-5.073,23.702-1.73,29.711,8.253c6.371,10.587,3.899,22.239-7.207,30.757c-37.862,29.036-73.938,60.132-108.318,93.201
	c-83.215,80.042-155.798,168.951-220.218,264.623c-32.4,48.117-63.007,97.359-89.036,149.254
	c-8.631,17.206-29.84,18.937-41.945,2.494c-31.403-42.652-63.57-84.771-96.425-126.317c-25.432-32.16-53.142-62.427-82.871-90.748
	c-18.124-17.266-37.052-33.517-58.497-46.674c-10.941-6.713-14.592-17.634-10.254-28.272c4.477-10.977,15.047-16.058,28.049-13
	c33.896,7.972,66.109,20.492,97.003,36.473c46.471,24.035,88.47,54.419,127.063,89.629
	C822.057,1252.863,824.534,1255.011,827.639,1257.766z"/>
</svg>
